<?xml version="1.0" encoding="UTF-8"?><svg xmlns="http://www.w3.org/2000/svg" xmlns:xlink="http://www.w3.org/1999/xlink" stroke-dasharray="none" shape-rendering="auto" font-family="'Dialog'" width="681" text-rendering="auto" fill-opacity="1" contentScriptType="text/ecmascript" color-interpolation="auto" color-rendering="auto" preserveAspectRatio="xMidYMid meet" font-size="12px" viewBox="0 0 681 481" fill="black" stroke="black" image-rendering="auto" stroke-miterlimit="10" zoomAndPan="magnify" version="1.0" stroke-linecap="square" stroke-linejoin="miter" contentStyleType="text/css" font-style="normal" height="481" stroke-width="1" stroke-dashoffset="0" font-weight="normal" stroke-opacity="1">
    <!--Generated by the Batik Graphics2D SVG Generator-->
    <defs id="genericDefs"/>
    <g>
        <defs id="defs1">
            <linearGradient x1="10" x2="10" y1="10" gradientUnits="userSpaceOnUse" y2="171" xlink:type="simple" xlink:actuate="onLoad" id="linearGradient1" xlink:show="other" spreadMethod="pad">
                <stop stop-opacity="1" stop-color="white" offset="0%"/>
                <stop stop-opacity="1" stop-color="rgb(155,199,204)" offset="100%"/>
            </linearGradient>
            <linearGradient x1="241" x2="241" y1="59" gradientUnits="userSpaceOnUse" y2="79" xlink:type="simple" xlink:actuate="onLoad" id="linearGradient2" xlink:show="other" spreadMethod="pad">
                <stop stop-opacity="1" stop-color="rgb(155,199,204)" offset="0%"/>
                <stop stop-opacity="1" stop-color="rgb(155,199,204)" offset="100%"/>
            </linearGradient>
            <linearGradient x1="241" x2="241" y1="100" gradientUnits="userSpaceOnUse" y2="120" xlink:type="simple" xlink:actuate="onLoad" id="linearGradient3" xlink:show="other" spreadMethod="pad">
                <stop stop-opacity="1" stop-color="rgb(155,199,204)" offset="0%"/>
                <stop stop-opacity="1" stop-color="rgb(155,199,204)" offset="100%"/>
            </linearGradient>
            <linearGradient x1="470" x2="470" y1="10" gradientUnits="userSpaceOnUse" y2="171" xlink:type="simple" xlink:actuate="onLoad" id="linearGradient4" xlink:show="other" spreadMethod="pad">
                <stop stop-opacity="1" stop-color="white" offset="0%"/>
                <stop stop-opacity="1" stop-color="rgb(155,199,204)" offset="100%"/>
            </linearGradient>
            <linearGradient x1="470" x2="470" y1="230" gradientUnits="userSpaceOnUse" y2="471" xlink:type="simple" xlink:actuate="onLoad" id="linearGradient5" xlink:show="other" spreadMethod="pad">
                <stop stop-opacity="1" stop-color="white" offset="0%"/>
                <stop stop-opacity="1" stop-color="rgb(155,199,204)" offset="100%"/>
            </linearGradient>
            <linearGradient x1="12" x2="12" y1="228" gradientUnits="userSpaceOnUse" y2="471" xlink:type="simple" xlink:actuate="onLoad" id="linearGradient6" xlink:show="other" spreadMethod="pad">
                <stop stop-opacity="1" stop-color="white" offset="0%"/>
                <stop stop-opacity="1" stop-color="rgb(155,199,204)" offset="100%"/>
            </linearGradient>
            <linearGradient x1="241" x2="241" y1="266" gradientUnits="userSpaceOnUse" y2="286" xlink:type="simple" xlink:actuate="onLoad" id="linearGradient7" xlink:show="other" spreadMethod="pad">
                <stop stop-opacity="1" stop-color="rgb(155,199,204)" offset="0%"/>
                <stop stop-opacity="1" stop-color="rgb(155,199,204)" offset="100%"/>
            </linearGradient>
            <linearGradient x1="241" x2="241" y1="302" gradientUnits="userSpaceOnUse" y2="322" xlink:type="simple" xlink:actuate="onLoad" id="linearGradient8" xlink:show="other" spreadMethod="pad">
                <stop stop-opacity="1" stop-color="rgb(155,199,204)" offset="0%"/>
                <stop stop-opacity="1" stop-color="rgb(155,199,204)" offset="100%"/>
            </linearGradient>
            <clipPath clipPathUnits="userSpaceOnUse" id="clipPath1">
                <path d="M10 10 L10 170 L250 170 L250 10 Z"/>
            </clipPath>
            <clipPath clipPathUnits="userSpaceOnUse" id="clipPath2">
                <path d="M112 12 L151 12 L151 25 L112 25 L112 12 Z"/>
            </clipPath>
            <clipPath clipPathUnits="userSpaceOnUse" id="clipPath3">
                <path d="M80 24 L182 24 L182 37 L80 37 L80 24 Z"/>
            </clipPath>
            <clipPath clipPathUnits="userSpaceOnUse" id="clipPath4">
                <path d="M10 36 L252 36 L252 105 L10 105 L10 36 Z"/>
            </clipPath>
            <clipPath clipPathUnits="userSpaceOnUse" id="clipPath5">
                <path d="M10 104 L252 104 L252 172 L10 172 L10 104 Z"/>
            </clipPath>
            <clipPath clipPathUnits="userSpaceOnUse" id="clipPath6">
                <path d="M9 9 L252 9 L252 172 L9 172 L9 9 Z"/>
            </clipPath>
            <clipPath clipPathUnits="userSpaceOnUse" id="clipPath7">
                <path d="M241 59 L241 78 L260 78 L260 59 Z"/>
            </clipPath>
            <clipPath clipPathUnits="userSpaceOnUse" id="clipPath8">
                <path d="M240 58 L262 58 L262 80 L240 80 L240 58 Z"/>
            </clipPath>
            <clipPath clipPathUnits="userSpaceOnUse" id="clipPath9">
                <path d="M265 61 L372 61 L372 74 L265 74 L265 61 Z"/>
            </clipPath>
            <clipPath clipPathUnits="userSpaceOnUse" id="clipPath10">
                <path d="M241 100 L241 119 L260 119 L260 100 Z"/>
            </clipPath>
            <clipPath clipPathUnits="userSpaceOnUse" id="clipPath11">
                <path d="M240 99 L262 99 L262 121 L240 121 L240 99 Z"/>
            </clipPath>
            <clipPath clipPathUnits="userSpaceOnUse" id="clipPath12">
                <path d="M265 102 L375 102 L375 115 L265 115 L265 102 Z"/>
            </clipPath>
            <clipPath clipPathUnits="userSpaceOnUse" id="clipPath13">
                <path d="M470 10 L470 170 L670 170 L670 10 Z"/>
            </clipPath>
            <clipPath clipPathUnits="userSpaceOnUse" id="clipPath14">
                <path d="M552 12 L591 12 L591 25 L552 25 L552 12 Z"/>
            </clipPath>
            <clipPath clipPathUnits="userSpaceOnUse" id="clipPath15">
                <path d="M558 24 L584 24 L584 37 L558 37 L558 24 Z"/>
            </clipPath>
            <clipPath clipPathUnits="userSpaceOnUse" id="clipPath16">
                <path d="M470 36 L672 36 L672 82 L470 82 L470 36 Z"/>
            </clipPath>
            <clipPath clipPathUnits="userSpaceOnUse" id="clipPath17">
                <path d="M475 84 L534 84 L534 97 L475 97 L475 84 Z"/>
            </clipPath>
            <clipPath clipPathUnits="userSpaceOnUse" id="clipPath18">
                <path d="M475 95 L527 95 L527 108 L475 108 L475 95 Z"/>
            </clipPath>
            <clipPath clipPathUnits="userSpaceOnUse" id="clipPath19">
                <path d="M475 106 L522 106 L522 119 L475 119 L475 106 Z"/>
            </clipPath>
            <clipPath clipPathUnits="userSpaceOnUse" id="clipPath20">
                <path d="M470 81 L672 81 L672 172 L470 172 L470 81 Z"/>
            </clipPath>
            <clipPath clipPathUnits="userSpaceOnUse" id="clipPath21">
                <path d="M469 9 L672 9 L672 172 L469 172 L469 9 Z"/>
            </clipPath>
            <clipPath clipPathUnits="userSpaceOnUse" id="clipPath22">
                <path d="M470 230 L470 470 L670 470 L670 230 Z"/>
            </clipPath>
            <clipPath clipPathUnits="userSpaceOnUse" id="clipPath23">
                <path d="M552 232 L591 232 L591 245 L552 245 L552 232 Z"/>
            </clipPath>
            <clipPath clipPathUnits="userSpaceOnUse" id="clipPath24">
                <path d="M543 244 L600 244 L600 257 L543 257 L543 244 Z"/>
            </clipPath>
            <clipPath clipPathUnits="userSpaceOnUse" id="clipPath25">
                <path d="M470 256 L672 256 L672 341 L470 341 L470 256 Z"/>
            </clipPath>
            <clipPath clipPathUnits="userSpaceOnUse" id="clipPath26">
                <path d="M475 343 L667 343 L667 356 L475 356 L475 343 Z"/>
            </clipPath>
            <clipPath clipPathUnits="userSpaceOnUse" id="clipPath27">
                <path d="M475 354 L666 354 L666 367 L475 367 L475 354 Z"/>
            </clipPath>
            <clipPath clipPathUnits="userSpaceOnUse" id="clipPath28">
                <path d="M470 340 L672 340 L672 472 L470 472 L470 340 Z"/>
            </clipPath>
            <clipPath clipPathUnits="userSpaceOnUse" id="clipPath29">
                <path d="M469 229 L672 229 L672 472 L469 472 L469 229 Z"/>
            </clipPath>
            <clipPath clipPathUnits="userSpaceOnUse" id="clipPath30">
                <path d="M12 228 L12 470 L250 470 L250 228 Z"/>
            </clipPath>
            <clipPath clipPathUnits="userSpaceOnUse" id="clipPath31">
                <path d="M113 230 L152 230 L152 243 L113 243 L113 230 Z"/>
            </clipPath>
            <clipPath clipPathUnits="userSpaceOnUse" id="clipPath32">
                <path d="M56 242 L208 242 L208 255 L56 255 L56 242 Z"/>
            </clipPath>
            <clipPath clipPathUnits="userSpaceOnUse" id="clipPath33">
                <path d="M12 254 L252 254 L252 364 L12 364 L12 254 Z"/>
            </clipPath>
            <clipPath clipPathUnits="userSpaceOnUse" id="clipPath34">
                <path d="M12 363 L252 363 L252 472 L12 472 L12 363 Z"/>
            </clipPath>
            <clipPath clipPathUnits="userSpaceOnUse" id="clipPath35">
                <path d="M11 227 L252 227 L252 472 L11 472 L11 227 Z"/>
            </clipPath>
            <clipPath clipPathUnits="userSpaceOnUse" id="clipPath36">
                <path d="M241 266 L241 285 L260 285 L260 266 Z"/>
            </clipPath>
            <clipPath clipPathUnits="userSpaceOnUse" id="clipPath37">
                <path d="M240 265 L262 265 L262 287 L240 287 L240 265 Z"/>
            </clipPath>
            <clipPath clipPathUnits="userSpaceOnUse" id="clipPath38">
                <path d="M265 268 L329 268 L329 281 L265 281 L265 268 Z"/>
            </clipPath>
            <clipPath clipPathUnits="userSpaceOnUse" id="clipPath39">
                <path d="M241 302 L241 321 L260 321 L260 302 Z"/>
            </clipPath>
            <clipPath clipPathUnits="userSpaceOnUse" id="clipPath40">
                <path d="M240 301 L262 301 L262 323 L240 323 L240 301 Z"/>
            </clipPath>
            <clipPath clipPathUnits="userSpaceOnUse" id="clipPath41">
                <path d="M265 304 L331 304 L331 317 L265 317 L265 304 Z"/>
            </clipPath>
            <clipPath clipPathUnits="userSpaceOnUse" id="clipPath42">
                <path d="M-1 -1 L682 -1 L682 482 L-1 482 L-1 -1 Z"/>
            </clipPath>
            <clipPath clipPathUnits="userSpaceOnUse" id="clipPath43">
                <path d="M121 170 L140 170 L140 183 L121 183 L121 170 Z"/>
            </clipPath>
            <clipPath clipPathUnits="userSpaceOnUse" id="clipPath44">
                <path d="M561 170 L580 170 L580 183 L561 183 L561 170 Z"/>
            </clipPath>
        </defs>
        <g font-size="11px" fill="url(#linearGradient1)" font-family="'.AppleSystemUIFont'" stroke-linejoin="round" stroke="url(#linearGradient1)" stroke-width="0" stroke-miterlimit="0">
            <rect x="10" width="241" height="161" y="10" clip-path="url(#clipPath1)" stroke="none"/>
        </g>
        <g stroke-miterlimit="0" stroke-width="0" font-size="9px" font-family="'.AppleSystemUIFont'" font-weight="bold" stroke-linejoin="round">
            <text x="113" xml:space="preserve" y="22" clip-path="url(#clipPath2)" stroke="none">«Block»</text>
            <text x="81" xml:space="preserve" y="34" clip-path="url(#clipPath3)" stroke="none">MQTT-Brooker-Design</text>
        </g>
        <g font-size="11px" stroke-width="2.1" font-family="'.AppleSystemUIFont'" stroke-linecap="butt">
            <line y2="38" fill="none" x1="10" clip-path="url(#clipPath4)" x2="251" y1="38"/>
            <line y2="106" fill="none" x1="10" clip-path="url(#clipPath5)" x2="251" y1="106"/>
            <rect x="11" y="11" clip-path="url(#clipPath6)" fill="none" width="239" rx="0" ry="0" height="159"/>
            <rect x="241" y="59" clip-path="url(#clipPath7)" fill="url(#linearGradient2)" width="20" height="20" stroke="none"/>
            <rect x="242" y="60" clip-path="url(#clipPath8)" fill="none" width="18" rx="0" ry="0" height="18"/>
            <text x="266" font-size="9px" y="71" clip-path="url(#clipPath9)" stroke="none" font-weight="bold" xml:space="preserve"> GatekeeperGatwayPort</text>
            <rect x="241" y="100" clip-path="url(#clipPath10)" fill="url(#linearGradient3)" width="20" height="20" stroke="none"/>
            <rect x="242" y="101" clip-path="url(#clipPath11)" fill="none" width="18" rx="0" ry="0" height="18"/>
            <text x="266" font-size="9px" y="112" clip-path="url(#clipPath12)" stroke="none" font-weight="bold" xml:space="preserve"> GateTunnelGatewayPort</text>
            <rect x="470" y="10" clip-path="url(#clipPath13)" fill="url(#linearGradient4)" width="201" height="161" stroke="none"/>
            <text x="553" font-size="9px" y="22" clip-path="url(#clipPath14)" stroke="none" font-weight="bold" xml:space="preserve">«Block»</text>
            <text x="559" font-size="9px" y="34" clip-path="url(#clipPath15)" stroke="none" font-weight="bold" xml:space="preserve">Topic</text>
            <line y2="38" fill="none" x1="470" clip-path="url(#clipPath16)" x2="671" y1="38"/>
            <text x="476" font-size="9px" y="94" clip-path="url(#clipPath17)" stroke="none" font-weight="bold" xml:space="preserve">  Subscribe()</text>
            <text x="476" font-size="9px" y="105" clip-path="url(#clipPath18)" stroke="none" font-weight="bold" xml:space="preserve">  Connect()</text>
            <text x="476" font-size="9px" y="116" clip-path="url(#clipPath19)" stroke="none" font-weight="bold" xml:space="preserve">  Publish()</text>
            <line y2="83" fill="none" x1="470" clip-path="url(#clipPath20)" x2="671" y1="83"/>
            <rect x="471" y="11" clip-path="url(#clipPath21)" fill="none" width="199" rx="0" ry="0" height="159"/>
            <rect x="470" y="230" clip-path="url(#clipPath22)" fill="url(#linearGradient5)" width="201" height="241" stroke="none"/>
            <text x="553" font-size="9px" y="242" clip-path="url(#clipPath23)" stroke="none" font-weight="bold" xml:space="preserve">«Block»</text>
            <text x="544" font-size="9px" y="254" clip-path="url(#clipPath24)" stroke="none" font-weight="bold" xml:space="preserve">Topic-MQTT</text>
            <line y2="258" fill="none" x1="470" clip-path="url(#clipPath25)" x2="671" y1="258"/>
            <text x="476" font-size="9px" y="353" clip-path="url(#clipPath26)" stroke="none" font-weight="bold" xml:space="preserve">«ArrowHeadServiceInterfaceMQTT»   Arr...</text>
            <text x="476" font-size="9px" y="364" clip-path="url(#clipPath27)" stroke="none" font-weight="bold" xml:space="preserve">«ArrowHeadServiceInterfaceHTTP»   Arr...</text>
            <line y2="342" fill="none" x1="470" clip-path="url(#clipPath28)" x2="671" y1="342"/>
            <rect x="471" y="231" clip-path="url(#clipPath29)" fill="none" width="199" rx="0" ry="0" height="239"/>
            <rect x="12" y="228" clip-path="url(#clipPath30)" fill="url(#linearGradient6)" width="239" height="243" stroke="none"/>
            <text x="114" font-size="9px" y="240" clip-path="url(#clipPath31)" stroke="none" font-weight="bold" xml:space="preserve">«Block»</text>
            <text x="57" font-size="9px" y="252" clip-path="url(#clipPath32)" stroke="none" font-weight="bold" xml:space="preserve">MQTT-Brooker-DesingDescription</text>
            <line y2="256" fill="none" x1="12" clip-path="url(#clipPath33)" x2="251" y1="256"/>
            <line y2="365" fill="none" x1="12" clip-path="url(#clipPath34)" x2="251" y1="365"/>
            <rect x="13" y="229" clip-path="url(#clipPath35)" fill="none" width="237" rx="0" ry="0" height="241"/>
            <rect x="241" y="266" clip-path="url(#clipPath36)" fill="url(#linearGradient7)" width="20" height="20" stroke="none"/>
            <rect x="242" y="267" clip-path="url(#clipPath37)" fill="none" width="18" rx="0" ry="0" height="18"/>
            <text x="266" font-size="9px" y="278" clip-path="url(#clipPath38)" stroke="none" font-weight="bold" xml:space="preserve"> Topic1-MQTT</text>
            <rect x="241" y="302" clip-path="url(#clipPath39)" fill="url(#linearGradient8)" width="20" height="20" stroke="none"/>
            <rect x="242" y="303" clip-path="url(#clipPath40)" fill="none" width="18" rx="0" ry="0" height="18"/>
            <text x="266" font-size="9px" y="314" clip-path="url(#clipPath41)" stroke="none" font-weight="bold" xml:space="preserve"> Topic2-MQTT</text>
            <line clip-path="url(#clipPath42)" fill="none" text-rendering="optimizeLegibility" x1="130" x2="130" y1="228" y2="171"/>
        </g>
        <g stroke-linecap="butt" font-size="9px" fill="white" text-rendering="optimizeLegibility" font-family="'.AppleSystemUIFont'" stroke="white" font-weight="bold" stroke-width="2.1">
            <polygon points=" 130 171 138 181 122 181" stroke="none" clip-path="url(#clipPath43)"/>
            <polygon fill="none" stroke-width="1.1" clip-path="url(#clipPath43)" points=" 130 171 138 181 122 181" stroke="black"/>
            <line clip-path="url(#clipPath42)" fill="none" x1="570" x2="570" y1="230" y2="171" stroke="black"/>
            <polygon points=" 570 171 578 181 562 181" clip-path="url(#clipPath44)" stroke="none"/>
            <polygon fill="none" stroke-width="1.1" clip-path="url(#clipPath44)" points=" 570 171 578 181 562 181" stroke="black"/>
        </g>
    </g>
    <rect x="10" y="10" fill-opacity="0" width="241" id="MQTT-Brooker-Design" height="161" stroke-opacity="0"/>
    <rect x="241" y="59" fill-opacity="0" width="20" id="GatekeeperGatwayPort" height="20" stroke-opacity="0"/>
    <rect x="241" y="100" fill-opacity="0" width="20" id="GateTunnelGatewayPort" height="20" stroke-opacity="0"/>
    <rect x="470" y="10" fill-opacity="0" width="201" id="Topic" height="161" stroke-opacity="0"/>
    <rect x="476" y="85" fill-opacity="0" width="191" id="Subscribe" height="11" stroke-opacity="0"/>
    <rect x="476" y="96" fill-opacity="0" width="191" id="Connect" height="11" stroke-opacity="0"/>
    <rect x="476" y="107" fill-opacity="0" width="191" id="Publish" height="11" stroke-opacity="0"/>
    <rect x="470" y="230" fill-opacity="0" width="201" id="Topic-MQTT" height="241" stroke-opacity="0"/>
    <rect x="476" y="344" fill-opacity="0" width="191" id="ArrowHeadServiceInterfaceMQTT3" height="11" stroke-opacity="0"/>
    <rect x="476" y="355" fill-opacity="0" width="191" id="ArrowHeadServiceInterfaceHTTP4" height="11" stroke-opacity="0"/>
    <rect x="12" y="228" fill-opacity="0" width="239" id="MQTT-Brooker-DesingDescription" height="243" stroke-opacity="0"/>
    <rect x="241" y="266" fill-opacity="0" width="20" id="Topic1-MQTT" height="20" stroke-opacity="0"/>
    <rect x="241" y="302" fill-opacity="0" width="20" id="Topic2-MQTT" height="20" stroke-opacity="0"/>
</svg>
