<?xml version="1.0" encoding="UTF-8"?><svg xmlns="http://www.w3.org/2000/svg" xmlns:xlink="http://www.w3.org/1999/xlink" stroke-dasharray="none" shape-rendering="auto" font-family="'Dialog'" width="861" text-rendering="auto" fill-opacity="1" contentScriptType="text/ecmascript" color-interpolation="auto" color-rendering="auto" preserveAspectRatio="xMidYMid meet" font-size="12px" viewBox="0 0 861 441" fill="black" stroke="black" image-rendering="auto" stroke-miterlimit="10" zoomAndPan="magnify" version="1.0" stroke-linecap="square" stroke-linejoin="miter" contentStyleType="text/css" font-style="normal" height="441" stroke-width="1" stroke-dashoffset="0" font-weight="normal" stroke-opacity="1">
    <!--Generated by the Batik Graphics2D SVG Generator-->
    <defs id="genericDefs"/>
    <g>
        <defs id="defs1">
            <linearGradient x1="10" x2="10" y1="110" gradientUnits="userSpaceOnUse" y2="431" xlink:type="simple" xlink:actuate="onLoad" id="linearGradient1" xlink:show="other" spreadMethod="pad">
                <stop stop-opacity="1" stop-color="rgb(255,128,0)" offset="0%"/>
                <stop stop-opacity="1" stop-color="rgb(255,128,0)" offset="100%"/>
            </linearGradient>
            <linearGradient x1="610" x2="610" y1="110" gradientUnits="userSpaceOnUse" y2="271" xlink:type="simple" xlink:actuate="onLoad" id="linearGradient2" xlink:show="other" spreadMethod="pad">
                <stop stop-opacity="1" stop-color="rgb(155,199,204)" offset="0%"/>
                <stop stop-opacity="1" stop-color="rgb(155,199,204)" offset="100%"/>
            </linearGradient>
            <clipPath clipPathUnits="userSpaceOnUse" id="clipPath1">
                <path d="M10 110 L10 430 L290 430 L290 110 Z"/>
            </clipPath>
            <clipPath clipPathUnits="userSpaceOnUse" id="clipPath2">
                <path d="M133 112 L170 112 L170 125 L133 125 L133 112 Z"/>
            </clipPath>
            <clipPath clipPathUnits="userSpaceOnUse" id="clipPath3">
                <path d="M129 124 L173 124 L173 137 L129 137 L129 124 Z"/>
            </clipPath>
            <clipPath clipPathUnits="userSpaceOnUse" id="clipPath4">
                <path d="M134 138 L168 138 L168 150 L134 150 L134 138 Z"/>
            </clipPath>
            <clipPath clipPathUnits="userSpaceOnUse" id="clipPath5">
                <path d="M15 149 L183 149 L183 164 L15 164 L15 149 Z"/>
            </clipPath>
            <clipPath clipPathUnits="userSpaceOnUse" id="clipPath6">
                <path d="M15 162 L145 162 L145 177 L15 177 L15 162 Z"/>
            </clipPath>
            <clipPath clipPathUnits="userSpaceOnUse" id="clipPath7">
                <path d="M15 175 L153 175 L153 190 L15 190 L15 175 Z"/>
            </clipPath>
            <clipPath clipPathUnits="userSpaceOnUse" id="clipPath8">
                <path d="M15 188 L155 188 L155 203 L15 203 L15 188 Z"/>
            </clipPath>
            <clipPath clipPathUnits="userSpaceOnUse" id="clipPath9">
                <path d="M15 201 L132 201 L132 216 L15 216 L15 201 Z"/>
            </clipPath>
            <clipPath clipPathUnits="userSpaceOnUse" id="clipPath10">
                <path d="M10 136 L292 136 L292 227 L10 227 L10 136 Z"/>
            </clipPath>
            <clipPath clipPathUnits="userSpaceOnUse" id="clipPath11">
                <path d="M9 109 L292 109 L292 432 L9 432 L9 109 Z"/>
            </clipPath>
            <clipPath clipPathUnits="userSpaceOnUse" id="clipPath12">
                <path d="M131 238 L172 238 L172 250 L131 250 L131 238 Z"/>
            </clipPath>
            <clipPath clipPathUnits="userSpaceOnUse" id="clipPath13">
                <path d="M10 236 L292 236 L292 335 L10 335 L10 236 Z"/>
            </clipPath>
            <clipPath clipPathUnits="userSpaceOnUse" id="clipPath14">
                <path d="M129 336 L174 336 L174 348 L129 348 L129 336 Z"/>
            </clipPath>
            <clipPath clipPathUnits="userSpaceOnUse" id="clipPath15">
                <path d="M10 334 L292 334 L292 432 L10 432 L10 334 Z"/>
            </clipPath>
            <clipPath clipPathUnits="userSpaceOnUse" id="clipPath16">
                <path d="M610 110 L610 270 L850 270 L850 110 Z"/>
            </clipPath>
            <clipPath clipPathUnits="userSpaceOnUse" id="clipPath17">
                <path d="M718 112 L745 112 L745 125 L718 125 L718 112 Z"/>
            </clipPath>
            <clipPath clipPathUnits="userSpaceOnUse" id="clipPath18">
                <path d="M719 127 L744 127 L744 139 L719 139 L719 127 Z"/>
            </clipPath>
            <clipPath clipPathUnits="userSpaceOnUse" id="clipPath19">
                <path d="M615 138 L718 138 L718 153 L615 153 L615 138 Z"/>
            </clipPath>
            <clipPath clipPathUnits="userSpaceOnUse" id="clipPath20">
                <path d="M615 151 L732 151 L732 166 L615 166 L615 151 Z"/>
            </clipPath>
            <clipPath clipPathUnits="userSpaceOnUse" id="clipPath21">
                <path d="M610 125 L852 125 L852 177 L610 177 L610 125 Z"/>
            </clipPath>
            <clipPath clipPathUnits="userSpaceOnUse" id="clipPath22">
                <path d="M609 109 L852 109 L852 272 L609 272 L609 109 Z"/>
            </clipPath>
            <clipPath clipPathUnits="userSpaceOnUse" id="clipPath23">
                <path d="M709 188 L754 188 L754 200 L709 200 L709 188 Z"/>
            </clipPath>
            <clipPath clipPathUnits="userSpaceOnUse" id="clipPath24">
                <path d="M610 186 L852 186 L852 272 L610 272 L610 186 Z"/>
            </clipPath>
            <clipPath clipPathUnits="userSpaceOnUse" id="clipPath25">
                <path d="M229 9 L678 9 L678 71 L229 71 L229 9 Z"/>
            </clipPath>
            <clipPath clipPathUnits="userSpaceOnUse" id="clipPath26">
                <path d="M236 16 L662 16 L662 40 L236 40 L236 16 Z"/>
            </clipPath>
        </defs>
        <g font-size="11px" fill="url(#linearGradient1)" font-family="'.AppleSystemUIFont'" stroke-linejoin="round" stroke="url(#linearGradient1)" stroke-width="0" stroke-miterlimit="0">
            <rect x="10" width="281" height="321" y="110" clip-path="url(#clipPath1)" stroke="none"/>
        </g>
        <g stroke-miterlimit="0" stroke-width="0" font-size="9px" font-family="'.AppleSystemUIFont'" font-weight="bold" stroke-linejoin="round">
            <text x="134" xml:space="preserve" y="122" clip-path="url(#clipPath2)" stroke="none">«SysD»</text>
            <text x="130" xml:space="preserve" y="134" clip-path="url(#clipPath3)" stroke="none">PrototAIP</text>
            <text x="135" xml:space="preserve" font-size="8px" y="147" clip-path="url(#clipPath4)" stroke="none">«SysD»</text>
            <text x="16" font-size="11px" y="161" clip-path="url(#clipPath5)" stroke="none" font-weight="normal" xml:space="preserve">MicrosystemName=[PrototAIP] </text>
            <text x="16" font-size="11px" y="174" clip-path="url(#clipPath6)" stroke="none" font-weight="normal" xml:space="preserve">FunctionalProperties=[] </text>
            <text x="16" font-size="11px" y="187" clip-path="url(#clipPath7)" stroke="none" font-weight="normal" xml:space="preserve">SystemDatabase=MySQL </text>
            <text x="16" font-size="11px" y="200" clip-path="url(#clipPath8)" stroke="none" font-weight="normal" xml:space="preserve">MicrosystemBehaviour=[] </text>
            <text x="16" font-size="11px" y="213" clip-path="url(#clipPath9)" stroke="none" font-weight="normal" xml:space="preserve">isEncapsulated=false </text>
        </g>
        <g font-size="11px" stroke-width="2.1" font-family="'.AppleSystemUIFont'" stroke-linecap="butt">
            <line y2="138" fill="none" x1="10" clip-path="url(#clipPath10)" x2="291" y1="138"/>
            <line clip-path="url(#clipPath11)" fill="none" x1="10" x2="291" y1="137" y2="137" stroke-width="1.1"/>
            <text x="132" font-size="8px" y="247" clip-path="url(#clipPath12)" stroke="none" font-weight="bold" stroke-width="1.1" xml:space="preserve">attributes</text>
            <line y2="238" fill="none" x1="10" clip-path="url(#clipPath13)" x2="291" y1="238"/>
            <text x="130" font-size="8px" y="345" clip-path="url(#clipPath14)" stroke="none" font-weight="bold" xml:space="preserve">operations</text>
            <line y2="336" fill="none" x1="10" clip-path="url(#clipPath15)" x2="291" y1="336"/>
            <rect x="11" y="111" clip-path="url(#clipPath11)" fill="none" width="279" rx="0" ry="0" height="319"/>
            <rect x="610" y="110" clip-path="url(#clipPath16)" fill="url(#linearGradient2)" width="241" height="161" stroke="none"/>
            <text x="719" font-size="9px" y="122" clip-path="url(#clipPath17)" stroke="none" font-weight="bold" xml:space="preserve">«SD»</text>
            <text x="720" font-size="8px" y="136" clip-path="url(#clipPath18)" stroke="none" font-weight="bold" xml:space="preserve">«SD»</text>
            <text x="616" xml:space="preserve" y="150" clip-path="url(#clipPath19)" stroke="none">MicroserviceName </text>
            <text x="616" xml:space="preserve" y="163" clip-path="url(#clipPath20)" stroke="none">isEncapsulated=false </text>
            <line y2="127" fill="none" x1="610" clip-path="url(#clipPath21)" x2="851" y1="127"/>
            <line clip-path="url(#clipPath22)" fill="none" x1="610" x2="851" y1="126" y2="126" stroke-width="1.1"/>
            <text x="710" font-size="8px" y="197" clip-path="url(#clipPath23)" stroke="none" font-weight="bold" stroke-width="1.1" xml:space="preserve">operations</text>
            <line y2="188" fill="none" x1="610" clip-path="url(#clipPath24)" x2="851" y1="188"/>
            <rect x="611" y="111" clip-path="url(#clipPath22)" fill="none" width="239" rx="0" ry="0" height="159"/>
        </g>
        <g stroke-linecap="butt" font-size="9px" fill="rgb(225,225,135)" font-family="'.AppleSystemUIFont'" stroke="rgb(225,225,135)" font-weight="bold" stroke-width="2.1">
            <path d="M231 11 L231 11 L663 11 L675 23 L675 68 L231 68 L231 11 ZM231 11" fill-rule="evenodd" clip-path="url(#clipPath25)" stroke="none"/>
            <text fill="black" x="237" xml:space="preserve" y="26" clip-path="url(#clipPath26)" stroke="none">PrototAIP description is not to the level from which a concrete SysML model can be made!!</text>
            <line clip-path="url(#clipPath25)" fill="none" x1="231" x2="663" y1="11" y2="11" stroke="black"/>
            <line clip-path="url(#clipPath25)" fill="none" x1="663" x2="675" y1="11" y2="23" stroke="black"/>
            <line clip-path="url(#clipPath25)" fill="none" x1="675" x2="675" y1="23" y2="68" stroke="black"/>
            <line clip-path="url(#clipPath25)" fill="none" x1="675" x2="231" y1="68" y2="68" stroke="black"/>
            <line clip-path="url(#clipPath25)" fill="none" x1="231" x2="231" y1="68" y2="11" stroke="black"/>
            <line clip-path="url(#clipPath25)" fill="none" x1="231" x2="231" y1="11" y2="10" stroke="black"/>
            <line clip-path="url(#clipPath25)" fill="none" x1="663" x2="663" y1="11" y2="23" stroke="black"/>
            <line clip-path="url(#clipPath25)" fill="none" x1="663" x2="676" y1="23" y2="23" stroke="black"/>
        </g>
    </g>
    <rect x="10" y="110" fill-opacity="0" width="281" id="PrototAIP" height="321" stroke-opacity="0"/>
    <rect x="610" y="110" fill-opacity="0" width="241" id="" height="161" stroke-opacity="0"/>
    <rect x="230" width="447" fill-opacity="0" height="60" y="10" stroke-opacity="0"/>
</svg>
