<?xml version="1.0" encoding="UTF-8"?><svg xmlns="http://www.w3.org/2000/svg" xmlns:xlink="http://www.w3.org/1999/xlink" stroke-dasharray="none" shape-rendering="auto" font-family="'Dialog'" width="1251" text-rendering="auto" fill-opacity="1" contentScriptType="text/ecmascript" color-interpolation="auto" color-rendering="auto" preserveAspectRatio="xMidYMid meet" font-size="12px" viewBox="0 0 1251 581" fill="black" stroke="black" image-rendering="auto" stroke-miterlimit="10" zoomAndPan="magnify" version="1.0" stroke-linecap="square" stroke-linejoin="miter" contentStyleType="text/css" font-style="normal" height="581" stroke-width="1" stroke-dashoffset="0" font-weight="normal" stroke-opacity="1">
    <!--Generated by the Batik Graphics2D SVG Generator-->
    <defs id="genericDefs"/>
    <g>
        <defs id="defs1">
            <linearGradient x1="670" x2="670" y1="310" gradientUnits="userSpaceOnUse" y2="570" xlink:type="simple" xlink:actuate="onLoad" id="linearGradient1" xlink:show="other" spreadMethod="pad">
                <stop stop-opacity="1" stop-color="rgb(155,199,204)" offset="0%"/>
                <stop stop-opacity="1" stop-color="rgb(155,199,204)" offset="100%"/>
            </linearGradient>
            <linearGradient x1="1030" x2="1030" y1="310" gradientUnits="userSpaceOnUse" y2="570" xlink:type="simple" xlink:actuate="onLoad" id="linearGradient2" xlink:show="other" spreadMethod="pad">
                <stop stop-opacity="1" stop-color="rgb(155,199,204)" offset="0%"/>
                <stop stop-opacity="1" stop-color="rgb(155,199,204)" offset="100%"/>
            </linearGradient>
            <linearGradient x1="670" x2="670" y1="10" gradientUnits="userSpaceOnUse" y2="153" xlink:type="simple" xlink:actuate="onLoad" id="linearGradient3" xlink:show="other" spreadMethod="pad">
                <stop stop-opacity="1" stop-color="rgb(155,199,204)" offset="0%"/>
                <stop stop-opacity="1" stop-color="rgb(155,199,204)" offset="100%"/>
            </linearGradient>
            <linearGradient x1="1030" x2="1030" y1="10" gradientUnits="userSpaceOnUse" y2="153" xlink:type="simple" xlink:actuate="onLoad" id="linearGradient4" xlink:show="other" spreadMethod="pad">
                <stop stop-opacity="1" stop-color="rgb(155,199,204)" offset="0%"/>
                <stop stop-opacity="1" stop-color="rgb(155,199,204)" offset="100%"/>
            </linearGradient>
            <linearGradient x1="170" x2="170" y1="10" gradientUnits="userSpaceOnUse" y2="231" xlink:type="simple" xlink:actuate="onLoad" id="linearGradient5" xlink:show="other" spreadMethod="pad">
                <stop stop-opacity="1" stop-color="rgb(254,251,0)" offset="0%"/>
                <stop stop-opacity="1" stop-color="rgb(254,251,0)" offset="100%"/>
            </linearGradient>
            <linearGradient x1="160" x2="160" y1="44" gradientUnits="userSpaceOnUse" y2="64" xlink:type="simple" xlink:actuate="onLoad" id="linearGradient6" xlink:show="other" spreadMethod="pad">
                <stop stop-opacity="1" stop-color="rgb(155,199,204)" offset="0%"/>
                <stop stop-opacity="1" stop-color="rgb(155,199,204)" offset="100%"/>
            </linearGradient>
            <linearGradient x1="160" x2="160" y1="80" gradientUnits="userSpaceOnUse" y2="100" xlink:type="simple" xlink:actuate="onLoad" id="linearGradient7" xlink:show="other" spreadMethod="pad">
                <stop stop-opacity="1" stop-color="rgb(155,199,204)" offset="0%"/>
                <stop stop-opacity="1" stop-color="rgb(155,199,204)" offset="100%"/>
            </linearGradient>
            <linearGradient x1="160" x2="160" y1="120" gradientUnits="userSpaceOnUse" y2="140" xlink:type="simple" xlink:actuate="onLoad" id="linearGradient8" xlink:show="other" spreadMethod="pad">
                <stop stop-opacity="1" stop-color="rgb(155,199,204)" offset="0%"/>
                <stop stop-opacity="1" stop-color="rgb(155,199,204)" offset="100%"/>
            </linearGradient>
            <linearGradient x1="401" x2="401" y1="39" gradientUnits="userSpaceOnUse" y2="59" xlink:type="simple" xlink:actuate="onLoad" id="linearGradient9" xlink:show="other" spreadMethod="pad">
                <stop stop-opacity="1" stop-color="rgb(155,199,204)" offset="0%"/>
                <stop stop-opacity="1" stop-color="rgb(155,199,204)" offset="100%"/>
            </linearGradient>
            <linearGradient x1="401" x2="401" y1="79" gradientUnits="userSpaceOnUse" y2="99" xlink:type="simple" xlink:actuate="onLoad" id="linearGradient10" xlink:show="other" spreadMethod="pad">
                <stop stop-opacity="1" stop-color="rgb(155,199,204)" offset="0%"/>
                <stop stop-opacity="1" stop-color="rgb(155,199,204)" offset="100%"/>
            </linearGradient>
            <linearGradient x1="170" x2="170" y1="310" gradientUnits="userSpaceOnUse" y2="571" xlink:type="simple" xlink:actuate="onLoad" id="linearGradient11" xlink:show="other" spreadMethod="pad">
                <stop stop-opacity="1" stop-color="rgb(254,251,0)" offset="0%"/>
                <stop stop-opacity="1" stop-color="rgb(254,251,0)" offset="100%"/>
            </linearGradient>
            <linearGradient x1="160" x2="160" y1="360" gradientUnits="userSpaceOnUse" y2="380" xlink:type="simple" xlink:actuate="onLoad" id="linearGradient12" xlink:show="other" spreadMethod="pad">
                <stop stop-opacity="1" stop-color="rgb(155,199,204)" offset="0%"/>
                <stop stop-opacity="1" stop-color="rgb(155,199,204)" offset="100%"/>
            </linearGradient>
            <linearGradient x1="160" x2="160" y1="400" gradientUnits="userSpaceOnUse" y2="420" xlink:type="simple" xlink:actuate="onLoad" id="linearGradient13" xlink:show="other" spreadMethod="pad">
                <stop stop-opacity="1" stop-color="rgb(155,199,204)" offset="0%"/>
                <stop stop-opacity="1" stop-color="rgb(155,199,204)" offset="100%"/>
            </linearGradient>
            <linearGradient x1="160" x2="160" y1="440" gradientUnits="userSpaceOnUse" y2="460" xlink:type="simple" xlink:actuate="onLoad" id="linearGradient14" xlink:show="other" spreadMethod="pad">
                <stop stop-opacity="1" stop-color="rgb(155,199,204)" offset="0%"/>
                <stop stop-opacity="1" stop-color="rgb(155,199,204)" offset="100%"/>
            </linearGradient>
            <linearGradient x1="401" x2="401" y1="359" gradientUnits="userSpaceOnUse" y2="379" xlink:type="simple" xlink:actuate="onLoad" id="linearGradient15" xlink:show="other" spreadMethod="pad">
                <stop stop-opacity="1" stop-color="rgb(155,199,204)" offset="0%"/>
                <stop stop-opacity="1" stop-color="rgb(155,199,204)" offset="100%"/>
            </linearGradient>
            <linearGradient x1="401" x2="401" y1="399" gradientUnits="userSpaceOnUse" y2="419" xlink:type="simple" xlink:actuate="onLoad" id="linearGradient16" xlink:show="other" spreadMethod="pad">
                <stop stop-opacity="1" stop-color="rgb(155,199,204)" offset="0%"/>
                <stop stop-opacity="1" stop-color="rgb(155,199,204)" offset="100%"/>
            </linearGradient>
            <clipPath clipPathUnits="userSpaceOnUse" id="clipPath1">
                <path d="M670 310 L670 569 L915 569 L915 310 Z"/>
            </clipPath>
            <clipPath clipPathUnits="userSpaceOnUse" id="clipPath2">
                <path d="M778 312 L809 312 L809 325 L778 325 L778 312 Z"/>
            </clipPath>
            <clipPath clipPathUnits="userSpaceOnUse" id="clipPath3">
                <path d="M727 324 L861 324 L861 337 L727 337 L727 324 Z"/>
            </clipPath>
            <clipPath clipPathUnits="userSpaceOnUse" id="clipPath4">
                <path d="M780 338 L808 338 L808 350 L780 350 L780 338 Z"/>
            </clipPath>
            <clipPath clipPathUnits="userSpaceOnUse" id="clipPath5">
                <path d="M675 349 L717 349 L717 364 L675 364 L675 349 Z"/>
            </clipPath>
            <clipPath clipPathUnits="userSpaceOnUse" id="clipPath6">
                <path d="M675 362 L753 362 L753 377 L675 377 L675 362 Z"/>
            </clipPath>
            <clipPath clipPathUnits="userSpaceOnUse" id="clipPath7">
                <path d="M675 375 L766 375 L766 390 L675 390 L675 375 Z"/>
            </clipPath>
            <clipPath clipPathUnits="userSpaceOnUse" id="clipPath8">
                <path d="M675 388 L800 388 L800 403 L675 403 L675 388 Z"/>
            </clipPath>
            <clipPath clipPathUnits="userSpaceOnUse" id="clipPath9">
                <path d="M675 401 L788 401 L788 416 L675 416 L675 401 Z"/>
            </clipPath>
            <clipPath clipPathUnits="userSpaceOnUse" id="clipPath10">
                <path d="M675 414 L870 414 L870 429 L675 429 L675 414 Z"/>
            </clipPath>
            <clipPath clipPathUnits="userSpaceOnUse" id="clipPath11">
                <path d="M675 427 L806 427 L806 442 L675 442 L675 427 Z"/>
            </clipPath>
            <clipPath clipPathUnits="userSpaceOnUse" id="clipPath12">
                <path d="M675 440 L801 440 L801 455 L675 455 L675 440 Z"/>
            </clipPath>
            <clipPath clipPathUnits="userSpaceOnUse" id="clipPath13">
                <path d="M675 453 L776 453 L776 468 L675 468 L675 453 Z"/>
            </clipPath>
            <clipPath clipPathUnits="userSpaceOnUse" id="clipPath14">
                <path d="M675 466 L908 466 L908 481 L675 481 L675 466 Z"/>
            </clipPath>
            <clipPath clipPathUnits="userSpaceOnUse" id="clipPath15">
                <path d="M675 479 L792 479 L792 494 L675 494 L675 479 Z"/>
            </clipPath>
            <clipPath clipPathUnits="userSpaceOnUse" id="clipPath16">
                <path d="M670 336 L917 336 L917 518 L670 518 L670 336 Z"/>
            </clipPath>
            <clipPath clipPathUnits="userSpaceOnUse" id="clipPath17">
                <path d="M669 309 L917 309 L917 571 L669 571 L669 309 Z"/>
            </clipPath>
            <clipPath clipPathUnits="userSpaceOnUse" id="clipPath18">
                <path d="M771 529 L816 529 L816 541 L771 541 L771 529 Z"/>
            </clipPath>
            <clipPath clipPathUnits="userSpaceOnUse" id="clipPath19">
                <path d="M670 527 L917 527 L917 571 L670 571 L670 527 Z"/>
            </clipPath>
            <clipPath clipPathUnits="userSpaceOnUse" id="clipPath20">
                <path d="M1030 310 L1030 569 L1240 569 L1240 310 Z"/>
            </clipPath>
            <clipPath clipPathUnits="userSpaceOnUse" id="clipPath21">
                <path d="M1121 312 L1152 312 L1152 325 L1121 325 L1121 312 Z"/>
            </clipPath>
            <clipPath clipPathUnits="userSpaceOnUse" id="clipPath22">
                <path d="M1084 324 L1189 324 L1189 337 L1084 337 L1084 324 Z"/>
            </clipPath>
            <clipPath clipPathUnits="userSpaceOnUse" id="clipPath23">
                <path d="M1122 338 L1150 338 L1150 350 L1122 350 L1122 338 Z"/>
            </clipPath>
            <clipPath clipPathUnits="userSpaceOnUse" id="clipPath24">
                <path d="M1035 349 L1077 349 L1077 364 L1035 364 L1035 349 Z"/>
            </clipPath>
            <clipPath clipPathUnits="userSpaceOnUse" id="clipPath25">
                <path d="M1035 362 L1113 362 L1113 377 L1035 377 L1035 362 Z"/>
            </clipPath>
            <clipPath clipPathUnits="userSpaceOnUse" id="clipPath26">
                <path d="M1035 375 L1126 375 L1126 390 L1035 390 L1035 375 Z"/>
            </clipPath>
            <clipPath clipPathUnits="userSpaceOnUse" id="clipPath27">
                <path d="M1035 388 L1160 388 L1160 403 L1035 403 L1035 388 Z"/>
            </clipPath>
            <clipPath clipPathUnits="userSpaceOnUse" id="clipPath28">
                <path d="M1035 401 L1148 401 L1148 416 L1035 416 L1035 401 Z"/>
            </clipPath>
            <clipPath clipPathUnits="userSpaceOnUse" id="clipPath29">
                <path d="M1035 414 L1230 414 L1230 429 L1035 429 L1035 414 Z"/>
            </clipPath>
            <clipPath clipPathUnits="userSpaceOnUse" id="clipPath30">
                <path d="M1035 427 L1166 427 L1166 442 L1035 442 L1035 427 Z"/>
            </clipPath>
            <clipPath clipPathUnits="userSpaceOnUse" id="clipPath31">
                <path d="M1035 440 L1161 440 L1161 455 L1035 455 L1035 440 Z"/>
            </clipPath>
            <clipPath clipPathUnits="userSpaceOnUse" id="clipPath32">
                <path d="M1035 453 L1136 453 L1136 468 L1035 468 L1035 453 Z"/>
            </clipPath>
            <clipPath clipPathUnits="userSpaceOnUse" id="clipPath33">
                <path d="M1035 466 L1233 466 L1233 481 L1035 481 L1035 466 Z"/>
            </clipPath>
            <clipPath clipPathUnits="userSpaceOnUse" id="clipPath34">
                <path d="M1035 479 L1152 479 L1152 494 L1035 494 L1035 479 Z"/>
            </clipPath>
            <clipPath clipPathUnits="userSpaceOnUse" id="clipPath35">
                <path d="M1030 336 L1242 336 L1242 518 L1030 518 L1030 336 Z"/>
            </clipPath>
            <clipPath clipPathUnits="userSpaceOnUse" id="clipPath36">
                <path d="M1029 309 L1242 309 L1242 571 L1029 571 L1029 309 Z"/>
            </clipPath>
            <clipPath clipPathUnits="userSpaceOnUse" id="clipPath37">
                <path d="M1114 529 L1159 529 L1159 541 L1114 541 L1114 529 Z"/>
            </clipPath>
            <clipPath clipPathUnits="userSpaceOnUse" id="clipPath38">
                <path d="M1030 527 L1242 527 L1242 571 L1030 571 L1030 527 Z"/>
            </clipPath>
            <clipPath clipPathUnits="userSpaceOnUse" id="clipPath39">
                <path d="M670 10 L670 152 L915 152 L915 10 Z"/>
            </clipPath>
            <clipPath clipPathUnits="userSpaceOnUse" id="clipPath40">
                <path d="M780 12 L807 12 L807 25 L780 25 L780 12 Z"/>
            </clipPath>
            <clipPath clipPathUnits="userSpaceOnUse" id="clipPath41">
                <path d="M741 24 L847 24 L847 37 L741 37 L741 24 Z"/>
            </clipPath>
            <clipPath clipPathUnits="userSpaceOnUse" id="clipPath42">
                <path d="M781 38 L806 38 L806 50 L781 50 L781 38 Z"/>
            </clipPath>
            <clipPath clipPathUnits="userSpaceOnUse" id="clipPath43">
                <path d="M675 49 L908 49 L908 64 L675 64 L675 49 Z"/>
            </clipPath>
            <clipPath clipPathUnits="userSpaceOnUse" id="clipPath44">
                <path d="M675 62 L792 62 L792 77 L675 77 L675 62 Z"/>
            </clipPath>
            <clipPath clipPathUnits="userSpaceOnUse" id="clipPath45">
                <path d="M670 36 L917 36 L917 101 L670 101 L670 36 Z"/>
            </clipPath>
            <clipPath clipPathUnits="userSpaceOnUse" id="clipPath46">
                <path d="M669 9 L917 9 L917 154 L669 154 L669 9 Z"/>
            </clipPath>
            <clipPath clipPathUnits="userSpaceOnUse" id="clipPath47">
                <path d="M771 112 L816 112 L816 124 L771 124 L771 112 Z"/>
            </clipPath>
            <clipPath clipPathUnits="userSpaceOnUse" id="clipPath48">
                <path d="M670 110 L917 110 L917 154 L670 154 L670 110 Z"/>
            </clipPath>
            <clipPath clipPathUnits="userSpaceOnUse" id="clipPath49">
                <path d="M1030 10 L1030 152 L1240 152 L1240 10 Z"/>
            </clipPath>
            <clipPath clipPathUnits="userSpaceOnUse" id="clipPath50">
                <path d="M1123 12 L1150 12 L1150 25 L1123 25 L1123 12 Z"/>
            </clipPath>
            <clipPath clipPathUnits="userSpaceOnUse" id="clipPath51">
                <path d="M1098 24 L1174 24 L1174 37 L1098 37 L1098 24 Z"/>
            </clipPath>
            <clipPath clipPathUnits="userSpaceOnUse" id="clipPath52">
                <path d="M1124 38 L1149 38 L1149 50 L1124 50 L1124 38 Z"/>
            </clipPath>
            <clipPath clipPathUnits="userSpaceOnUse" id="clipPath53">
                <path d="M1035 49 L1233 49 L1233 64 L1035 64 L1035 49 Z"/>
            </clipPath>
            <clipPath clipPathUnits="userSpaceOnUse" id="clipPath54">
                <path d="M1035 62 L1152 62 L1152 77 L1035 77 L1035 62 Z"/>
            </clipPath>
            <clipPath clipPathUnits="userSpaceOnUse" id="clipPath55">
                <path d="M1030 36 L1242 36 L1242 101 L1030 101 L1030 36 Z"/>
            </clipPath>
            <clipPath clipPathUnits="userSpaceOnUse" id="clipPath56">
                <path d="M1029 9 L1242 9 L1242 154 L1029 154 L1029 9 Z"/>
            </clipPath>
            <clipPath clipPathUnits="userSpaceOnUse" id="clipPath57">
                <path d="M1114 112 L1159 112 L1159 124 L1114 124 L1114 112 Z"/>
            </clipPath>
            <clipPath clipPathUnits="userSpaceOnUse" id="clipPath58">
                <path d="M1030 110 L1242 110 L1242 154 L1030 154 L1030 110 Z"/>
            </clipPath>
            <clipPath clipPathUnits="userSpaceOnUse" id="clipPath59">
                <path d="M170 10 L170 230 L410 230 L410 10 Z"/>
            </clipPath>
            <clipPath clipPathUnits="userSpaceOnUse" id="clipPath60">
                <path d="M273 12 L310 12 L310 25 L273 25 L273 12 Z"/>
            </clipPath>
            <clipPath clipPathUnits="userSpaceOnUse" id="clipPath61">
                <path d="M229 24 L353 24 L353 37 L229 37 L229 24 Z"/>
            </clipPath>
            <clipPath clipPathUnits="userSpaceOnUse" id="clipPath62">
                <path d="M274 38 L308 38 L308 50 L274 50 L274 38 Z"/>
            </clipPath>
            <clipPath clipPathUnits="userSpaceOnUse" id="clipPath63">
                <path d="M175 49 L394 49 L394 77 L175 77 L175 49 Z"/>
            </clipPath>
            <clipPath clipPathUnits="userSpaceOnUse" id="clipPath64">
                <path d="M175 75 L305 75 L305 90 L175 90 L175 75 Z"/>
            </clipPath>
            <clipPath clipPathUnits="userSpaceOnUse" id="clipPath65">
                <path d="M175 88 L313 88 L313 103 L175 103 L175 88 Z"/>
            </clipPath>
            <clipPath clipPathUnits="userSpaceOnUse" id="clipPath66">
                <path d="M175 101 L315 101 L315 116 L175 116 L175 101 Z"/>
            </clipPath>
            <clipPath clipPathUnits="userSpaceOnUse" id="clipPath67">
                <path d="M175 114 L292 114 L292 129 L175 129 L175 114 Z"/>
            </clipPath>
            <clipPath clipPathUnits="userSpaceOnUse" id="clipPath68">
                <path d="M170 36 L412 36 L412 140 L170 140 L170 36 Z"/>
            </clipPath>
            <clipPath clipPathUnits="userSpaceOnUse" id="clipPath69">
                <path d="M169 9 L412 9 L412 232 L169 232 L169 9 Z"/>
            </clipPath>
            <clipPath clipPathUnits="userSpaceOnUse" id="clipPath70">
                <path d="M271 151 L312 151 L312 163 L271 163 L271 151 Z"/>
            </clipPath>
            <clipPath clipPathUnits="userSpaceOnUse" id="clipPath71">
                <path d="M170 149 L412 149 L412 192 L170 192 L170 149 Z"/>
            </clipPath>
            <clipPath clipPathUnits="userSpaceOnUse" id="clipPath72">
                <path d="M269 193 L314 193 L314 205 L269 205 L269 193 Z"/>
            </clipPath>
            <clipPath clipPathUnits="userSpaceOnUse" id="clipPath73">
                <path d="M170 191 L412 191 L412 232 L170 232 L170 191 Z"/>
            </clipPath>
            <clipPath clipPathUnits="userSpaceOnUse" id="clipPath74">
                <path d="M160 44 L160 63 L179 63 L179 44 Z"/>
            </clipPath>
            <clipPath clipPathUnits="userSpaceOnUse" id="clipPath75">
                <path d="M159 43 L181 43 L181 65 L159 65 L159 43 Z"/>
            </clipPath>
            <clipPath clipPathUnits="userSpaceOnUse" id="clipPath76">
                <path d="M57 54 L138 54 L138 67 L57 67 L57 54 Z"/>
            </clipPath>
            <clipPath clipPathUnits="userSpaceOnUse" id="clipPath77">
                <path d="M160 80 L160 99 L179 99 L179 80 Z"/>
            </clipPath>
            <clipPath clipPathUnits="userSpaceOnUse" id="clipPath78">
                <path d="M159 79 L181 79 L181 101 L159 101 L159 79 Z"/>
            </clipPath>
            <clipPath clipPathUnits="userSpaceOnUse" id="clipPath79">
                <path d="M47 89 L145 89 L145 102 L47 102 L47 89 Z"/>
            </clipPath>
            <clipPath clipPathUnits="userSpaceOnUse" id="clipPath80">
                <path d="M160 120 L160 139 L179 139 L179 120 Z"/>
            </clipPath>
            <clipPath clipPathUnits="userSpaceOnUse" id="clipPath81">
                <path d="M159 119 L181 119 L181 141 L159 141 L159 119 Z"/>
            </clipPath>
            <clipPath clipPathUnits="userSpaceOnUse" id="clipPath82">
                <path d="M69 129 L133 129 L133 142 L69 142 L69 129 Z"/>
            </clipPath>
            <clipPath clipPathUnits="userSpaceOnUse" id="clipPath83">
                <path d="M401 39 L401 58 L420 58 L420 39 Z"/>
            </clipPath>
            <clipPath clipPathUnits="userSpaceOnUse" id="clipPath84">
                <path d="M400 38 L422 38 L422 60 L400 60 L400 38 Z"/>
            </clipPath>
            <clipPath clipPathUnits="userSpaceOnUse" id="clipPath85">
                <path d="M425 41 L504 41 L504 54 L425 54 L425 41 Z"/>
            </clipPath>
            <clipPath clipPathUnits="userSpaceOnUse" id="clipPath86">
                <path d="M401 79 L401 98 L420 98 L420 79 Z"/>
            </clipPath>
            <clipPath clipPathUnits="userSpaceOnUse" id="clipPath87">
                <path d="M400 78 L422 78 L422 100 L400 100 L400 78 Z"/>
            </clipPath>
            <clipPath clipPathUnits="userSpaceOnUse" id="clipPath88">
                <path d="M425 81 L533 81 L533 94 L425 94 L425 81 Z"/>
            </clipPath>
            <clipPath clipPathUnits="userSpaceOnUse" id="clipPath89">
                <path d="M170 310 L170 570 L410 570 L410 310 Z"/>
            </clipPath>
            <clipPath clipPathUnits="userSpaceOnUse" id="clipPath90">
                <path d="M269 312 L313 312 L313 325 L269 325 L269 312 Z"/>
            </clipPath>
            <clipPath clipPathUnits="userSpaceOnUse" id="clipPath91">
                <path d="M202 324 L380 324 L380 337 L202 337 L202 324 Z"/>
            </clipPath>
            <clipPath clipPathUnits="userSpaceOnUse" id="clipPath92">
                <path d="M271 338 L311 338 L311 350 L271 350 L271 338 Z"/>
            </clipPath>
            <clipPath clipPathUnits="userSpaceOnUse" id="clipPath93">
                <path d="M175 349 L303 349 L303 364 L175 364 L175 349 Z"/>
            </clipPath>
            <clipPath clipPathUnits="userSpaceOnUse" id="clipPath94">
                <path d="M175 362 L363 362 L363 377 L175 377 L175 362 Z"/>
            </clipPath>
            <clipPath clipPathUnits="userSpaceOnUse" id="clipPath95">
                <path d="M175 375 L394 375 L394 403 L175 403 L175 375 Z"/>
            </clipPath>
            <clipPath clipPathUnits="userSpaceOnUse" id="clipPath96">
                <path d="M175 401 L305 401 L305 416 L175 416 L175 401 Z"/>
            </clipPath>
            <clipPath clipPathUnits="userSpaceOnUse" id="clipPath97">
                <path d="M175 414 L313 414 L313 429 L175 429 L175 414 Z"/>
            </clipPath>
            <clipPath clipPathUnits="userSpaceOnUse" id="clipPath98">
                <path d="M175 427 L315 427 L315 442 L175 442 L175 427 Z"/>
            </clipPath>
            <clipPath clipPathUnits="userSpaceOnUse" id="clipPath99">
                <path d="M175 440 L292 440 L292 455 L175 455 L175 440 Z"/>
            </clipPath>
            <clipPath clipPathUnits="userSpaceOnUse" id="clipPath100">
                <path d="M170 336 L412 336 L412 466 L170 466 L170 336 Z"/>
            </clipPath>
            <clipPath clipPathUnits="userSpaceOnUse" id="clipPath101">
                <path d="M169 309 L412 309 L412 572 L169 572 L169 309 Z"/>
            </clipPath>
            <clipPath clipPathUnits="userSpaceOnUse" id="clipPath102">
                <path d="M271 477 L312 477 L312 489 L271 489 L271 477 Z"/>
            </clipPath>
            <clipPath clipPathUnits="userSpaceOnUse" id="clipPath103">
                <path d="M170 475 L412 475 L412 525 L170 525 L170 475 Z"/>
            </clipPath>
            <clipPath clipPathUnits="userSpaceOnUse" id="clipPath104">
                <path d="M269 526 L314 526 L314 538 L269 538 L269 526 Z"/>
            </clipPath>
            <clipPath clipPathUnits="userSpaceOnUse" id="clipPath105">
                <path d="M170 524 L412 524 L412 572 L170 572 L170 524 Z"/>
            </clipPath>
            <clipPath clipPathUnits="userSpaceOnUse" id="clipPath106">
                <path d="M160 360 L160 379 L179 379 L179 360 Z"/>
            </clipPath>
            <clipPath clipPathUnits="userSpaceOnUse" id="clipPath107">
                <path d="M159 359 L181 359 L181 381 L159 381 L159 359 Z"/>
            </clipPath>
            <clipPath clipPathUnits="userSpaceOnUse" id="clipPath108">
                <path d="M29 369 L139 369 L139 382 L29 382 L29 369 Z"/>
            </clipPath>
            <clipPath clipPathUnits="userSpaceOnUse" id="clipPath109">
                <path d="M160 400 L160 419 L179 419 L179 400 Z"/>
            </clipPath>
            <clipPath clipPathUnits="userSpaceOnUse" id="clipPath110">
                <path d="M159 399 L181 399 L181 421 L159 421 L159 399 Z"/>
            </clipPath>
            <clipPath clipPathUnits="userSpaceOnUse" id="clipPath111">
                <path d="M9 409 L136 409 L136 422 L9 422 L9 409 Z"/>
            </clipPath>
            <clipPath clipPathUnits="userSpaceOnUse" id="clipPath112">
                <path d="M160 440 L160 459 L179 459 L179 440 Z"/>
            </clipPath>
            <clipPath clipPathUnits="userSpaceOnUse" id="clipPath113">
                <path d="M159 439 L181 439 L181 461 L159 461 L159 439 Z"/>
            </clipPath>
            <clipPath clipPathUnits="userSpaceOnUse" id="clipPath114">
                <path d="M29 449 L122 449 L122 462 L29 462 L29 449 Z"/>
            </clipPath>
            <clipPath clipPathUnits="userSpaceOnUse" id="clipPath115">
                <path d="M401 359 L401 378 L420 378 L420 359 Z"/>
            </clipPath>
            <clipPath clipPathUnits="userSpaceOnUse" id="clipPath116">
                <path d="M400 358 L422 358 L422 380 L400 380 L400 358 Z"/>
            </clipPath>
            <clipPath clipPathUnits="userSpaceOnUse" id="clipPath117">
                <path d="M425 361 L533 361 L533 374 L425 374 L425 361 Z"/>
            </clipPath>
            <clipPath clipPathUnits="userSpaceOnUse" id="clipPath118">
                <path d="M401 399 L401 418 L420 418 L420 399 Z"/>
            </clipPath>
            <clipPath clipPathUnits="userSpaceOnUse" id="clipPath119">
                <path d="M400 398 L422 398 L422 420 L400 420 L400 398 Z"/>
            </clipPath>
            <clipPath clipPathUnits="userSpaceOnUse" id="clipPath120">
                <path d="M425 401 L533 401 L533 414 L425 414 L425 401 Z"/>
            </clipPath>
            <clipPath clipPathUnits="userSpaceOnUse" id="clipPath121">
                <path d="M-1 -1 L1252 -1 L1252 582 L-1 582 L-1 -1 Z"/>
            </clipPath>
            <clipPath clipPathUnits="userSpaceOnUse" id="clipPath122">
                <path d="M781 152 L800 152 L800 165 L781 165 L781 152 Z"/>
            </clipPath>
            <clipPath clipPathUnits="userSpaceOnUse" id="clipPath123">
                <path d="M1121 152 L1140 152 L1140 165 L1121 165 L1121 152 Z"/>
            </clipPath>
            <clipPath clipPathUnits="userSpaceOnUse" id="clipPath124">
                <path d="M281 230 L300 230 L300 243 L281 243 L281 230 Z"/>
            </clipPath>
        </defs>
        <g font-size="11px" fill="url(#linearGradient1)" font-family="'.AppleSystemUIFont'" stroke-linejoin="round" stroke="url(#linearGradient1)" stroke-width="0" stroke-miterlimit="0">
            <rect x="670" width="246" height="260" y="310" clip-path="url(#clipPath1)" stroke="none"/>
        </g>
        <g stroke-miterlimit="0" stroke-width="0" font-size="9px" font-family="'.AppleSystemUIFont'" font-weight="bold" stroke-linejoin="round">
            <text x="779" xml:space="preserve" y="322" clip-path="url(#clipPath2)" stroke="none">«IDD»</text>
            <text x="728" xml:space="preserve" y="334" clip-path="url(#clipPath3)" stroke="none">CertificateManagement-HTTP</text>
            <text x="781" xml:space="preserve" font-size="8px" y="347" clip-path="url(#clipPath4)" stroke="none">«IDD»</text>
            <text x="676" font-size="11px" y="361" clip-path="url(#clipPath5)" stroke="none" font-weight="normal" xml:space="preserve">Port=0 </text>
            <text x="676" font-size="11px" y="374" clip-path="url(#clipPath6)" stroke="none" font-weight="normal" xml:space="preserve">Protocol=http </text>
            <text x="676" font-size="11px" y="387" clip-path="url(#clipPath7)" stroke="none" font-weight="normal" xml:space="preserve">Encoding=JSON </text>
            <text x="676" font-size="11px" y="400" clip-path="url(#clipPath8)" stroke="none" font-weight="normal" xml:space="preserve">Security=CERTIFICATE </text>
            <text x="676" font-size="11px" y="413" clip-path="url(#clipPath9)" stroke="none" font-weight="normal" xml:space="preserve">Compression=NONE </text>
            <text x="676" font-size="11px" y="426" clip-path="url(#clipPath10)" stroke="none" font-weight="normal" xml:space="preserve">Certificate_level=ApplicationSystem </text>
            <text x="676" font-size="11px" y="439" clip-path="url(#clipPath11)" stroke="none" font-weight="normal" xml:space="preserve">Token=ArrowheadToken </text>
            <text x="676" font-size="11px" y="452" clip-path="url(#clipPath12)" stroke="none" font-weight="normal" xml:space="preserve">Crypto_algorithm=RSA </text>
            <text x="676" font-size="11px" y="465" clip-path="url(#clipPath13)" stroke="none" font-weight="normal" xml:space="preserve">Datamodel=NONE </text>
            <text x="676" font-size="11px" y="478" clip-path="url(#clipPath14)" stroke="none" font-weight="normal" xml:space="preserve">MicroserviceName=CertificateManagement </text>
            <text x="676" font-size="11px" y="491" clip-path="url(#clipPath15)" stroke="none" font-weight="normal" xml:space="preserve">isEncapsulated=false </text>
        </g>
        <g font-size="11px" stroke-width="2.1" font-family="'.AppleSystemUIFont'" stroke-linecap="butt">
            <line y2="338" fill="none" x1="670" clip-path="url(#clipPath16)" x2="916" y1="338"/>
            <line clip-path="url(#clipPath17)" fill="none" x1="670" x2="916" y1="337" y2="337" stroke-width="1.1"/>
            <text x="772" font-size="8px" y="538" clip-path="url(#clipPath18)" stroke="none" font-weight="bold" stroke-width="1.1" xml:space="preserve">operations</text>
            <line y2="529" fill="none" x1="670" clip-path="url(#clipPath19)" x2="916" y1="529"/>
            <rect x="671" y="311" clip-path="url(#clipPath17)" fill="none" width="244" rx="0" ry="0" height="258"/>
            <rect x="1030" y="310" clip-path="url(#clipPath20)" fill="url(#linearGradient2)" width="211" height="260" stroke="none"/>
            <text x="1122" font-size="9px" y="322" clip-path="url(#clipPath21)" stroke="none" font-weight="bold" xml:space="preserve">«IDD»</text>
            <text x="1085" font-size="9px" y="334" clip-path="url(#clipPath22)" stroke="none" font-weight="bold" xml:space="preserve">CheckCertificate-HTTP</text>
            <text x="1123" font-size="8px" y="347" clip-path="url(#clipPath23)" stroke="none" font-weight="bold" xml:space="preserve">«IDD»</text>
            <text x="1036" xml:space="preserve" y="361" clip-path="url(#clipPath24)" stroke="none">Port=0 </text>
            <text x="1036" xml:space="preserve" y="374" clip-path="url(#clipPath25)" stroke="none">Protocol=http </text>
            <text x="1036" xml:space="preserve" y="387" clip-path="url(#clipPath26)" stroke="none">Encoding=JSON </text>
            <text x="1036" xml:space="preserve" y="400" clip-path="url(#clipPath27)" stroke="none">Security=CERTIFICATE </text>
            <text x="1036" xml:space="preserve" y="413" clip-path="url(#clipPath28)" stroke="none">Compression=NONE </text>
            <text x="1036" xml:space="preserve" y="426" clip-path="url(#clipPath29)" stroke="none">Certificate_level=ApplicationSystem </text>
            <text x="1036" xml:space="preserve" y="439" clip-path="url(#clipPath30)" stroke="none">Token=ArrowheadToken </text>
            <text x="1036" xml:space="preserve" y="452" clip-path="url(#clipPath31)" stroke="none">Crypto_algorithm=RSA </text>
            <text x="1036" xml:space="preserve" y="465" clip-path="url(#clipPath32)" stroke="none">Datamodel=NONE </text>
            <text x="1036" xml:space="preserve" y="478" clip-path="url(#clipPath33)" stroke="none">MicroserviceName=CheckCertificate </text>
            <text x="1036" xml:space="preserve" y="491" clip-path="url(#clipPath34)" stroke="none">isEncapsulated=false </text>
            <line y2="338" fill="none" x1="1030" clip-path="url(#clipPath35)" x2="1241" y1="338"/>
            <line clip-path="url(#clipPath36)" fill="none" x1="1030" x2="1241" y1="337" y2="337" stroke-width="1.1"/>
            <text x="1115" font-size="8px" y="538" clip-path="url(#clipPath37)" stroke="none" font-weight="bold" stroke-width="1.1" xml:space="preserve">operations</text>
            <line y2="529" fill="none" x1="1030" clip-path="url(#clipPath38)" x2="1241" y1="529"/>
            <rect x="1031" y="311" clip-path="url(#clipPath36)" fill="none" width="209" rx="0" ry="0" height="258"/>
            <line clip-path="url(#clipPath36)" fill="none" x1="1034" x2="1034" y1="310" y2="569" stroke-width="1.1"/>
            <line clip-path="url(#clipPath36)" fill="none" x1="1236" x2="1236" y1="310" y2="569" stroke-width="1.1"/>
            <line clip-path="url(#clipPath36)" fill="none" x1="1032" x2="1032" y1="311" y2="568" stroke="rgb(155,199,204)" stroke-width="3.1"/>
            <line clip-path="url(#clipPath36)" fill="none" x1="1238" x2="1238" y1="311" y2="568" stroke="rgb(155,199,204)" stroke-width="3.1"/>
            <rect x="670" y="10" clip-path="url(#clipPath39)" fill="url(#linearGradient3)" width="246" height="143" stroke="none" stroke-width="3.1"/>
            <text x="781" font-size="9px" y="22" clip-path="url(#clipPath40)" stroke="none" font-weight="bold" stroke-width="3.1" xml:space="preserve">«SD»</text>
            <text x="742" font-size="9px" y="34" clip-path="url(#clipPath41)" stroke="none" font-weight="bold" stroke-width="3.1" xml:space="preserve">CertificateManagement</text>
            <text x="782" font-size="8px" y="47" clip-path="url(#clipPath42)" stroke="none" font-weight="bold" stroke-width="3.1" xml:space="preserve">«SD»</text>
            <text x="676" xml:space="preserve" stroke-width="3.1" y="61" clip-path="url(#clipPath43)" stroke="none">MicroserviceName=CertificateManagement </text>
            <text x="676" xml:space="preserve" stroke-width="3.1" y="74" clip-path="url(#clipPath44)" stroke="none">isEncapsulated=false </text>
            <line y2="38" fill="none" x1="670" clip-path="url(#clipPath45)" x2="916" y1="38"/>
            <line clip-path="url(#clipPath46)" fill="none" x1="670" x2="916" y1="37" y2="37" stroke-width="1.1"/>
            <text x="772" font-size="8px" y="121" clip-path="url(#clipPath47)" stroke="none" font-weight="bold" stroke-width="1.1" xml:space="preserve">operations</text>
            <line y2="112" fill="none" x1="670" clip-path="url(#clipPath48)" x2="916" y1="112"/>
            <rect x="671" y="11" clip-path="url(#clipPath46)" fill="none" width="244" rx="0" ry="0" height="141"/>
            <rect x="1030" y="10" clip-path="url(#clipPath49)" fill="url(#linearGradient4)" width="211" height="143" stroke="none"/>
            <text x="1124" font-size="9px" y="22" clip-path="url(#clipPath50)" stroke="none" font-weight="bold" xml:space="preserve">«SD»</text>
            <text x="1099" font-size="9px" y="34" clip-path="url(#clipPath51)" stroke="none" font-weight="bold" xml:space="preserve">CheckCertificate</text>
            <text x="1125" font-size="8px" y="47" clip-path="url(#clipPath52)" stroke="none" font-weight="bold" xml:space="preserve">«SD»</text>
            <text x="1036" xml:space="preserve" y="61" clip-path="url(#clipPath53)" stroke="none">MicroserviceName=CheckCertificate </text>
            <text x="1036" xml:space="preserve" y="74" clip-path="url(#clipPath54)" stroke="none">isEncapsulated=false </text>
            <line y2="38" fill="none" x1="1030" clip-path="url(#clipPath55)" x2="1241" y1="38"/>
            <line clip-path="url(#clipPath56)" fill="none" x1="1030" x2="1241" y1="37" y2="37" stroke-width="1.1"/>
            <text x="1115" font-size="8px" y="121" clip-path="url(#clipPath57)" stroke="none" font-weight="bold" stroke-width="1.1" xml:space="preserve">operations</text>
            <line y2="112" fill="none" x1="1030" clip-path="url(#clipPath58)" x2="1241" y1="112"/>
            <rect x="1031" y="11" clip-path="url(#clipPath56)" fill="none" width="209" rx="0" ry="0" height="141"/>
            <rect x="170" y="10" clip-path="url(#clipPath59)" fill="url(#linearGradient5)" width="241" height="221" stroke="none"/>
            <text x="274" font-size="9px" y="22" clip-path="url(#clipPath60)" stroke="none" font-weight="bold" xml:space="preserve">«SysD»</text>
            <text x="230" font-size="9px" y="34" clip-path="url(#clipPath61)" stroke="none" font-weight="bold" xml:space="preserve">CertificateAuthority-Design</text>
            <text x="275" font-size="8px" y="47" clip-path="url(#clipPath62)" stroke="none" font-weight="bold" xml:space="preserve">«SysD»</text>
            <text x="176" xml:space="preserve" y="61" clip-path="url(#clipPath63)" stroke="none">MicrosystemName=[CertificateAuthority-</text>
            <text x="176" xml:space="preserve" y="74" clip-path="url(#clipPath63)" stroke="none">Design] </text>
            <text x="176" xml:space="preserve" y="87" clip-path="url(#clipPath64)" stroke="none">FunctionalProperties=[] </text>
            <text x="176" xml:space="preserve" y="100" clip-path="url(#clipPath65)" stroke="none">SystemDatabase=MySQL </text>
            <text x="176" xml:space="preserve" y="113" clip-path="url(#clipPath66)" stroke="none">MicrosystemBehaviour=[] </text>
            <text x="176" xml:space="preserve" y="126" clip-path="url(#clipPath67)" stroke="none">isEncapsulated=false </text>
            <line y2="38" fill="none" x1="170" clip-path="url(#clipPath68)" x2="411" y1="38"/>
            <line clip-path="url(#clipPath69)" fill="none" x1="170" x2="411" y1="37" y2="37" stroke-width="1.1"/>
            <text x="272" font-size="8px" y="160" clip-path="url(#clipPath70)" stroke="none" font-weight="bold" stroke-width="1.1" xml:space="preserve">attributes</text>
            <line y2="151" fill="none" x1="170" clip-path="url(#clipPath71)" x2="411" y1="151"/>
            <text x="270" font-size="8px" y="202" clip-path="url(#clipPath72)" stroke="none" font-weight="bold" xml:space="preserve">operations</text>
            <line y2="193" fill="none" x1="170" clip-path="url(#clipPath73)" x2="411" y1="193"/>
            <rect x="171" y="11" clip-path="url(#clipPath69)" fill="none" width="239" rx="0" ry="0" height="219"/>
            <rect x="160" y="44" clip-path="url(#clipPath74)" fill="url(#linearGradient6)" width="20" height="20" stroke="none"/>
            <rect x="161" y="45" clip-path="url(#clipPath75)" fill="none" width="18" rx="0" ry="0" height="18"/>
            <text x="58" font-size="9px" y="64" clip-path="url(#clipPath76)" stroke="none" font-weight="bold" xml:space="preserve"> ServiceDiscovery</text>
            <rect x="160" y="80" clip-path="url(#clipPath77)" fill="url(#linearGradient7)" width="20" height="20" stroke="none"/>
            <rect x="161" y="81" clip-path="url(#clipPath78)" fill="none" width="18" rx="0" ry="0" height="18"/>
            <text x="48" font-size="9px" y="99" clip-path="url(#clipPath79)" stroke="none" font-weight="bold" xml:space="preserve"> ServiceOrchestration</text>
            <rect x="160" y="120" clip-path="url(#clipPath80)" fill="url(#linearGradient8)" width="20" height="20" stroke="none"/>
            <rect x="161" y="121" clip-path="url(#clipPath81)" fill="none" width="18" rx="0" ry="0" height="18"/>
            <text x="70" font-size="9px" y="139" clip-path="url(#clipPath82)" stroke="none" font-weight="bold" xml:space="preserve"> GetPublicKey</text>
            <rect x="401" y="39" clip-path="url(#clipPath83)" fill="url(#linearGradient9)" width="20" height="20" stroke="none"/>
            <rect x="402" y="40" clip-path="url(#clipPath84)" fill="none" width="18" rx="0" ry="0" height="18"/>
            <text x="426" font-size="9px" y="51" clip-path="url(#clipPath85)" stroke="none" font-weight="bold" xml:space="preserve"> CheckCertificate</text>
            <rect x="401" y="79" clip-path="url(#clipPath86)" fill="url(#linearGradient10)" width="20" height="20" stroke="none"/>
            <rect x="402" y="80" clip-path="url(#clipPath87)" fill="none" width="18" rx="0" ry="0" height="18"/>
            <text x="426" font-size="9px" y="91" clip-path="url(#clipPath88)" stroke="none" font-weight="bold" xml:space="preserve"> CertificateManagement</text>
            <rect x="170" y="310" clip-path="url(#clipPath89)" fill="url(#linearGradient11)" width="241" height="261" stroke="none"/>
            <text x="270" font-size="9px" y="322" clip-path="url(#clipPath90)" stroke="none" font-weight="bold" xml:space="preserve">«SysDD»</text>
            <text x="203" font-size="9px" y="334" clip-path="url(#clipPath91)" stroke="none" font-weight="bold" xml:space="preserve">CertificatreAuthority-DesignDescription</text>
            <text x="272" font-size="8px" y="347" clip-path="url(#clipPath92)" stroke="none" font-weight="bold" xml:space="preserve">«SysDD»</text>
            <text x="176" xml:space="preserve" y="361" clip-path="url(#clipPath93)" stroke="none">Timeformat=RFC_3339 </text>
            <text x="176" xml:space="preserve" y="374" clip-path="url(#clipPath94)" stroke="none">ArrowheadCertificate=CoreSystem </text>
            <text x="176" xml:space="preserve" y="387" clip-path="url(#clipPath95)" stroke="none">MicrosystemName=[CertificateAuthority-</text>
            <text x="176" xml:space="preserve" y="400" clip-path="url(#clipPath95)" stroke="none">Design] </text>
            <text x="176" xml:space="preserve" y="413" clip-path="url(#clipPath96)" stroke="none">FunctionalProperties=[] </text>
            <text x="176" xml:space="preserve" y="426" clip-path="url(#clipPath97)" stroke="none">SystemDatabase=MySQL </text>
            <text x="176" xml:space="preserve" y="439" clip-path="url(#clipPath98)" stroke="none">MicrosystemBehaviour=[] </text>
            <text x="176" xml:space="preserve" y="452" clip-path="url(#clipPath99)" stroke="none">isEncapsulated=false </text>
            <line y2="338" fill="none" x1="170" clip-path="url(#clipPath100)" x2="411" y1="338"/>
            <line clip-path="url(#clipPath101)" fill="none" x1="170" x2="411" y1="337" y2="337" stroke-width="1.1"/>
            <text x="272" font-size="8px" y="486" clip-path="url(#clipPath102)" stroke="none" font-weight="bold" stroke-width="1.1" xml:space="preserve">attributes</text>
            <line y2="477" fill="none" x1="170" clip-path="url(#clipPath103)" x2="411" y1="477"/>
            <text x="270" font-size="8px" y="535" clip-path="url(#clipPath104)" stroke="none" font-weight="bold" xml:space="preserve">operations</text>
            <line y2="526" fill="none" x1="170" clip-path="url(#clipPath105)" x2="411" y1="526"/>
            <rect x="171" y="311" clip-path="url(#clipPath101)" fill="none" width="239" rx="0" ry="0" height="259"/>
            <rect x="160" y="360" clip-path="url(#clipPath106)" fill="url(#linearGradient12)" width="20" height="20" stroke="none"/>
            <rect x="161" y="361" clip-path="url(#clipPath107)" fill="none" width="18" rx="0" ry="0" height="18"/>
            <text x="30" font-size="9px" y="379" clip-path="url(#clipPath108)" stroke="none" font-weight="bold" xml:space="preserve"> ServiceDiscovery-HTTP</text>
            <rect x="160" y="400" clip-path="url(#clipPath109)" fill="url(#linearGradient13)" width="20" height="20" stroke="none"/>
            <rect x="161" y="401" clip-path="url(#clipPath110)" fill="none" width="18" rx="0" ry="0" height="18"/>
            <text x="10" font-size="9px" y="419" clip-path="url(#clipPath111)" stroke="none" font-weight="bold" xml:space="preserve"> ServiceOrchestration-HTTP</text>
            <rect x="160" y="440" clip-path="url(#clipPath112)" fill="url(#linearGradient14)" width="20" height="20" stroke="none"/>
            <rect x="161" y="441" clip-path="url(#clipPath113)" fill="none" width="18" rx="0" ry="0" height="18"/>
            <text x="30" font-size="9px" y="459" clip-path="url(#clipPath114)" stroke="none" font-weight="bold" xml:space="preserve"> GetPublicKey-HTTP</text>
            <rect x="401" y="359" clip-path="url(#clipPath115)" fill="url(#linearGradient15)" width="20" height="20" stroke="none"/>
            <rect x="402" y="360" clip-path="url(#clipPath116)" fill="none" width="18" rx="0" ry="0" height="18"/>
            <text x="426" font-size="9px" y="371" clip-path="url(#clipPath117)" stroke="none" font-weight="bold" xml:space="preserve"> CertificateManagement</text>
            <rect x="401" y="399" clip-path="url(#clipPath118)" fill="url(#linearGradient16)" width="20" height="20" stroke="none"/>
            <rect x="402" y="400" clip-path="url(#clipPath119)" fill="none" width="18" rx="0" ry="0" height="18"/>
            <text x="426" font-size="9px" y="411" clip-path="url(#clipPath120)" stroke="none" font-weight="bold" xml:space="preserve"> CheckCertificate-HTTP</text>
            <line clip-path="url(#clipPath121)" fill="none" text-rendering="optimizeLegibility" x1="790" x2="790" y1="310" y2="153"/>
        </g>
        <g stroke-linecap="butt" font-size="9px" fill="white" text-rendering="optimizeLegibility" font-family="'.AppleSystemUIFont'" stroke="white" font-weight="bold" stroke-width="2.1">
            <polygon points=" 790 153 798 163 782 163" stroke="none" clip-path="url(#clipPath122)"/>
            <polygon fill="none" stroke-width="1.1" clip-path="url(#clipPath122)" points=" 790 153 798 163 782 163" stroke="black"/>
            <line clip-path="url(#clipPath121)" fill="none" x1="1130" x2="1130" y1="310" y2="153" stroke="black"/>
            <polygon points=" 1130 153 1138 163 1122 163" clip-path="url(#clipPath123)" stroke="none"/>
            <polygon fill="none" stroke-width="1.1" clip-path="url(#clipPath123)" points=" 1130 153 1138 163 1122 163" stroke="black"/>
            <line clip-path="url(#clipPath121)" fill="none" x1="290" x2="290" y1="310" y2="231" stroke="black"/>
            <polygon points=" 290 231 298 241 282 241" clip-path="url(#clipPath124)" stroke="none"/>
            <polygon fill="none" stroke-width="1.1" clip-path="url(#clipPath124)" points=" 290 231 298 241 282 241" stroke="black"/>
        </g>
    </g>
    <rect x="670" y="310" fill-opacity="0" width="246" id="CertificateManagement-HTTP" height="260" stroke-opacity="0"/>
    <rect x="1030" y="310" fill-opacity="0" width="211" id="CheckCertificate-HTTP" height="260" stroke-opacity="0"/>
    <rect x="670" y="10" fill-opacity="0" width="246" id="CertificateManagement" height="143" stroke-opacity="0"/>
    <rect x="1030" y="10" fill-opacity="0" width="211" id="CheckCertificate" height="143" stroke-opacity="0"/>
    <rect x="170" y="10" fill-opacity="0" width="241" id="CertificateAuthority-Design" height="221" stroke-opacity="0"/>
    <rect x="160" y="44" fill-opacity="0" width="20" id="ServiceDiscovery" height="20" stroke-opacity="0"/>
    <rect x="160" y="80" fill-opacity="0" width="20" id="ServiceOrchestration" height="20" stroke-opacity="0"/>
    <rect x="160" y="120" fill-opacity="0" width="20" id="GetPublicKey" height="20" stroke-opacity="0"/>
    <rect x="401" y="39" fill-opacity="0" width="20" id="CheckCertificate" height="20" stroke-opacity="0"/>
    <rect x="401" y="79" fill-opacity="0" width="20" id="CertificateManagement" height="20" stroke-opacity="0"/>
    <rect x="170" y="310" fill-opacity="0" width="241" id="CertificatreAuthority-DesignDescription" height="261" stroke-opacity="0"/>
    <rect x="160" y="360" fill-opacity="0" width="20" id="ServiceDiscovery-HTTP" height="20" stroke-opacity="0"/>
    <rect x="160" y="400" fill-opacity="0" width="20" id="ServiceOrchestration-HTTP" height="20" stroke-opacity="0"/>
    <rect x="160" y="440" fill-opacity="0" width="20" id="GetPublicKey-HTTP" height="20" stroke-opacity="0"/>
    <rect x="401" y="359" fill-opacity="0" width="20" id="CertificateManagement" height="20" stroke-opacity="0"/>
    <rect x="401" y="399" fill-opacity="0" width="20" id="CheckCertificate-HTTP" height="20" stroke-opacity="0"/>
</svg>
