<?xml version="1.0" encoding="UTF-8"?><svg xmlns="http://www.w3.org/2000/svg" xmlns:xlink="http://www.w3.org/1999/xlink" stroke-dasharray="none" shape-rendering="auto" font-family="'Dialog'" width="361" text-rendering="auto" fill-opacity="1" contentScriptType="text/ecmascript" color-interpolation="auto" color-rendering="auto" preserveAspectRatio="xMidYMid meet" font-size="12px" viewBox="0 0 361 641" fill="black" stroke="black" image-rendering="auto" stroke-miterlimit="10" zoomAndPan="magnify" version="1.0" stroke-linecap="square" stroke-linejoin="miter" contentStyleType="text/css" font-style="normal" height="641" stroke-width="1" stroke-dashoffset="0" font-weight="normal" stroke-opacity="1">
    <!--Generated by the Batik Graphics2D SVG Generator-->
    <defs id="genericDefs"/>
    <g>
        <defs id="defs1">
            <linearGradient x1="10" x2="10" y1="10" gradientUnits="userSpaceOnUse" y2="271" xlink:type="simple" xlink:actuate="onLoad" id="linearGradient1" xlink:show="other" spreadMethod="pad">
                <stop stop-opacity="1" stop-color="white" offset="0%"/>
                <stop stop-opacity="1" stop-color="gray" offset="100%"/>
            </linearGradient>
            <linearGradient x1="10" x2="10" y1="390" gradientUnits="userSpaceOnUse" y2="631" xlink:type="simple" xlink:actuate="onLoad" id="linearGradient2" xlink:show="other" spreadMethod="pad">
                <stop stop-opacity="1" stop-color="white" offset="0%"/>
                <stop stop-opacity="1" stop-color="gray" offset="100%"/>
            </linearGradient>
            <clipPath clipPathUnits="userSpaceOnUse" id="clipPath1">
                <path d="M10 10 L10 270 L350 270 L350 10 Z"/>
            </clipPath>
            <clipPath clipPathUnits="userSpaceOnUse" id="clipPath2">
                <path d="M107 12 L256 12 L256 25 L107 25 L107 12 Z"/>
            </clipPath>
            <clipPath clipPathUnits="userSpaceOnUse" id="clipPath3">
                <path d="M92 24 L271 24 L271 37 L92 37 L92 24 Z"/>
            </clipPath>
            <clipPath clipPathUnits="userSpaceOnUse" id="clipPath4">
                <path d="M10 36 L352 36 L352 155 L10 155 L10 36 Z"/>
            </clipPath>
            <clipPath clipPathUnits="userSpaceOnUse" id="clipPath5">
                <path d="M10 154 L352 154 L352 272 L10 272 L10 154 Z"/>
            </clipPath>
            <clipPath clipPathUnits="userSpaceOnUse" id="clipPath6">
                <path d="M9 9 L352 9 L352 272 L9 272 L9 9 Z"/>
            </clipPath>
            <clipPath clipPathUnits="userSpaceOnUse" id="clipPath7">
                <path d="M10 390 L10 630 L350 630 L350 390 Z"/>
            </clipPath>
            <clipPath clipPathUnits="userSpaceOnUse" id="clipPath8">
                <path d="M83 392 L280 392 L280 405 L83 405 L83 392 Z"/>
            </clipPath>
            <clipPath clipPathUnits="userSpaceOnUse" id="clipPath9">
                <path d="M68 404 L294 404 L294 417 L68 417 L68 404 Z"/>
            </clipPath>
            <clipPath clipPathUnits="userSpaceOnUse" id="clipPath10">
                <path d="M10 416 L352 416 L352 525 L10 525 L10 416 Z"/>
            </clipPath>
            <clipPath clipPathUnits="userSpaceOnUse" id="clipPath11">
                <path d="M10 524 L352 524 L352 632 L10 632 L10 524 Z"/>
            </clipPath>
            <clipPath clipPathUnits="userSpaceOnUse" id="clipPath12">
                <path d="M9 389 L352 389 L352 632 L9 632 L9 389 Z"/>
            </clipPath>
            <clipPath clipPathUnits="userSpaceOnUse" id="clipPath13">
                <path d="M-1 -1 L362 -1 L362 642 L-1 642 L-1 -1 Z"/>
            </clipPath>
            <clipPath clipPathUnits="userSpaceOnUse" id="clipPath14">
                <path d="M181 270 L200 270 L200 283 L181 283 L181 270 Z"/>
            </clipPath>
        </defs>
        <g font-size="11px" fill="url(#linearGradient1)" font-family="'.AppleSystemUIFont'" stroke-linejoin="round" stroke="url(#linearGradient1)" stroke-width="0" stroke-miterlimit="0">
            <rect x="10" width="341" height="261" y="10" clip-path="url(#clipPath1)" stroke="none"/>
        </g>
        <g stroke-miterlimit="0" stroke-width="0" font-size="9px" font-family="'.AppleSystemUIFont'" font-weight="bold" stroke-linejoin="round">
            <text x="108" xml:space="preserve" y="22" clip-path="url(#clipPath2)" stroke="none">«System_of_LocalcloudsDesign»</text>
            <text x="93" xml:space="preserve" y="34" clip-path="url(#clipPath3)" stroke="none">Generic-System-of-LocalClouds-Design</text>
        </g>
        <g font-size="11px" stroke-width="2.1" font-family="'.AppleSystemUIFont'" stroke-linecap="butt">
            <line y2="38" fill="none" x1="10" clip-path="url(#clipPath4)" x2="351" y1="38"/>
            <line y2="156" fill="none" x1="10" clip-path="url(#clipPath5)" x2="351" y1="156"/>
            <rect x="11" y="11" clip-path="url(#clipPath6)" fill="none" width="339" rx="0" ry="0" height="259"/>
            <rect x="10" y="390" clip-path="url(#clipPath7)" fill="url(#linearGradient2)" width="341" height="241" stroke="none"/>
            <text x="84" font-size="9px" y="402" clip-path="url(#clipPath8)" stroke="none" font-weight="bold" xml:space="preserve">«System_of_LocacloudsDesignDescription»</text>
            <text x="69" font-size="9px" y="414" clip-path="url(#clipPath9)" stroke="none" font-weight="bold" xml:space="preserve">Generic-System-of-Locaclouds-DesignDescription</text>
            <line y2="418" fill="none" x1="10" clip-path="url(#clipPath10)" x2="351" y1="418"/>
            <line y2="526" fill="none" x1="10" clip-path="url(#clipPath11)" x2="351" y1="526"/>
            <rect x="11" y="391" clip-path="url(#clipPath12)" fill="none" width="339" rx="0" ry="0" height="239"/>
            <line clip-path="url(#clipPath13)" fill="none" text-rendering="optimizeLegibility" x1="190" x2="190" y1="390" y2="271"/>
        </g>
        <g stroke-linecap="butt" font-size="9px" fill="white" text-rendering="optimizeLegibility" font-family="'.AppleSystemUIFont'" stroke="white" font-weight="bold" stroke-width="2.1">
            <polygon points=" 190 271 198 281 182 281" stroke="none" clip-path="url(#clipPath14)"/>
            <polygon fill="none" stroke-width="1.1" clip-path="url(#clipPath14)" points=" 190 271 198 281 182 281" stroke="black"/>
        </g>
    </g>
    <rect x="10" y="10" fill-opacity="0" width="341" id="Generic-System-of-LocalClouds-Design" height="261" stroke-opacity="0"/>
    <rect x="10" y="390" fill-opacity="0" width="341" id="Generic-System-of-Locaclouds-DesignDescription" height="241" stroke-opacity="0"/>
</svg>
