<?xml version="1.0" encoding="UTF-8"?><svg xmlns="http://www.w3.org/2000/svg" xmlns:xlink="http://www.w3.org/1999/xlink" stroke-dasharray="none" shape-rendering="auto" font-family="'Dialog'" width="885" text-rendering="auto" fill-opacity="1" contentScriptType="text/ecmascript" color-interpolation="auto" color-rendering="auto" preserveAspectRatio="xMidYMid meet" font-size="12px" viewBox="0 0 885 1579" fill="black" stroke="black" image-rendering="auto" stroke-miterlimit="10" zoomAndPan="magnify" version="1.0" stroke-linecap="square" stroke-linejoin="miter" contentStyleType="text/css" font-style="normal" height="1579" stroke-width="1" stroke-dashoffset="0" font-weight="normal" stroke-opacity="1">
    <!--Generated by the Batik Graphics2D SVG Generator-->
    <defs id="genericDefs"/>
    <g>
        <defs id="defs1">
            <linearGradient x1="10" x2="10" y1="10" gradientUnits="userSpaceOnUse" y2="1569" xlink:type="simple" xlink:actuate="onLoad" id="linearGradient1" xlink:show="other" spreadMethod="pad">
                <stop stop-opacity="1" stop-color="white" offset="0%"/>
                <stop stop-opacity="1" stop-color="white" offset="100%"/>
            </linearGradient>
            <linearGradient x1="50" x2="50" y1="40" gradientUnits="userSpaceOnUse" y2="1550" xlink:type="simple" xlink:actuate="onLoad" id="linearGradient2" xlink:show="other" spreadMethod="pad">
                <stop stop-opacity="1" stop-color="white" offset="0%"/>
                <stop stop-opacity="1" stop-color="rgb(195,209,213)" offset="100%"/>
            </linearGradient>
            <linearGradient x1="230" x2="230" y1="40" gradientUnits="userSpaceOnUse" y2="1550" xlink:type="simple" xlink:actuate="onLoad" id="linearGradient3" xlink:show="other" spreadMethod="pad">
                <stop stop-opacity="1" stop-color="white" offset="0%"/>
                <stop stop-opacity="1" stop-color="rgb(195,209,213)" offset="100%"/>
            </linearGradient>
            <linearGradient x1="410" x2="410" y1="40" gradientUnits="userSpaceOnUse" y2="1550" xlink:type="simple" xlink:actuate="onLoad" id="linearGradient4" xlink:show="other" spreadMethod="pad">
                <stop stop-opacity="1" stop-color="white" offset="0%"/>
                <stop stop-opacity="1" stop-color="rgb(195,209,213)" offset="100%"/>
            </linearGradient>
            <linearGradient x1="590" x2="590" y1="40" gradientUnits="userSpaceOnUse" y2="1550" xlink:type="simple" xlink:actuate="onLoad" id="linearGradient5" xlink:show="other" spreadMethod="pad">
                <stop stop-opacity="1" stop-color="white" offset="0%"/>
                <stop stop-opacity="1" stop-color="rgb(195,209,213)" offset="100%"/>
            </linearGradient>
            <linearGradient x1="770" x2="770" y1="40" gradientUnits="userSpaceOnUse" y2="1550" xlink:type="simple" xlink:actuate="onLoad" id="linearGradient6" xlink:show="other" spreadMethod="pad">
                <stop stop-opacity="1" stop-color="white" offset="0%"/>
                <stop stop-opacity="1" stop-color="rgb(195,209,213)" offset="100%"/>
            </linearGradient>
            <clipPath clipPathUnits="userSpaceOnUse" id="clipPath1">
                <path d="M10 10 L10 1568 L874 1568 L874 10 Z"/>
            </clipPath>
            <clipPath clipPathUnits="userSpaceOnUse" id="clipPath2">
                <path d="M7 7 L878 7 L878 1572 L7 1572 L7 7 Z"/>
            </clipPath>
            <clipPath clipPathUnits="userSpaceOnUse" id="clipPath3">
                <path d="M15 12 L74 12 L74 25 L15 25 L15 12 Z"/>
            </clipPath>
            <clipPath clipPathUnits="userSpaceOnUse" id="clipPath4">
                <path d="M49 39 L151 39 L151 1551 L49 1551 L49 39 Z"/>
            </clipPath>
            <clipPath clipPathUnits="userSpaceOnUse" id="clipPath5">
                <path d="M50 40 L50 1549 L149 1549 L149 40 Z"/>
            </clipPath>
            <clipPath clipPathUnits="userSpaceOnUse" id="clipPath6">
                <path d="M58 42 L144 42 L144 55 L58 55 L58 42 Z"/>
            </clipPath>
            <clipPath clipPathUnits="userSpaceOnUse" id="clipPath7">
                <path d="M229 39 L331 39 L331 1551 L229 1551 L229 39 Z"/>
            </clipPath>
            <clipPath clipPathUnits="userSpaceOnUse" id="clipPath8">
                <path d="M230 40 L230 1549 L329 1549 L329 40 Z"/>
            </clipPath>
            <clipPath clipPathUnits="userSpaceOnUse" id="clipPath9">
                <path d="M237 42 L325 42 L325 55 L237 55 L237 42 Z"/>
            </clipPath>
            <clipPath clipPathUnits="userSpaceOnUse" id="clipPath10">
                <path d="M409 39 L511 39 L511 1551 L409 1551 L409 39 Z"/>
            </clipPath>
            <clipPath clipPathUnits="userSpaceOnUse" id="clipPath11">
                <path d="M410 40 L410 1549 L509 1549 L509 40 Z"/>
            </clipPath>
            <clipPath clipPathUnits="userSpaceOnUse" id="clipPath12">
                <path d="M418 42 L503 42 L503 55 L418 55 L418 42 Z"/>
            </clipPath>
            <clipPath clipPathUnits="userSpaceOnUse" id="clipPath13">
                <path d="M589 39 L691 39 L691 1551 L589 1551 L589 39 Z"/>
            </clipPath>
            <clipPath clipPathUnits="userSpaceOnUse" id="clipPath14">
                <path d="M590 40 L590 1549 L689 1549 L689 40 Z"/>
            </clipPath>
            <clipPath clipPathUnits="userSpaceOnUse" id="clipPath15">
                <path d="M596 42 L685 42 L685 55 L596 55 L596 42 Z"/>
            </clipPath>
            <clipPath clipPathUnits="userSpaceOnUse" id="clipPath16">
                <path d="M769 39 L871 39 L871 1551 L769 1551 L769 39 Z"/>
            </clipPath>
            <clipPath clipPathUnits="userSpaceOnUse" id="clipPath17">
                <path d="M770 40 L770 1549 L869 1549 L869 40 Z"/>
            </clipPath>
            <clipPath clipPathUnits="userSpaceOnUse" id="clipPath18">
                <path d="M772 42 L870 42 L870 55 L772 55 L772 42 Z"/>
            </clipPath>
            <clipPath clipPathUnits="userSpaceOnUse" id="clipPath19">
                <path d="M9 9 L876 9 L876 1570 L9 1570 L9 9 Z"/>
            </clipPath>
            <clipPath clipPathUnits="userSpaceOnUse" id="clipPath20">
                <path d="M-1 -1 L886 -1 L886 1580 L-1 1580 L-1 -1 Z"/>
            </clipPath>
            <clipPath clipPathUnits="userSpaceOnUse" id="clipPath21">
                <path d="M228 297 L331 297 L331 310 L228 310 L228 297 Z"/>
            </clipPath>
            <clipPath clipPathUnits="userSpaceOnUse" id="clipPath22">
                <path d="M99 283 L118 283 L118 298 L99 298 L99 283 Z"/>
            </clipPath>
            <clipPath clipPathUnits="userSpaceOnUse" id="clipPath23">
                <path d="M443 437 L475 437 L475 450 L443 450 L443 437 Z"/>
            </clipPath>
            <clipPath clipPathUnits="userSpaceOnUse" id="clipPath24">
                <path d="M99 423 L118 423 L118 438 L99 438 L99 423 Z"/>
            </clipPath>
            <clipPath clipPathUnits="userSpaceOnUse" id="clipPath25">
                <path d="M437 371 L485 371 L485 384 L437 384 L437 371 Z"/>
            </clipPath>
            <clipPath clipPathUnits="userSpaceOnUse" id="clipPath26">
                <path d="M803 383 L822 383 L822 398 L803 398 L803 383 Z"/>
            </clipPath>
            <clipPath clipPathUnits="userSpaceOnUse" id="clipPath27">
                <path d="M229 89 L329 89 L329 102 L229 102 L229 89 Z"/>
            </clipPath>
            <clipPath clipPathUnits="userSpaceOnUse" id="clipPath28">
                <path d="M443 103 L462 103 L462 118 L443 118 L443 103 Z"/>
            </clipPath>
            <clipPath clipPathUnits="userSpaceOnUse" id="clipPath29">
                <path d="M485 151 L618 151 L618 164 L485 164 L485 151 Z"/>
            </clipPath>
            <clipPath clipPathUnits="userSpaceOnUse" id="clipPath30">
                <path d="M623 163 L642 163 L642 178 L623 178 L623 163 Z"/>
            </clipPath>
            <clipPath clipPathUnits="userSpaceOnUse" id="clipPath31">
                <path d="M530 217 L568 217 L568 230 L530 230 L530 217 Z"/>
            </clipPath>
            <clipPath clipPathUnits="userSpaceOnUse" id="clipPath32">
                <path d="M459 203 L478 203 L478 218 L459 218 L459 203 Z"/>
            </clipPath>
        </defs>
        <g font-size="11px" fill="url(#linearGradient1)" font-family="'.AppleSystemUIFont'" stroke-linejoin="round" stroke="url(#linearGradient1)" stroke-width="0" stroke-miterlimit="0">
            <rect x="10" width="865" height="1559" y="10" clip-path="url(#clipPath1)" stroke="none"/>
        </g>
        <g font-size="11px" stroke-width="0.1" font-family="'.AppleSystemUIFont'" stroke-linecap="butt">
            <line y2="20" fill="none" x1="87" clip-path="url(#clipPath2)" x2="87" y1="10"/>
            <line y2="20" fill="none" x1="87" clip-path="url(#clipPath2)" x2="87" y1="20"/>
            <line y2="24" fill="none" x1="87" clip-path="url(#clipPath2)" x2="83" y1="20"/>
            <line y2="24" fill="none" x1="83" clip-path="url(#clipPath2)" x2="83" y1="24"/>
            <line y2="24" fill="none" x1="83" clip-path="url(#clipPath2)" x2="10" y1="24"/>
            <text x="16" xml:space="preserve" font-size="9px" y="22" clip-path="url(#clipPath3)" stroke="none">Interaction1  </text>
            <rect x="50" y="40" clip-path="url(#clipPath4)" fill="none" width="99" height="14" stroke-width="1.1"/>
            <line clip-path="url(#clipPath4)" fill="none" x1="100" x2="100" y1="54" y2="1549" stroke-dasharray="5,5" stroke-width="1.1"/>
        </g>
        <g stroke-linecap="butt" font-size="11px" fill="url(#linearGradient2)" font-family="'.AppleSystemUIFont'" stroke-dasharray="5,5" stroke="url(#linearGradient2)" stroke-width="1.1">
            <rect x="50" y="40" clip-path="url(#clipPath5)" width="100" height="1510" opacity="0" stroke="none"/>
            <text x="59" font-size="9px" y="52" clip-path="url(#clipPath6)" fill="black" stroke="none" xml:space="preserve">train : AITrainerSys</text>
            <rect x="230" y="40" clip-path="url(#clipPath7)" fill="none" width="99" stroke-dasharray="none" height="14" stroke="black"/>
            <line clip-path="url(#clipPath7)" fill="none" x1="280" x2="280" y1="54" y2="1549" stroke="black"/>
            <rect x="230" y="40" clip-path="url(#clipPath8)" fill="url(#linearGradient3)" width="100" opacity="0" height="1510" stroke="none"/>
            <text x="238" font-size="9px" y="52" clip-path="url(#clipPath9)" fill="black" stroke="none" xml:space="preserve">sr : ServiceRegistry</text>
            <rect x="410" y="40" clip-path="url(#clipPath10)" fill="none" width="99" stroke-dasharray="none" height="14" stroke="black"/>
            <line clip-path="url(#clipPath10)" fill="none" x1="460" x2="460" y1="54" y2="1549" stroke="black"/>
            <rect x="410" y="40" clip-path="url(#clipPath11)" fill="url(#linearGradient4)" width="100" opacity="0" height="1510" stroke="none"/>
            <text x="419" font-size="9px" y="52" clip-path="url(#clipPath12)" fill="black" stroke="none" xml:space="preserve">orc : Orchestration</text>
            <rect x="590" y="40" clip-path="url(#clipPath13)" fill="none" width="99" stroke-dasharray="none" height="14" stroke="black"/>
            <line clip-path="url(#clipPath13)" fill="none" x1="640" x2="640" y1="54" y2="1549" stroke="black"/>
            <rect x="590" y="40" clip-path="url(#clipPath14)" fill="url(#linearGradient5)" width="100" opacity="0" height="1510" stroke="none"/>
            <text x="597" font-size="9px" y="52" clip-path="url(#clipPath15)" fill="black" stroke="none" xml:space="preserve">auth : Authorization</text>
            <rect x="770" y="40" clip-path="url(#clipPath16)" fill="none" width="99" stroke-dasharray="none" height="14" stroke="black"/>
            <line clip-path="url(#clipPath16)" fill="none" x1="820" x2="820" y1="54" y2="1549" stroke="black"/>
            <rect x="770" y="40" clip-path="url(#clipPath17)" fill="url(#linearGradient6)" width="100" opacity="0" height="1510" stroke="none"/>
            <text x="773" font-size="9px" y="52" clip-path="url(#clipPath18)" fill="black" stroke="none" xml:space="preserve">clim : ClimateSenso...</text>
            <rect x="10" y="10" clip-path="url(#clipPath19)" fill="none" width="864" stroke-dasharray="none" rx="0" ry="0" height="1558" stroke="black"/>
        </g>
        <g text-rendering="optimizeLegibility" stroke-width="1.1" font-size="9px" font-family="'.AppleSystemUIFont'" stroke-linecap="butt">
            <line y2="290" fill="none" x1="460" clip-path="url(#clipPath20)" x2="100" y1="290"/>
            <text x="229" xml:space="preserve" y="307" clip-path="url(#clipPath21)" stroke="none">providerEndpoint(clim)</text>
            <polygon points=" 100 290 116 284 116 296" clip-path="url(#clipPath22)" stroke="none"/>
            <polygon fill="none" points=" 100 290 116 284 116 296" clip-path="url(#clipPath22)"/>
            <line clip-path="url(#clipPath20)" fill="none" x1="820" x2="100" y1="430" y2="430" stroke-dasharray="6.6,3.3"/>
            <text x="444" xml:space="preserve" stroke-dasharray="6.6,3.3" y="447" clip-path="url(#clipPath23)" stroke="none">temp()</text>
            <line y2="430" fill="none" x1="116" clip-path="url(#clipPath24)" x2="100" y1="424"/>
            <line y2="436" fill="none" x1="100" clip-path="url(#clipPath24)" x2="116" y1="430"/>
            <line y2="390" fill="none" x1="100" clip-path="url(#clipPath20)" x2="820" y1="390"/>
            <text x="438" xml:space="preserve" y="381" clip-path="url(#clipPath25)" stroke="none">getTemp()</text>
            <polygon points=" 820 390 804 396 804 384" clip-path="url(#clipPath26)" stroke="none"/>
            <polygon fill="none" points=" 820 390 804 396 804 384" clip-path="url(#clipPath26)"/>
            <line y2="110" fill="none" x1="100" clip-path="url(#clipPath20)" x2="460" y1="110"/>
            <text x="230" xml:space="preserve" y="99" clip-path="url(#clipPath27)" stroke="none">request(TempService)</text>
            <polygon points=" 460 110 444 116 444 104" clip-path="url(#clipPath28)" stroke="none"/>
            <polygon fill="none" points=" 460 110 444 116 444 104" clip-path="url(#clipPath28)"/>
            <line y2="170" fill="none" x1="460" clip-path="url(#clipPath20)" x2="640" y1="170"/>
            <text x="486" xml:space="preserve" y="161" clip-path="url(#clipPath29)" stroke="none">authorize(train, TempService)</text>
            <polygon points=" 640 170 624 176 624 164" clip-path="url(#clipPath30)" stroke="none"/>
            <polygon fill="none" points=" 640 170 624 176 624 164" clip-path="url(#clipPath30)"/>
            <line clip-path="url(#clipPath20)" fill="none" x1="640" x2="460" y1="210" y2="210" stroke-dasharray="6.6,3.3"/>
            <text x="531" xml:space="preserve" stroke-dasharray="6.6,3.3" y="227" clip-path="url(#clipPath31)" stroke="none">permit()</text>
            <line y2="210" fill="none" x1="476" clip-path="url(#clipPath32)" x2="460" y1="204"/>
            <line y2="216" fill="none" x1="460" clip-path="url(#clipPath32)" x2="476" y1="210"/>
            <line y2="110" fill="none" x1="100" clip-path="url(#clipPath20)" x2="460" y1="110"/>
            <text x="230" xml:space="preserve" y="99" clip-path="url(#clipPath27)" stroke="none">request(TempService)</text>
            <polygon points=" 460 110 444 116 444 104" clip-path="url(#clipPath28)" stroke="none"/>
            <polygon fill="none" points=" 460 110 444 116 444 104" clip-path="url(#clipPath28)"/>
            <line y2="170" fill="none" x1="460" clip-path="url(#clipPath20)" x2="640" y1="170"/>
            <text x="486" xml:space="preserve" y="161" clip-path="url(#clipPath29)" stroke="none">authorize(train, TempService)</text>
            <polygon points=" 640 170 624 176 624 164" clip-path="url(#clipPath30)" stroke="none"/>
            <polygon fill="none" points=" 640 170 624 176 624 164" clip-path="url(#clipPath30)"/>
            <line clip-path="url(#clipPath20)" fill="none" x1="640" x2="460" y1="210" y2="210" stroke-dasharray="6.6,3.3"/>
            <text x="531" xml:space="preserve" stroke-dasharray="6.6,3.3" y="227" clip-path="url(#clipPath31)" stroke="none">permit()</text>
            <line y2="210" fill="none" x1="476" clip-path="url(#clipPath32)" x2="460" y1="204"/>
            <line y2="216" fill="none" x1="460" clip-path="url(#clipPath32)" x2="476" y1="210"/>
            <line y2="290" fill="none" x1="460" clip-path="url(#clipPath20)" x2="100" y1="290"/>
            <text x="229" xml:space="preserve" y="307" clip-path="url(#clipPath21)" stroke="none">providerEndpoint(clim)</text>
            <polygon points=" 100 290 116 284 116 296" clip-path="url(#clipPath22)" stroke="none"/>
            <polygon fill="none" points=" 100 290 116 284 116 296" clip-path="url(#clipPath22)"/>
            <line y2="390" fill="none" x1="100" clip-path="url(#clipPath20)" x2="820" y1="390"/>
            <text x="438" xml:space="preserve" y="381" clip-path="url(#clipPath25)" stroke="none">getTemp()</text>
            <polygon points=" 820 390 804 396 804 384" clip-path="url(#clipPath26)" stroke="none"/>
            <polygon fill="none" points=" 820 390 804 396 804 384" clip-path="url(#clipPath26)"/>
            <line clip-path="url(#clipPath20)" fill="none" x1="820" x2="100" y1="430" y2="430" stroke-dasharray="6.6,3.3"/>
            <text x="444" xml:space="preserve" stroke-dasharray="6.6,3.3" y="447" clip-path="url(#clipPath23)" stroke="none">temp()</text>
            <line y2="430" fill="none" x1="116" clip-path="url(#clipPath24)" x2="100" y1="424"/>
            <line y2="436" fill="none" x1="100" clip-path="url(#clipPath24)" x2="116" y1="430"/>
        </g>
    </g>
    <rect x="10" y="10" fill-opacity="0" width="865" id="Interaction1" height="1559" stroke-opacity="0"/>
    <rect x="50" y="40" fill-opacity="0" width="100" id="train" height="1510" stroke-opacity="0"/>
    <rect x="230" y="40" fill-opacity="0" width="100" id="sr" height="1510" stroke-opacity="0"/>
    <rect x="410" y="40" fill-opacity="0" width="100" id="orc" height="1510" stroke-opacity="0"/>
    <rect x="590" y="40" fill-opacity="0" width="100" id="auth" height="1510" stroke-opacity="0"/>
    <rect x="770" y="40" fill-opacity="0" width="100" id="clim" height="1510" stroke-opacity="0"/>
</svg>
