<?xml version="1.0" encoding="UTF-8"?><svg xmlns="http://www.w3.org/2000/svg" xmlns:xlink="http://www.w3.org/1999/xlink" stroke-dasharray="none" shape-rendering="auto" font-family="'Dialog'" width="1362" text-rendering="auto" fill-opacity="1" contentScriptType="text/ecmascript" color-interpolation="auto" color-rendering="auto" preserveAspectRatio="xMidYMid meet" font-size="12px" viewBox="0 0 1362 681" fill="black" stroke="black" image-rendering="auto" stroke-miterlimit="10" zoomAndPan="magnify" version="1.0" stroke-linecap="square" stroke-linejoin="miter" contentStyleType="text/css" font-style="normal" height="681" stroke-width="1" stroke-dashoffset="0" font-weight="normal" stroke-opacity="1">
    <!--Generated by the Batik Graphics2D SVG Generator-->
    <defs id="genericDefs"/>
    <g>
        <defs id="defs1">
            <linearGradient x1="151" x2="151" y1="10" gradientUnits="userSpaceOnUse" y2="291" xlink:type="simple" xlink:actuate="onLoad" id="linearGradient1" xlink:show="other" spreadMethod="pad">
                <stop stop-opacity="1" stop-color="rgb(255,128,0)" offset="0%"/>
                <stop stop-opacity="1" stop-color="rgb(255,128,0)" offset="100%"/>
            </linearGradient>
            <linearGradient x1="382" x2="382" y1="63" gradientUnits="userSpaceOnUse" y2="83" xlink:type="simple" xlink:actuate="onLoad" id="linearGradient2" xlink:show="other" spreadMethod="pad">
                <stop stop-opacity="1" stop-color="rgb(155,199,204)" offset="0%"/>
                <stop stop-opacity="1" stop-color="rgb(155,199,204)" offset="100%"/>
            </linearGradient>
            <linearGradient x1="141" x2="141" y1="60" gradientUnits="userSpaceOnUse" y2="80" xlink:type="simple" xlink:actuate="onLoad" id="linearGradient3" xlink:show="other" spreadMethod="pad">
                <stop stop-opacity="1" stop-color="rgb(155,199,204)" offset="0%"/>
                <stop stop-opacity="1" stop-color="rgb(155,199,204)" offset="100%"/>
            </linearGradient>
            <linearGradient x1="141" x2="141" y1="100" gradientUnits="userSpaceOnUse" y2="120" xlink:type="simple" xlink:actuate="onLoad" id="linearGradient4" xlink:show="other" spreadMethod="pad">
                <stop stop-opacity="1" stop-color="rgb(155,199,204)" offset="0%"/>
                <stop stop-opacity="1" stop-color="rgb(155,199,204)" offset="100%"/>
            </linearGradient>
            <linearGradient x1="141" x2="141" y1="135" gradientUnits="userSpaceOnUse" y2="155" xlink:type="simple" xlink:actuate="onLoad" id="linearGradient5" xlink:show="other" spreadMethod="pad">
                <stop stop-opacity="1" stop-color="rgb(155,199,204)" offset="0%"/>
                <stop stop-opacity="1" stop-color="rgb(155,199,204)" offset="100%"/>
            </linearGradient>
            <linearGradient x1="382" x2="382" y1="111" gradientUnits="userSpaceOnUse" y2="131" xlink:type="simple" xlink:actuate="onLoad" id="linearGradient6" xlink:show="other" spreadMethod="pad">
                <stop stop-opacity="1" stop-color="rgb(155,199,204)" offset="0%"/>
                <stop stop-opacity="1" stop-color="rgb(155,199,204)" offset="100%"/>
            </linearGradient>
            <linearGradient x1="731" x2="731" y1="10" gradientUnits="userSpaceOnUse" y2="291" xlink:type="simple" xlink:actuate="onLoad" id="linearGradient7" xlink:show="other" spreadMethod="pad">
                <stop stop-opacity="1" stop-color="rgb(155,199,204)" offset="0%"/>
                <stop stop-opacity="1" stop-color="rgb(155,199,204)" offset="100%"/>
            </linearGradient>
            <linearGradient x1="731" x2="731" y1="370" gradientUnits="userSpaceOnUse" y2="671" xlink:type="simple" xlink:actuate="onLoad" id="linearGradient8" xlink:show="other" spreadMethod="pad">
                <stop stop-opacity="1" stop-color="rgb(155,199,204)" offset="0%"/>
                <stop stop-opacity="1" stop-color="rgb(155,199,204)" offset="100%"/>
            </linearGradient>
            <linearGradient x1="1111" x2="1111" y1="10" gradientUnits="userSpaceOnUse" y2="308" xlink:type="simple" xlink:actuate="onLoad" id="linearGradient9" xlink:show="other" spreadMethod="pad">
                <stop stop-opacity="1" stop-color="rgb(237,201,122)" offset="0%"/>
                <stop stop-opacity="1" stop-color="rgb(237,201,122)" offset="100%"/>
            </linearGradient>
            <linearGradient x1="151" x2="151" y1="370" gradientUnits="userSpaceOnUse" y2="651" xlink:type="simple" xlink:actuate="onLoad" id="linearGradient10" xlink:show="other" spreadMethod="pad">
                <stop stop-opacity="1" stop-color="rgb(255,147,0)" offset="0%"/>
                <stop stop-opacity="1" stop-color="rgb(255,147,0)" offset="100%"/>
            </linearGradient>
            <linearGradient x1="382" x2="382" y1="419" gradientUnits="userSpaceOnUse" y2="439" xlink:type="simple" xlink:actuate="onLoad" id="linearGradient11" xlink:show="other" spreadMethod="pad">
                <stop stop-opacity="1" stop-color="rgb(155,199,204)" offset="0%"/>
                <stop stop-opacity="1" stop-color="rgb(155,199,204)" offset="100%"/>
            </linearGradient>
            <linearGradient x1="141" x2="141" y1="420" gradientUnits="userSpaceOnUse" y2="440" xlink:type="simple" xlink:actuate="onLoad" id="linearGradient12" xlink:show="other" spreadMethod="pad">
                <stop stop-opacity="1" stop-color="rgb(155,199,204)" offset="0%"/>
                <stop stop-opacity="1" stop-color="rgb(155,199,204)" offset="100%"/>
            </linearGradient>
            <linearGradient x1="141" x2="141" y1="460" gradientUnits="userSpaceOnUse" y2="480" xlink:type="simple" xlink:actuate="onLoad" id="linearGradient13" xlink:show="other" spreadMethod="pad">
                <stop stop-opacity="1" stop-color="rgb(155,199,204)" offset="0%"/>
                <stop stop-opacity="1" stop-color="rgb(155,199,204)" offset="100%"/>
            </linearGradient>
            <linearGradient x1="141" x2="141" y1="500" gradientUnits="userSpaceOnUse" y2="520" xlink:type="simple" xlink:actuate="onLoad" id="linearGradient14" xlink:show="other" spreadMethod="pad">
                <stop stop-opacity="1" stop-color="rgb(155,199,204)" offset="0%"/>
                <stop stop-opacity="1" stop-color="rgb(155,199,204)" offset="100%"/>
            </linearGradient>
            <linearGradient x1="382" x2="382" y1="469" gradientUnits="userSpaceOnUse" y2="489" xlink:type="simple" xlink:actuate="onLoad" id="linearGradient15" xlink:show="other" spreadMethod="pad">
                <stop stop-opacity="1" stop-color="rgb(155,199,204)" offset="0%"/>
                <stop stop-opacity="1" stop-color="rgb(155,199,204)" offset="100%"/>
            </linearGradient>
            <clipPath clipPathUnits="userSpaceOnUse" id="clipPath1">
                <path d="M151 10 L151 290 L391 290 L391 10 Z"/>
            </clipPath>
            <clipPath clipPathUnits="userSpaceOnUse" id="clipPath2">
                <path d="M254 12 L291 12 L291 25 L254 25 L254 12 Z"/>
            </clipPath>
            <clipPath clipPathUnits="userSpaceOnUse" id="clipPath3">
                <path d="M253 24 L291 24 L291 37 L253 37 L253 24 Z"/>
            </clipPath>
            <clipPath clipPathUnits="userSpaceOnUse" id="clipPath4">
                <path d="M255 38 L289 38 L289 50 L255 50 L255 38 Z"/>
            </clipPath>
            <clipPath clipPathUnits="userSpaceOnUse" id="clipPath5">
                <path d="M156 49 L316 49 L316 64 L156 64 L156 49 Z"/>
            </clipPath>
            <clipPath clipPathUnits="userSpaceOnUse" id="clipPath6">
                <path d="M156 62 L286 62 L286 77 L156 77 L156 62 Z"/>
            </clipPath>
            <clipPath clipPathUnits="userSpaceOnUse" id="clipPath7">
                <path d="M156 75 L294 75 L294 90 L156 90 L156 75 Z"/>
            </clipPath>
            <clipPath clipPathUnits="userSpaceOnUse" id="clipPath8">
                <path d="M156 88 L296 88 L296 103 L156 103 L156 88 Z"/>
            </clipPath>
            <clipPath clipPathUnits="userSpaceOnUse" id="clipPath9">
                <path d="M156 101 L273 101 L273 116 L156 116 L156 101 Z"/>
            </clipPath>
            <clipPath clipPathUnits="userSpaceOnUse" id="clipPath10">
                <path d="M151 36 L393 36 L393 127 L151 127 L151 36 Z"/>
            </clipPath>
            <clipPath clipPathUnits="userSpaceOnUse" id="clipPath11">
                <path d="M150 9 L393 9 L393 292 L150 292 L150 9 Z"/>
            </clipPath>
            <clipPath clipPathUnits="userSpaceOnUse" id="clipPath12">
                <path d="M252 138 L293 138 L293 150 L252 150 L252 138 Z"/>
            </clipPath>
            <clipPath clipPathUnits="userSpaceOnUse" id="clipPath13">
                <path d="M156 149 L276 149 L276 162 L156 162 L156 149 Z"/>
            </clipPath>
            <clipPath clipPathUnits="userSpaceOnUse" id="clipPath14">
                <path d="M156 160 L295 160 L295 173 L156 173 L156 160 Z"/>
            </clipPath>
            <clipPath clipPathUnits="userSpaceOnUse" id="clipPath15">
                <path d="M156 171 L277 171 L277 184 L156 184 L156 171 Z"/>
            </clipPath>
            <clipPath clipPathUnits="userSpaceOnUse" id="clipPath16">
                <path d="M156 182 L312 182 L312 195 L156 195 L156 182 Z"/>
            </clipPath>
            <clipPath clipPathUnits="userSpaceOnUse" id="clipPath17">
                <path d="M156 193 L261 193 L261 206 L156 206 L156 193 Z"/>
            </clipPath>
            <clipPath clipPathUnits="userSpaceOnUse" id="clipPath18">
                <path d="M156 204 L199 204 L199 217 L156 217 L156 204 Z"/>
            </clipPath>
            <clipPath clipPathUnits="userSpaceOnUse" id="clipPath19">
                <path d="M151 136 L393 136 L393 260 L151 260 L151 136 Z"/>
            </clipPath>
            <clipPath clipPathUnits="userSpaceOnUse" id="clipPath20">
                <path d="M250 261 L295 261 L295 273 L250 273 L250 261 Z"/>
            </clipPath>
            <clipPath clipPathUnits="userSpaceOnUse" id="clipPath21">
                <path d="M151 259 L393 259 L393 292 L151 292 L151 259 Z"/>
            </clipPath>
            <clipPath clipPathUnits="userSpaceOnUse" id="clipPath22">
                <path d="M382 63 L382 82 L401 82 L401 63 Z"/>
            </clipPath>
            <clipPath clipPathUnits="userSpaceOnUse" id="clipPath23">
                <path d="M381 62 L403 62 L403 84 L381 84 L381 62 Z"/>
            </clipPath>
            <clipPath clipPathUnits="userSpaceOnUse" id="clipPath24">
                <path d="M406 65 L468 65 L468 78 L406 78 L406 65 Z"/>
            </clipPath>
            <clipPath clipPathUnits="userSpaceOnUse" id="clipPath25">
                <path d="M141 60 L141 79 L160 79 L160 60 Z"/>
            </clipPath>
            <clipPath clipPathUnits="userSpaceOnUse" id="clipPath26">
                <path d="M140 59 L162 59 L162 81 L140 81 L140 59 Z"/>
            </clipPath>
            <clipPath clipPathUnits="userSpaceOnUse" id="clipPath27">
                <path d="M30 69 L111 69 L111 82 L30 82 L30 69 Z"/>
            </clipPath>
            <clipPath clipPathUnits="userSpaceOnUse" id="clipPath28">
                <path d="M141 100 L141 119 L160 119 L160 100 Z"/>
            </clipPath>
            <clipPath clipPathUnits="userSpaceOnUse" id="clipPath29">
                <path d="M140 99 L162 99 L162 121 L140 121 L140 99 Z"/>
            </clipPath>
            <clipPath clipPathUnits="userSpaceOnUse" id="clipPath30">
                <path d="M48 109 L112 109 L112 122 L48 122 L48 109 Z"/>
            </clipPath>
            <clipPath clipPathUnits="userSpaceOnUse" id="clipPath31">
                <path d="M141 135 L141 154 L160 154 L160 135 Z"/>
            </clipPath>
            <clipPath clipPathUnits="userSpaceOnUse" id="clipPath32">
                <path d="M140 134 L162 134 L162 156 L140 156 L140 134 Z"/>
            </clipPath>
            <clipPath clipPathUnits="userSpaceOnUse" id="clipPath33">
                <path d="M28 144 L126 144 L126 157 L28 157 L28 144 Z"/>
            </clipPath>
            <clipPath clipPathUnits="userSpaceOnUse" id="clipPath34">
                <path d="M382 111 L382 130 L401 130 L401 111 Z"/>
            </clipPath>
            <clipPath clipPathUnits="userSpaceOnUse" id="clipPath35">
                <path d="M381 110 L403 110 L403 132 L381 132 L381 110 Z"/>
            </clipPath>
            <clipPath clipPathUnits="userSpaceOnUse" id="clipPath36">
                <path d="M406 113 L445 113 L445 126 L406 126 L406 113 Z"/>
            </clipPath>
            <clipPath clipPathUnits="userSpaceOnUse" id="clipPath37">
                <path d="M731 10 L731 290 L951 290 L951 10 Z"/>
            </clipPath>
            <clipPath clipPathUnits="userSpaceOnUse" id="clipPath38">
                <path d="M829 12 L856 12 L856 25 L829 25 L829 12 Z"/>
            </clipPath>
            <clipPath clipPathUnits="userSpaceOnUse" id="clipPath39">
                <path d="M812 24 L872 24 L872 37 L812 37 L812 24 Z"/>
            </clipPath>
            <clipPath clipPathUnits="userSpaceOnUse" id="clipPath40">
                <path d="M830 38 L855 38 L855 50 L830 50 L830 38 Z"/>
            </clipPath>
            <clipPath clipPathUnits="userSpaceOnUse" id="clipPath41">
                <path d="M736 49 L914 49 L914 64 L736 64 L736 49 Z"/>
            </clipPath>
            <clipPath clipPathUnits="userSpaceOnUse" id="clipPath42">
                <path d="M736 62 L853 62 L853 77 L736 77 L736 62 Z"/>
            </clipPath>
            <clipPath clipPathUnits="userSpaceOnUse" id="clipPath43">
                <path d="M731 36 L953 36 L953 101 L731 101 L731 36 Z"/>
            </clipPath>
            <clipPath clipPathUnits="userSpaceOnUse" id="clipPath44">
                <path d="M730 9 L953 9 L953 292 L730 292 L730 9 Z"/>
            </clipPath>
            <clipPath clipPathUnits="userSpaceOnUse" id="clipPath45">
                <path d="M820 112 L865 112 L865 124 L820 124 L820 112 Z"/>
            </clipPath>
            <clipPath clipPathUnits="userSpaceOnUse" id="clipPath46">
                <path d="M736 123 L794 123 L794 136 L736 136 L736 123 Z"/>
            </clipPath>
            <clipPath clipPathUnits="userSpaceOnUse" id="clipPath47">
                <path d="M731 110 L953 110 L953 292 L731 292 L731 110 Z"/>
            </clipPath>
            <clipPath clipPathUnits="userSpaceOnUse" id="clipPath48">
                <path d="M731 370 L731 670 L951 670 L951 370 Z"/>
            </clipPath>
            <clipPath clipPathUnits="userSpaceOnUse" id="clipPath49">
                <path d="M827 372 L858 372 L858 385 L827 385 L827 372 Z"/>
            </clipPath>
            <clipPath clipPathUnits="userSpaceOnUse" id="clipPath50">
                <path d="M786 384 L898 384 L898 397 L786 397 L786 384 Z"/>
            </clipPath>
            <clipPath clipPathUnits="userSpaceOnUse" id="clipPath51">
                <path d="M828 398 L856 398 L856 410 L828 410 L828 398 Z"/>
            </clipPath>
            <clipPath clipPathUnits="userSpaceOnUse" id="clipPath52">
                <path d="M736 409 L778 409 L778 424 L736 424 L736 409 Z"/>
            </clipPath>
            <clipPath clipPathUnits="userSpaceOnUse" id="clipPath53">
                <path d="M736 422 L849 422 L849 437 L736 437 L736 422 Z"/>
            </clipPath>
            <clipPath clipPathUnits="userSpaceOnUse" id="clipPath54">
                <path d="M736 435 L827 435 L827 450 L736 450 L736 435 Z"/>
            </clipPath>
            <clipPath clipPathUnits="userSpaceOnUse" id="clipPath55">
                <path d="M736 448 L861 448 L861 463 L736 463 L736 448 Z"/>
            </clipPath>
            <clipPath clipPathUnits="userSpaceOnUse" id="clipPath56">
                <path d="M736 461 L849 461 L849 476 L736 476 L736 461 Z"/>
            </clipPath>
            <clipPath clipPathUnits="userSpaceOnUse" id="clipPath57">
                <path d="M736 474 L931 474 L931 489 L736 489 L736 474 Z"/>
            </clipPath>
            <clipPath clipPathUnits="userSpaceOnUse" id="clipPath58">
                <path d="M736 487 L867 487 L867 502 L736 502 L736 487 Z"/>
            </clipPath>
            <clipPath clipPathUnits="userSpaceOnUse" id="clipPath59">
                <path d="M736 500 L862 500 L862 515 L736 515 L736 500 Z"/>
            </clipPath>
            <clipPath clipPathUnits="userSpaceOnUse" id="clipPath60">
                <path d="M736 513 L841 513 L841 528 L736 528 L736 513 Z"/>
            </clipPath>
            <clipPath clipPathUnits="userSpaceOnUse" id="clipPath61">
                <path d="M736 526 L914 526 L914 541 L736 541 L736 526 Z"/>
            </clipPath>
            <clipPath clipPathUnits="userSpaceOnUse" id="clipPath62">
                <path d="M736 539 L853 539 L853 554 L736 554 L736 539 Z"/>
            </clipPath>
            <clipPath clipPathUnits="userSpaceOnUse" id="clipPath63">
                <path d="M731 396 L953 396 L953 578 L731 578 L731 396 Z"/>
            </clipPath>
            <clipPath clipPathUnits="userSpaceOnUse" id="clipPath64">
                <path d="M730 369 L953 369 L953 672 L730 672 L730 369 Z"/>
            </clipPath>
            <clipPath clipPathUnits="userSpaceOnUse" id="clipPath65">
                <path d="M820 589 L865 589 L865 601 L820 601 L820 589 Z"/>
            </clipPath>
            <clipPath clipPathUnits="userSpaceOnUse" id="clipPath66">
                <path d="M736 600 L794 600 L794 613 L736 613 L736 600 Z"/>
            </clipPath>
            <clipPath clipPathUnits="userSpaceOnUse" id="clipPath67">
                <path d="M731 587 L953 587 L953 672 L731 672 L731 587 Z"/>
            </clipPath>
            <clipPath clipPathUnits="userSpaceOnUse" id="clipPath68">
                <path d="M1111 10 L1111 307 L1351 307 L1351 10 Z"/>
            </clipPath>
            <clipPath clipPathUnits="userSpaceOnUse" id="clipPath69">
                <path d="M1213 12 L1252 12 L1252 25 L1213 25 L1213 12 Z"/>
            </clipPath>
            <clipPath clipPathUnits="userSpaceOnUse" id="clipPath70">
                <path d="M1208 24 L1256 24 L1256 37 L1208 37 L1208 24 Z"/>
            </clipPath>
            <clipPath clipPathUnits="userSpaceOnUse" id="clipPath71">
                <path d="M1215 38 L1250 38 L1250 50 L1215 50 L1215 38 Z"/>
            </clipPath>
            <clipPath clipPathUnits="userSpaceOnUse" id="clipPath72">
                <path d="M1116 49 L1233 49 L1233 64 L1116 64 L1116 49 Z"/>
            </clipPath>
            <clipPath clipPathUnits="userSpaceOnUse" id="clipPath73">
                <path d="M1111 36 L1353 36 L1353 75 L1111 75 L1111 36 Z"/>
            </clipPath>
            <clipPath clipPathUnits="userSpaceOnUse" id="clipPath74">
                <path d="M1110 9 L1353 9 L1353 309 L1110 309 L1110 9 Z"/>
            </clipPath>
            <clipPath clipPathUnits="userSpaceOnUse" id="clipPath75">
                <path d="M1212 86 L1253 86 L1253 98 L1212 98 L1212 86 Z"/>
            </clipPath>
            <clipPath clipPathUnits="userSpaceOnUse" id="clipPath76">
                <path d="M1116 97 L1311 97 L1311 110 L1116 110 L1116 97 Z"/>
            </clipPath>
            <clipPath clipPathUnits="userSpaceOnUse" id="clipPath77">
                <path d="M1111 84 L1353 84 L1353 218 L1111 218 L1111 84 Z"/>
            </clipPath>
            <clipPath clipPathUnits="userSpaceOnUse" id="clipPath78">
                <path d="M1210 219 L1255 219 L1255 231 L1210 231 L1210 219 Z"/>
            </clipPath>
            <clipPath clipPathUnits="userSpaceOnUse" id="clipPath79">
                <path d="M1111 217 L1353 217 L1353 309 L1111 309 L1111 217 Z"/>
            </clipPath>
            <clipPath clipPathUnits="userSpaceOnUse" id="clipPath80">
                <path d="M151 370 L151 650 L391 650 L391 370 Z"/>
            </clipPath>
            <clipPath clipPathUnits="userSpaceOnUse" id="clipPath81">
                <path d="M250 372 L294 372 L294 385 L250 385 L250 372 Z"/>
            </clipPath>
            <clipPath clipPathUnits="userSpaceOnUse" id="clipPath82">
                <path d="M208 384 L336 384 L336 397 L208 397 L208 384 Z"/>
            </clipPath>
            <clipPath clipPathUnits="userSpaceOnUse" id="clipPath83">
                <path d="M252 398 L292 398 L292 410 L252 410 L252 398 Z"/>
            </clipPath>
            <clipPath clipPathUnits="userSpaceOnUse" id="clipPath84">
                <path d="M156 409 L284 409 L284 424 L156 424 L156 409 Z"/>
            </clipPath>
            <clipPath clipPathUnits="userSpaceOnUse" id="clipPath85">
                <path d="M156 422 L377 422 L377 437 L156 437 L156 422 Z"/>
            </clipPath>
            <clipPath clipPathUnits="userSpaceOnUse" id="clipPath86">
                <path d="M156 435 L316 435 L316 450 L156 450 L156 435 Z"/>
            </clipPath>
            <clipPath clipPathUnits="userSpaceOnUse" id="clipPath87">
                <path d="M156 448 L286 448 L286 463 L156 463 L156 448 Z"/>
            </clipPath>
            <clipPath clipPathUnits="userSpaceOnUse" id="clipPath88">
                <path d="M156 461 L294 461 L294 476 L156 476 L156 461 Z"/>
            </clipPath>
            <clipPath clipPathUnits="userSpaceOnUse" id="clipPath89">
                <path d="M156 474 L296 474 L296 489 L156 489 L156 474 Z"/>
            </clipPath>
            <clipPath clipPathUnits="userSpaceOnUse" id="clipPath90">
                <path d="M156 487 L273 487 L273 502 L156 502 L156 487 Z"/>
            </clipPath>
            <clipPath clipPathUnits="userSpaceOnUse" id="clipPath91">
                <path d="M151 396 L393 396 L393 526 L151 526 L151 396 Z"/>
            </clipPath>
            <clipPath clipPathUnits="userSpaceOnUse" id="clipPath92">
                <path d="M150 369 L393 369 L393 652 L150 652 L150 369 Z"/>
            </clipPath>
            <clipPath clipPathUnits="userSpaceOnUse" id="clipPath93">
                <path d="M252 537 L293 537 L293 549 L252 549 L252 537 Z"/>
            </clipPath>
            <clipPath clipPathUnits="userSpaceOnUse" id="clipPath94">
                <path d="M156 548 L199 548 L199 561 L156 561 L156 548 Z"/>
            </clipPath>
            <clipPath clipPathUnits="userSpaceOnUse" id="clipPath95">
                <path d="M151 535 L393 535 L393 605 L151 605 L151 535 Z"/>
            </clipPath>
            <clipPath clipPathUnits="userSpaceOnUse" id="clipPath96">
                <path d="M250 606 L295 606 L295 618 L250 618 L250 606 Z"/>
            </clipPath>
            <clipPath clipPathUnits="userSpaceOnUse" id="clipPath97">
                <path d="M151 604 L393 604 L393 652 L151 652 L151 604 Z"/>
            </clipPath>
            <clipPath clipPathUnits="userSpaceOnUse" id="clipPath98">
                <path d="M382 419 L382 438 L401 438 L401 419 Z"/>
            </clipPath>
            <clipPath clipPathUnits="userSpaceOnUse" id="clipPath99">
                <path d="M381 418 L403 418 L403 440 L381 440 L381 418 Z"/>
            </clipPath>
            <clipPath clipPathUnits="userSpaceOnUse" id="clipPath100">
                <path d="M406 421 L521 421 L521 434 L406 434 L406 421 Z"/>
            </clipPath>
            <clipPath clipPathUnits="userSpaceOnUse" id="clipPath101">
                <path d="M141 420 L141 439 L160 439 L160 420 Z"/>
            </clipPath>
            <clipPath clipPathUnits="userSpaceOnUse" id="clipPath102">
                <path d="M140 419 L162 419 L162 441 L140 441 L140 419 Z"/>
            </clipPath>
            <clipPath clipPathUnits="userSpaceOnUse" id="clipPath103">
                <path d="M9 429 L119 429 L119 442 L9 442 L9 429 Z"/>
            </clipPath>
            <clipPath clipPathUnits="userSpaceOnUse" id="clipPath104">
                <path d="M141 460 L141 479 L160 479 L160 460 Z"/>
            </clipPath>
            <clipPath clipPathUnits="userSpaceOnUse" id="clipPath105">
                <path d="M140 459 L162 459 L162 481 L140 481 L140 459 Z"/>
            </clipPath>
            <clipPath clipPathUnits="userSpaceOnUse" id="clipPath106">
                <path d="M9 469 L102 469 L102 482 L9 482 L9 469 Z"/>
            </clipPath>
            <clipPath clipPathUnits="userSpaceOnUse" id="clipPath107">
                <path d="M141 500 L141 519 L160 519 L160 500 Z"/>
            </clipPath>
            <clipPath clipPathUnits="userSpaceOnUse" id="clipPath108">
                <path d="M140 499 L162 499 L162 521 L140 521 L140 499 Z"/>
            </clipPath>
            <clipPath clipPathUnits="userSpaceOnUse" id="clipPath109">
                <path d="M9 509 L136 509 L136 522 L9 522 L9 509 Z"/>
            </clipPath>
            <clipPath clipPathUnits="userSpaceOnUse" id="clipPath110">
                <path d="M382 469 L382 488 L401 488 L401 469 Z"/>
            </clipPath>
            <clipPath clipPathUnits="userSpaceOnUse" id="clipPath111">
                <path d="M381 468 L403 468 L403 490 L381 490 L381 468 Z"/>
            </clipPath>
            <clipPath clipPathUnits="userSpaceOnUse" id="clipPath112">
                <path d="M406 471 L476 471 L476 484 L406 484 L406 471 Z"/>
            </clipPath>
            <clipPath clipPathUnits="userSpaceOnUse" id="clipPath113">
                <path d="M-1 -1 L1363 -1 L1363 682 L-1 682 L-1 -1 Z"/>
            </clipPath>
            <clipPath clipPathUnits="userSpaceOnUse" id="clipPath114">
                <path d="M822 290 L841 290 L841 303 L822 303 L822 290 Z"/>
            </clipPath>
            <clipPath clipPathUnits="userSpaceOnUse" id="clipPath115">
                <path d="M262 290 L281 290 L281 303 L262 303 L262 290 Z"/>
            </clipPath>
        </defs>
        <g font-size="11px" fill="url(#linearGradient1)" font-family="'.AppleSystemUIFont'" stroke-linejoin="round" stroke="url(#linearGradient1)" stroke-width="0" stroke-miterlimit="0">
            <rect x="151" width="241" height="281" y="10" clip-path="url(#clipPath1)" stroke="none"/>
        </g>
        <g stroke-miterlimit="0" stroke-width="0" font-size="9px" font-family="'.AppleSystemUIFont'" font-weight="bold" stroke-linejoin="round">
            <text x="255" xml:space="preserve" y="22" clip-path="url(#clipPath2)" stroke="none">«SysD»</text>
            <text x="254" xml:space="preserve" y="34" clip-path="url(#clipPath3)" stroke="none">DataSet</text>
            <text x="256" xml:space="preserve" font-size="8px" y="47" clip-path="url(#clipPath4)" stroke="none">«SysD»</text>
            <text x="157" font-size="11px" y="61" clip-path="url(#clipPath5)" stroke="none" font-weight="normal" xml:space="preserve">MicrosystemName=[DataSet] </text>
            <text x="157" font-size="11px" y="74" clip-path="url(#clipPath6)" stroke="none" font-weight="normal" xml:space="preserve">FunctionalProperties=[] </text>
            <text x="157" font-size="11px" y="87" clip-path="url(#clipPath7)" stroke="none" font-weight="normal" xml:space="preserve">SystemDatabase=MySQL </text>
            <text x="157" font-size="11px" y="100" clip-path="url(#clipPath8)" stroke="none" font-weight="normal" xml:space="preserve">MicrosystemBehaviour=[] </text>
            <text x="157" font-size="11px" y="113" clip-path="url(#clipPath9)" stroke="none" font-weight="normal" xml:space="preserve">isEncapsulated=false </text>
        </g>
        <g font-size="11px" stroke-width="2.1" font-family="'.AppleSystemUIFont'" stroke-linecap="butt">
            <line y2="38" fill="none" x1="151" clip-path="url(#clipPath10)" x2="392" y1="38"/>
            <line clip-path="url(#clipPath11)" fill="none" x1="151" x2="392" y1="37" y2="37" stroke-width="1.1"/>
            <text x="253" font-size="8px" y="147" clip-path="url(#clipPath12)" stroke="none" font-weight="bold" stroke-width="1.1" xml:space="preserve">attributes</text>
            <text x="157" font-size="9px" y="159" clip-path="url(#clipPath13)" stroke="none" font-weight="bold" stroke-width="1.1" xml:space="preserve">«FullPort»  + ReadDataSet</text>
            <text x="157" font-size="9px" y="170" clip-path="url(#clipPath14)" stroke="none" font-weight="bold" stroke-width="1.1" xml:space="preserve">«FullPort»  + ServiceDiscovery</text>
            <text x="157" font-size="9px" y="181" clip-path="url(#clipPath15)" stroke="none" font-weight="bold" stroke-width="1.1" xml:space="preserve">«FullPort»  + GetPublicKey</text>
            <text x="157" font-size="9px" y="192" clip-path="url(#clipPath16)" stroke="none" font-weight="bold" stroke-width="1.1" xml:space="preserve">«FullPort»  + ServiceOrchestration</text>
            <text x="157" font-size="9px" y="203" clip-path="url(#clipPath17)" stroke="none" font-weight="bold" stroke-width="1.1" xml:space="preserve">«ProxyPort»  + Monitor</text>
            <text x="157" font-size="9px" y="214" clip-path="url(#clipPath18)" stroke="none" font-weight="bold" stroke-width="1.1" xml:space="preserve">  DataSet</text>
            <line y2="138" fill="none" x1="151" clip-path="url(#clipPath19)" x2="392" y1="138"/>
            <text x="251" font-size="8px" y="270" clip-path="url(#clipPath20)" stroke="none" font-weight="bold" xml:space="preserve">operations</text>
            <line y2="261" fill="none" x1="151" clip-path="url(#clipPath21)" x2="392" y1="261"/>
            <rect x="152" y="11" clip-path="url(#clipPath11)" fill="none" width="239" rx="0" ry="0" height="279"/>
            <rect x="382" y="63" clip-path="url(#clipPath22)" fill="url(#linearGradient2)" width="20" height="20" stroke="none"/>
            <rect x="383" y="64" clip-path="url(#clipPath23)" fill="none" width="18" rx="0" ry="0" height="18"/>
            <text x="407" font-size="9px" y="75" clip-path="url(#clipPath24)" stroke="none" font-weight="bold" xml:space="preserve"> ReadDataSet</text>
            <rect x="141" y="60" clip-path="url(#clipPath25)" fill="url(#linearGradient3)" width="20" height="20" stroke="none"/>
            <rect x="142" y="61" clip-path="url(#clipPath26)" fill="none" width="18" rx="0" ry="0" height="18"/>
            <text x="31" font-size="9px" y="79" clip-path="url(#clipPath27)" stroke="none" font-weight="bold" xml:space="preserve"> ServiceDiscovery</text>
            <rect x="141" y="100" clip-path="url(#clipPath28)" fill="url(#linearGradient4)" width="20" height="20" stroke="none"/>
            <rect x="142" y="101" clip-path="url(#clipPath29)" fill="none" width="18" rx="0" ry="0" height="18"/>
            <text x="49" font-size="9px" y="119" clip-path="url(#clipPath30)" stroke="none" font-weight="bold" xml:space="preserve"> GetPublicKey</text>
            <rect x="141" y="135" clip-path="url(#clipPath31)" fill="url(#linearGradient5)" width="20" height="20" stroke="none"/>
            <rect x="142" y="136" clip-path="url(#clipPath32)" fill="none" width="18" rx="0" ry="0" height="18"/>
            <text x="29" font-size="9px" y="154" clip-path="url(#clipPath33)" stroke="none" font-weight="bold" xml:space="preserve"> ServiceOrchestration</text>
            <rect x="382" y="111" clip-path="url(#clipPath34)" fill="url(#linearGradient6)" width="20" height="20" stroke="none"/>
            <rect x="383" y="112" clip-path="url(#clipPath35)" fill="none" width="18" rx="0" ry="0" height="18"/>
            <text x="407" font-size="9px" y="123" clip-path="url(#clipPath36)" stroke="none" font-weight="bold" xml:space="preserve"> Monitor</text>
            <rect x="731" y="10" clip-path="url(#clipPath37)" fill="url(#linearGradient7)" width="221" height="281" stroke="none"/>
            <text x="830" font-size="9px" y="22" clip-path="url(#clipPath38)" stroke="none" font-weight="bold" xml:space="preserve">«SD»</text>
            <text x="813" font-size="9px" y="34" clip-path="url(#clipPath39)" stroke="none" font-weight="bold" xml:space="preserve">ReadDataSet</text>
            <text x="831" font-size="8px" y="47" clip-path="url(#clipPath40)" stroke="none" font-weight="bold" xml:space="preserve">«SD»</text>
            <text x="737" xml:space="preserve" y="61" clip-path="url(#clipPath41)" stroke="none">MicroserviceName=ReadDataSet </text>
            <text x="737" xml:space="preserve" y="74" clip-path="url(#clipPath42)" stroke="none">isEncapsulated=false </text>
            <line y2="38" fill="none" x1="731" clip-path="url(#clipPath43)" x2="952" y1="38"/>
            <line clip-path="url(#clipPath44)" fill="none" x1="731" x2="952" y1="37" y2="37" stroke-width="1.1"/>
            <text x="821" font-size="8px" y="121" clip-path="url(#clipPath45)" stroke="none" font-weight="bold" stroke-width="1.1" xml:space="preserve">operations</text>
            <text x="737" font-size="9px" y="133" clip-path="url(#clipPath46)" stroke="none" font-weight="bold" stroke-width="1.1" xml:space="preserve">  ReadData()</text>
            <line y2="112" fill="none" x1="731" clip-path="url(#clipPath47)" x2="952" y1="112"/>
            <rect x="732" y="11" clip-path="url(#clipPath44)" fill="none" width="219" rx="0" ry="0" height="279"/>
            <rect x="731" y="370" clip-path="url(#clipPath48)" fill="url(#linearGradient8)" width="221" height="301" stroke="none"/>
            <text x="828" font-size="9px" y="382" clip-path="url(#clipPath49)" stroke="none" font-weight="bold" xml:space="preserve">«IDD»</text>
            <text x="787" font-size="9px" y="394" clip-path="url(#clipPath50)" stroke="none" font-weight="bold" xml:space="preserve">ReadDataSet-Websocket</text>
            <text x="829" font-size="8px" y="407" clip-path="url(#clipPath51)" stroke="none" font-weight="bold" xml:space="preserve">«IDD»</text>
            <text x="737" xml:space="preserve" y="421" clip-path="url(#clipPath52)" stroke="none">Port=0 </text>
            <text x="737" xml:space="preserve" y="434" clip-path="url(#clipPath53)" stroke="none">Protocol=websocket </text>
            <text x="737" xml:space="preserve" y="447" clip-path="url(#clipPath54)" stroke="none">Encoding=JSON </text>
            <text x="737" xml:space="preserve" y="460" clip-path="url(#clipPath55)" stroke="none">Security=CERTIFICATE </text>
            <text x="737" xml:space="preserve" y="473" clip-path="url(#clipPath56)" stroke="none">Compression=NONE </text>
            <text x="737" xml:space="preserve" y="486" clip-path="url(#clipPath57)" stroke="none">Certificate_level=ApplicationSystem </text>
            <text x="737" xml:space="preserve" y="499" clip-path="url(#clipPath58)" stroke="none">Token=ArrowheadToken </text>
            <text x="737" xml:space="preserve" y="512" clip-path="url(#clipPath59)" stroke="none">Crypto_algorithm=RSA </text>
            <text x="737" xml:space="preserve" y="525" clip-path="url(#clipPath60)" stroke="none">Datamodel=SenML </text>
            <text x="737" xml:space="preserve" y="538" clip-path="url(#clipPath61)" stroke="none">MicroserviceName=ReadDataSet </text>
            <text x="737" xml:space="preserve" y="551" clip-path="url(#clipPath62)" stroke="none">isEncapsulated=false </text>
            <line y2="398" fill="none" x1="731" clip-path="url(#clipPath63)" x2="952" y1="398"/>
            <line clip-path="url(#clipPath64)" fill="none" x1="731" x2="952" y1="397" y2="397" stroke-width="1.1"/>
            <text x="821" font-size="8px" y="598" clip-path="url(#clipPath65)" stroke="none" font-weight="bold" stroke-width="1.1" xml:space="preserve">operations</text>
            <text x="737" font-size="9px" y="610" clip-path="url(#clipPath66)" stroke="none" font-weight="bold" stroke-width="1.1" xml:space="preserve">  ReadData()</text>
            <line y2="589" fill="none" x1="731" clip-path="url(#clipPath67)" x2="952" y1="589"/>
            <rect x="732" y="371" clip-path="url(#clipPath64)" fill="none" width="219" rx="0" ry="0" height="299"/>
            <rect x="1111" y="10" clip-path="url(#clipPath68)" fill="url(#linearGradient9)" width="241" height="298" stroke="none"/>
            <text x="1214" font-size="9px" y="22" clip-path="url(#clipPath69)" stroke="none" font-weight="bold" xml:space="preserve">«Block»</text>
            <text x="1209" font-size="9px" y="34" clip-path="url(#clipPath70)" stroke="none" font-weight="bold" xml:space="preserve">DataSet-A</text>
            <text x="1216" font-size="8px" y="47" clip-path="url(#clipPath71)" stroke="none" font-weight="bold" xml:space="preserve">«Block»</text>
            <text x="1117" xml:space="preserve" y="61" clip-path="url(#clipPath72)" stroke="none">isEncapsulated=false </text>
            <line y2="38" fill="none" x1="1111" clip-path="url(#clipPath73)" x2="1352" y1="38"/>
            <line clip-path="url(#clipPath74)" fill="none" x1="1111" x2="1352" y1="37" y2="37" stroke-width="1.1"/>
            <text x="1213" font-size="8px" y="95" clip-path="url(#clipPath75)" stroke="none" font-weight="bold" stroke-width="1.1" xml:space="preserve">attributes</text>
            <text x="1117" font-size="9px" y="107" clip-path="url(#clipPath76)" stroke="none" font-weight="bold" stroke-width="1.1" xml:space="preserve">  Description = Automative battery test data</text>
            <line y2="86" fill="none" x1="1111" clip-path="url(#clipPath77)" x2="1352" y1="86"/>
            <text x="1211" font-size="8px" y="228" clip-path="url(#clipPath78)" stroke="none" font-weight="bold" xml:space="preserve">operations</text>
            <line y2="219" fill="none" x1="1111" clip-path="url(#clipPath79)" x2="1352" y1="219"/>
            <rect x="1112" y="11" clip-path="url(#clipPath74)" fill="none" width="239" rx="0" ry="0" height="296"/>
            <rect x="151" y="370" clip-path="url(#clipPath80)" fill="url(#linearGradient10)" width="241" height="281" stroke="none"/>
            <text x="251" font-size="9px" y="382" clip-path="url(#clipPath81)" stroke="none" font-weight="bold" xml:space="preserve">«SysDD»</text>
            <text x="209" font-size="9px" y="394" clip-path="url(#clipPath82)" stroke="none" font-weight="bold" xml:space="preserve">DataSet-DesignDesccription</text>
            <text x="253" font-size="8px" y="407" clip-path="url(#clipPath83)" stroke="none" font-weight="bold" xml:space="preserve">«SysDD»</text>
            <text x="157" xml:space="preserve" y="421" clip-path="url(#clipPath84)" stroke="none">Timeformat=RFC_3339 </text>
            <text x="157" xml:space="preserve" y="434" clip-path="url(#clipPath85)" stroke="none">ArrowheadCertificate=ApplicationSystem </text>
            <text x="157" xml:space="preserve" y="447" clip-path="url(#clipPath86)" stroke="none">MicrosystemName=[DataSet] </text>
            <text x="157" xml:space="preserve" y="460" clip-path="url(#clipPath87)" stroke="none">FunctionalProperties=[] </text>
            <text x="157" xml:space="preserve" y="473" clip-path="url(#clipPath88)" stroke="none">SystemDatabase=MySQL </text>
            <text x="157" xml:space="preserve" y="486" clip-path="url(#clipPath89)" stroke="none">MicrosystemBehaviour=[] </text>
            <text x="157" xml:space="preserve" y="499" clip-path="url(#clipPath90)" stroke="none">isEncapsulated=false </text>
            <line y2="398" fill="none" x1="151" clip-path="url(#clipPath91)" x2="392" y1="398"/>
            <line clip-path="url(#clipPath92)" fill="none" x1="151" x2="392" y1="397" y2="397" stroke-width="1.1"/>
            <text x="253" font-size="8px" y="546" clip-path="url(#clipPath93)" stroke="none" font-weight="bold" stroke-width="1.1" xml:space="preserve">attributes</text>
            <text x="157" font-size="9px" y="558" clip-path="url(#clipPath94)" stroke="none" font-weight="bold" stroke-width="1.1" xml:space="preserve">  DataSet</text>
            <line y2="537" fill="none" x1="151" clip-path="url(#clipPath95)" x2="392" y1="537"/>
            <text x="251" font-size="8px" y="615" clip-path="url(#clipPath96)" stroke="none" font-weight="bold" xml:space="preserve">operations</text>
            <line y2="606" fill="none" x1="151" clip-path="url(#clipPath97)" x2="392" y1="606"/>
            <rect x="152" y="371" clip-path="url(#clipPath92)" fill="none" width="239" rx="0" ry="0" height="279"/>
            <rect x="382" y="419" clip-path="url(#clipPath98)" fill="url(#linearGradient11)" width="20" height="20" stroke="none"/>
            <rect x="383" y="420" clip-path="url(#clipPath99)" fill="none" width="18" rx="0" ry="0" height="18"/>
            <text x="407" font-size="9px" y="431" clip-path="url(#clipPath100)" stroke="none" font-weight="bold" xml:space="preserve"> ReadDataSet-Websocket</text>
            <rect x="141" y="420" clip-path="url(#clipPath101)" fill="url(#linearGradient12)" width="20" height="20" stroke="none"/>
            <rect x="142" y="421" clip-path="url(#clipPath102)" fill="none" width="18" rx="0" ry="0" height="18"/>
            <text x="10" font-size="9px" y="439" clip-path="url(#clipPath103)" stroke="none" font-weight="bold" xml:space="preserve"> ServiceDiscovery-HTTP</text>
            <rect x="141" y="460" clip-path="url(#clipPath104)" fill="url(#linearGradient13)" width="20" height="20" stroke="none"/>
            <rect x="142" y="461" clip-path="url(#clipPath105)" fill="none" width="18" rx="0" ry="0" height="18"/>
            <text x="10" font-size="9px" y="479" clip-path="url(#clipPath106)" stroke="none" font-weight="bold" xml:space="preserve"> GetPublicKey-HTTP</text>
            <rect x="141" y="500" clip-path="url(#clipPath107)" fill="url(#linearGradient14)" width="20" height="20" stroke="none"/>
            <rect x="142" y="501" clip-path="url(#clipPath108)" fill="none" width="18" rx="0" ry="0" height="18"/>
            <text x="10" font-size="9px" y="519" clip-path="url(#clipPath109)" stroke="none" font-weight="bold" xml:space="preserve"> ServiceOrchestration-HTTP</text>
            <rect x="382" y="469" clip-path="url(#clipPath110)" fill="url(#linearGradient15)" width="20" height="20" stroke="none"/>
            <rect x="383" y="470" clip-path="url(#clipPath111)" fill="none" width="18" rx="0" ry="0" height="18"/>
            <text x="407" font-size="9px" y="481" clip-path="url(#clipPath112)" stroke="none" font-weight="bold" xml:space="preserve"> Monitor-MQTT</text>
            <line clip-path="url(#clipPath113)" fill="none" text-rendering="optimizeLegibility" x1="831" x2="831" y1="370" y2="291"/>
        </g>
        <g stroke-linecap="butt" font-size="9px" fill="white" text-rendering="optimizeLegibility" font-family="'.AppleSystemUIFont'" stroke="white" font-weight="bold" stroke-width="2.1">
            <polygon points=" 831 291 839 301 823 301" stroke="none" clip-path="url(#clipPath114)"/>
            <polygon fill="none" stroke-width="1.1" clip-path="url(#clipPath114)" points=" 831 291 839 301 823 301" stroke="black"/>
            <line clip-path="url(#clipPath113)" fill="none" x1="271" x2="271" y1="370" y2="291" stroke="black"/>
            <polygon points=" 271 291 279 301 263 301" clip-path="url(#clipPath115)" stroke="none"/>
            <polygon fill="none" stroke-width="1.1" clip-path="url(#clipPath115)" points=" 271 291 279 301 263 301" stroke="black"/>
        </g>
    </g>
    <rect x="151" y="10" fill-opacity="0" width="241" id="DataSet" height="281" stroke-opacity="0"/>
    <rect x="157" y="150" fill-opacity="0" width="231" id="ReadDataSet" height="11" stroke-opacity="0"/>
    <rect x="157" y="161" fill-opacity="0" width="231" id="ServiceDiscovery" height="11" stroke-opacity="0"/>
    <rect x="157" y="172" fill-opacity="0" width="231" id="GetPublicKey" height="11" stroke-opacity="0"/>
    <rect x="157" y="183" fill-opacity="0" width="231" id="ServiceOrchestration" height="11" stroke-opacity="0"/>
    <rect x="157" y="194" fill-opacity="0" width="231" id="Monitor" height="11" stroke-opacity="0"/>
    <rect x="157" y="205" fill-opacity="0" width="231" id="DataSet" height="11" stroke-opacity="0"/>
    <rect x="382" y="63" fill-opacity="0" width="20" id="ReadDataSet" height="20" stroke-opacity="0"/>
    <rect x="141" y="60" fill-opacity="0" width="20" id="ServiceDiscovery" height="20" stroke-opacity="0"/>
    <rect x="141" y="100" fill-opacity="0" width="20" id="GetPublicKey" height="20" stroke-opacity="0"/>
    <rect x="141" y="135" fill-opacity="0" width="20" id="ServiceOrchestration" height="20" stroke-opacity="0"/>
    <rect x="382" y="111" fill-opacity="0" width="20" id="Monitor" height="20" stroke-opacity="0"/>
    <rect x="731" y="10" fill-opacity="0" width="221" id="ReadDataSet" height="281" stroke-opacity="0"/>
    <rect x="737" y="124" fill-opacity="0" width="211" id="ReadData" height="11" stroke-opacity="0"/>
    <rect x="731" y="370" fill-opacity="0" width="221" id="ReadDataSet-Websocket" height="301" stroke-opacity="0"/>
    <rect x="737" y="601" fill-opacity="0" width="211" id="ReadData" height="11" stroke-opacity="0"/>
    <rect x="1111" y="10" fill-opacity="0" width="241" id="DataSet-A" height="298" stroke-opacity="0"/>
    <rect x="1117" y="98" fill-opacity="0" width="231" id="Description" height="11" stroke-opacity="0"/>
    <rect x="151" y="370" fill-opacity="0" width="241" id="DataSet-DesignDesccription" height="281" stroke-opacity="0"/>
    <rect x="157" y="549" fill-opacity="0" width="231" id="DataSet" height="11" stroke-opacity="0"/>
    <rect x="382" y="419" fill-opacity="0" width="20" id="ReadDataSet-Websocket" height="20" stroke-opacity="0"/>
    <rect x="141" y="420" fill-opacity="0" width="20" id="ServiceDiscovery-HTTP" height="20" stroke-opacity="0"/>
    <rect x="141" y="460" fill-opacity="0" width="20" id="GetPublicKey-HTTP" height="20" stroke-opacity="0"/>
    <rect x="141" y="500" fill-opacity="0" width="20" id="ServiceOrchestration-HTTP" height="20" stroke-opacity="0"/>
    <rect x="382" y="469" fill-opacity="0" width="20" id="Monitor-MQTT" height="20" stroke-opacity="0"/>
</svg>
