<?xml version="1.0" encoding="UTF-8"?><svg xmlns="http://www.w3.org/2000/svg" xmlns:xlink="http://www.w3.org/1999/xlink" stroke-dasharray="none" shape-rendering="auto" font-family="'Dialog'" width="1522" text-rendering="auto" fill-opacity="1" contentScriptType="text/ecmascript" color-interpolation="auto" color-rendering="auto" preserveAspectRatio="xMidYMid meet" font-size="12px" viewBox="0 0 1522 601" fill="black" stroke="black" image-rendering="auto" stroke-miterlimit="10" zoomAndPan="magnify" version="1.0" stroke-linecap="square" stroke-linejoin="miter" contentStyleType="text/css" font-style="normal" height="601" stroke-width="1" stroke-dashoffset="0" font-weight="normal" stroke-opacity="1">
    <!--Generated by the Batik Graphics2D SVG Generator-->
    <defs id="genericDefs"/>
    <g>
        <defs id="defs1">
            <linearGradient x1="131" x2="131" y1="10" gradientUnits="userSpaceOnUse" y2="271" xlink:type="simple" xlink:actuate="onLoad" id="linearGradient1" xlink:show="other" spreadMethod="pad">
                <stop stop-opacity="1" stop-color="rgb(255,128,0)" offset="0%"/>
                <stop stop-opacity="1" stop-color="rgb(255,128,0)" offset="100%"/>
            </linearGradient>
            <linearGradient x1="342" x2="342" y1="59" gradientUnits="userSpaceOnUse" y2="79" xlink:type="simple" xlink:actuate="onLoad" id="linearGradient2" xlink:show="other" spreadMethod="pad">
                <stop stop-opacity="1" stop-color="rgb(155,199,204)" offset="0%"/>
                <stop stop-opacity="1" stop-color="rgb(155,199,204)" offset="100%"/>
            </linearGradient>
            <linearGradient x1="342" x2="342" y1="117" gradientUnits="userSpaceOnUse" y2="137" xlink:type="simple" xlink:actuate="onLoad" id="linearGradient3" xlink:show="other" spreadMethod="pad">
                <stop stop-opacity="1" stop-color="rgb(155,199,204)" offset="0%"/>
                <stop stop-opacity="1" stop-color="rgb(155,199,204)" offset="100%"/>
            </linearGradient>
            <linearGradient x1="121" x2="121" y1="60" gradientUnits="userSpaceOnUse" y2="80" xlink:type="simple" xlink:actuate="onLoad" id="linearGradient4" xlink:show="other" spreadMethod="pad">
                <stop stop-opacity="1" stop-color="rgb(155,199,204)" offset="0%"/>
                <stop stop-opacity="1" stop-color="rgb(155,199,204)" offset="100%"/>
            </linearGradient>
            <linearGradient x1="121" x2="121" y1="100" gradientUnits="userSpaceOnUse" y2="120" xlink:type="simple" xlink:actuate="onLoad" id="linearGradient5" xlink:show="other" spreadMethod="pad">
                <stop stop-opacity="1" stop-color="rgb(155,199,204)" offset="0%"/>
                <stop stop-opacity="1" stop-color="rgb(155,199,204)" offset="100%"/>
            </linearGradient>
            <linearGradient x1="121" x2="121" y1="140" gradientUnits="userSpaceOnUse" y2="160" xlink:type="simple" xlink:actuate="onLoad" id="linearGradient6" xlink:show="other" spreadMethod="pad">
                <stop stop-opacity="1" stop-color="rgb(155,199,204)" offset="0%"/>
                <stop stop-opacity="1" stop-color="rgb(155,199,204)" offset="100%"/>
            </linearGradient>
            <linearGradient x1="531" x2="531" y1="10" gradientUnits="userSpaceOnUse" y2="271" xlink:type="simple" xlink:actuate="onLoad" id="linearGradient7" xlink:show="other" spreadMethod="pad">
                <stop stop-opacity="1" stop-color="rgb(155,199,204)" offset="0%"/>
                <stop stop-opacity="1" stop-color="rgb(155,199,204)" offset="100%"/>
            </linearGradient>
            <linearGradient x1="1311" x2="1311" y1="10" gradientUnits="userSpaceOnUse" y2="271" xlink:type="simple" xlink:actuate="onLoad" id="linearGradient8" xlink:show="other" spreadMethod="pad">
                <stop stop-opacity="1" stop-color="rgb(237,201,122)" offset="0%"/>
                <stop stop-opacity="1" stop-color="rgb(237,201,122)" offset="100%"/>
            </linearGradient>
            <linearGradient x1="851" x2="851" y1="10" gradientUnits="userSpaceOnUse" y2="271" xlink:type="simple" xlink:actuate="onLoad" id="linearGradient9" xlink:show="other" spreadMethod="pad">
                <stop stop-opacity="1" stop-color="white" offset="0%"/>
                <stop stop-opacity="1" stop-color="rgb(255,110,51)" offset="100%"/>
            </linearGradient>
            <linearGradient x1="631" x2="631" y1="370" gradientUnits="userSpaceOnUse" y2="591" xlink:type="simple" xlink:actuate="onLoad" id="linearGradient10" xlink:show="other" spreadMethod="pad">
                <stop stop-opacity="1" stop-color="rgb(255,128,0)" offset="0%"/>
                <stop stop-opacity="1" stop-color="rgb(255,128,0)" offset="100%"/>
            </linearGradient>
            <linearGradient x1="131" x2="131" y1="330" gradientUnits="userSpaceOnUse" y2="571" xlink:type="simple" xlink:actuate="onLoad" id="linearGradient11" xlink:show="other" spreadMethod="pad">
                <stop stop-opacity="1" stop-color="rgb(255,128,0)" offset="0%"/>
                <stop stop-opacity="1" stop-color="rgb(255,128,0)" offset="100%"/>
            </linearGradient>
            <clipPath clipPathUnits="userSpaceOnUse" id="clipPath1">
                <path d="M131 10 L131 270 L351 270 L351 10 Z"/>
            </clipPath>
            <clipPath clipPathUnits="userSpaceOnUse" id="clipPath2">
                <path d="M224 12 L261 12 L261 25 L224 25 L224 12 Z"/>
            </clipPath>
            <clipPath clipPathUnits="userSpaceOnUse" id="clipPath3">
                <path d="M188 24 L296 24 L296 37 L188 37 L188 24 Z"/>
            </clipPath>
            <clipPath clipPathUnits="userSpaceOnUse" id="clipPath4">
                <path d="M225 38 L259 38 L259 50 L225 50 L225 38 Z"/>
            </clipPath>
            <clipPath clipPathUnits="userSpaceOnUse" id="clipPath5">
                <path d="M136 49 L336 49 L336 77 L136 77 L136 49 Z"/>
            </clipPath>
            <clipPath clipPathUnits="userSpaceOnUse" id="clipPath6">
                <path d="M136 75 L266 75 L266 90 L136 90 L136 75 Z"/>
            </clipPath>
            <clipPath clipPathUnits="userSpaceOnUse" id="clipPath7">
                <path d="M136 88 L274 88 L274 103 L136 103 L136 88 Z"/>
            </clipPath>
            <clipPath clipPathUnits="userSpaceOnUse" id="clipPath8">
                <path d="M136 101 L276 101 L276 116 L136 116 L136 101 Z"/>
            </clipPath>
            <clipPath clipPathUnits="userSpaceOnUse" id="clipPath9">
                <path d="M136 114 L253 114 L253 129 L136 129 L136 114 Z"/>
            </clipPath>
            <clipPath clipPathUnits="userSpaceOnUse" id="clipPath10">
                <path d="M131 36 L353 36 L353 140 L131 140 L131 36 Z"/>
            </clipPath>
            <clipPath clipPathUnits="userSpaceOnUse" id="clipPath11">
                <path d="M130 9 L353 9 L353 272 L130 272 L130 9 Z"/>
            </clipPath>
            <clipPath clipPathUnits="userSpaceOnUse" id="clipPath12">
                <path d="M222 151 L263 151 L263 163 L222 163 L222 151 Z"/>
            </clipPath>
            <clipPath clipPathUnits="userSpaceOnUse" id="clipPath13">
                <path d="M136 162 L248 162 L248 175 L136 175 L136 162 Z"/>
            </clipPath>
            <clipPath clipPathUnits="userSpaceOnUse" id="clipPath14">
                <path d="M131 149 L353 149 L353 203 L131 203 L131 149 Z"/>
            </clipPath>
            <clipPath clipPathUnits="userSpaceOnUse" id="clipPath15">
                <path d="M220 204 L265 204 L265 216 L220 216 L220 204 Z"/>
            </clipPath>
            <clipPath clipPathUnits="userSpaceOnUse" id="clipPath16">
                <path d="M136 215 L220 215 L220 228 L136 228 L136 215 Z"/>
            </clipPath>
            <clipPath clipPathUnits="userSpaceOnUse" id="clipPath17">
                <path d="M136 226 L191 226 L191 239 L136 239 L136 226 Z"/>
            </clipPath>
            <clipPath clipPathUnits="userSpaceOnUse" id="clipPath18">
                <path d="M131 202 L353 202 L353 272 L131 272 L131 202 Z"/>
            </clipPath>
            <clipPath clipPathUnits="userSpaceOnUse" id="clipPath19">
                <path d="M342 59 L342 78 L361 78 L361 59 Z"/>
            </clipPath>
            <clipPath clipPathUnits="userSpaceOnUse" id="clipPath20">
                <path d="M341 58 L363 58 L363 80 L341 80 L341 58 Z"/>
            </clipPath>
            <clipPath clipPathUnits="userSpaceOnUse" id="clipPath21">
                <path d="M366 61 L496 61 L496 74 L366 74 L366 61 Z"/>
            </clipPath>
            <clipPath clipPathUnits="userSpaceOnUse" id="clipPath22">
                <path d="M342 117 L342 136 L361 136 L361 117 Z"/>
            </clipPath>
            <clipPath clipPathUnits="userSpaceOnUse" id="clipPath23">
                <path d="M341 116 L363 116 L363 138 L341 138 L341 116 Z"/>
            </clipPath>
            <clipPath clipPathUnits="userSpaceOnUse" id="clipPath24">
                <path d="M366 119 L421 119 L421 132 L366 132 L366 119 Z"/>
            </clipPath>
            <clipPath clipPathUnits="userSpaceOnUse" id="clipPath25">
                <path d="M121 60 L121 79 L140 79 L140 60 Z"/>
            </clipPath>
            <clipPath clipPathUnits="userSpaceOnUse" id="clipPath26">
                <path d="M120 59 L142 59 L142 81 L120 81 L120 59 Z"/>
            </clipPath>
            <clipPath clipPathUnits="userSpaceOnUse" id="clipPath27">
                <path d="M29 69 L110 69 L110 82 L29 82 L29 69 Z"/>
            </clipPath>
            <clipPath clipPathUnits="userSpaceOnUse" id="clipPath28">
                <path d="M121 100 L121 119 L140 119 L140 100 Z"/>
            </clipPath>
            <clipPath clipPathUnits="userSpaceOnUse" id="clipPath29">
                <path d="M120 99 L142 99 L142 121 L120 121 L120 99 Z"/>
            </clipPath>
            <clipPath clipPathUnits="userSpaceOnUse" id="clipPath30">
                <path d="M50 109 L114 109 L114 122 L50 122 L50 109 Z"/>
            </clipPath>
            <clipPath clipPathUnits="userSpaceOnUse" id="clipPath31">
                <path d="M121 140 L121 159 L140 159 L140 140 Z"/>
            </clipPath>
            <clipPath clipPathUnits="userSpaceOnUse" id="clipPath32">
                <path d="M120 139 L142 139 L142 161 L120 161 L120 139 Z"/>
            </clipPath>
            <clipPath clipPathUnits="userSpaceOnUse" id="clipPath33">
                <path d="M9 149 L107 149 L107 162 L9 162 L9 149 Z"/>
            </clipPath>
            <clipPath clipPathUnits="userSpaceOnUse" id="clipPath34">
                <path d="M531 10 L531 270 L751 270 L751 10 Z"/>
            </clipPath>
            <clipPath clipPathUnits="userSpaceOnUse" id="clipPath35">
                <path d="M629 12 L656 12 L656 25 L629 25 L629 12 Z"/>
            </clipPath>
            <clipPath clipPathUnits="userSpaceOnUse" id="clipPath36">
                <path d="M578 24 L706 24 L706 37 L578 37 L578 24 Z"/>
            </clipPath>
            <clipPath clipPathUnits="userSpaceOnUse" id="clipPath37">
                <path d="M630 38 L655 38 L655 50 L630 50 L630 38 Z"/>
            </clipPath>
            <clipPath clipPathUnits="userSpaceOnUse" id="clipPath38">
                <path d="M536 49 L706 49 L706 77 L536 77 L536 49 Z"/>
            </clipPath>
            <clipPath clipPathUnits="userSpaceOnUse" id="clipPath39">
                <path d="M536 75 L653 75 L653 90 L536 90 L536 75 Z"/>
            </clipPath>
            <clipPath clipPathUnits="userSpaceOnUse" id="clipPath40">
                <path d="M531 36 L753 36 L753 101 L531 101 L531 36 Z"/>
            </clipPath>
            <clipPath clipPathUnits="userSpaceOnUse" id="clipPath41">
                <path d="M530 9 L753 9 L753 272 L530 272 L530 9 Z"/>
            </clipPath>
            <clipPath clipPathUnits="userSpaceOnUse" id="clipPath42">
                <path d="M620 112 L665 112 L665 124 L620 124 L620 112 Z"/>
            </clipPath>
            <clipPath clipPathUnits="userSpaceOnUse" id="clipPath43">
                <path d="M536 123 L647 123 L647 136 L536 136 L536 123 Z"/>
            </clipPath>
            <clipPath clipPathUnits="userSpaceOnUse" id="clipPath44">
                <path d="M536 134 L551 134 L551 147 L536 147 L536 134 Z"/>
            </clipPath>
            <clipPath clipPathUnits="userSpaceOnUse" id="clipPath45">
                <path d="M531 110 L753 110 L753 272 L531 272 L531 110 Z"/>
            </clipPath>
            <clipPath clipPathUnits="userSpaceOnUse" id="clipPath46">
                <path d="M1311 10 L1311 270 L1511 270 L1511 10 Z"/>
            </clipPath>
            <clipPath clipPathUnits="userSpaceOnUse" id="clipPath47">
                <path d="M1393 12 L1432 12 L1432 25 L1393 25 L1393 12 Z"/>
            </clipPath>
            <clipPath clipPathUnits="userSpaceOnUse" id="clipPath48">
                <path d="M1387 24 L1438 24 L1438 37 L1387 37 L1387 24 Z"/>
            </clipPath>
            <clipPath clipPathUnits="userSpaceOnUse" id="clipPath49">
                <path d="M1311 36 L1513 36 L1513 113 L1311 113 L1311 36 Z"/>
            </clipPath>
            <clipPath clipPathUnits="userSpaceOnUse" id="clipPath50">
                <path d="M1316 115 L1409 115 L1409 128 L1316 128 L1316 115 Z"/>
            </clipPath>
            <clipPath clipPathUnits="userSpaceOnUse" id="clipPath51">
                <path d="M1311 112 L1513 112 L1513 196 L1311 196 L1311 112 Z"/>
            </clipPath>
            <clipPath clipPathUnits="userSpaceOnUse" id="clipPath52">
                <path d="M1311 195 L1513 195 L1513 272 L1311 272 L1311 195 Z"/>
            </clipPath>
            <clipPath clipPathUnits="userSpaceOnUse" id="clipPath53">
                <path d="M1310 9 L1513 9 L1513 272 L1310 272 L1310 9 Z"/>
            </clipPath>
            <clipPath clipPathUnits="userSpaceOnUse" id="clipPath54">
                <path d="M851 10 L851 270 L1045 270 L1045 10 Z"/>
            </clipPath>
            <clipPath clipPathUnits="userSpaceOnUse" id="clipPath55">
                <path d="M930 12 L969 12 L969 25 L930 25 L930 12 Z"/>
            </clipPath>
            <clipPath clipPathUnits="userSpaceOnUse" id="clipPath56">
                <path d="M926 24 L973 24 L973 37 L926 37 L926 24 Z"/>
            </clipPath>
            <clipPath clipPathUnits="userSpaceOnUse" id="clipPath57">
                <path d="M856 39 L1034 39 L1034 52 L856 52 L856 39 Z"/>
            </clipPath>
            <clipPath clipPathUnits="userSpaceOnUse" id="clipPath58">
                <path d="M851 36 L1047 36 L1047 159 L851 159 L851 36 Z"/>
            </clipPath>
            <clipPath clipPathUnits="userSpaceOnUse" id="clipPath59">
                <path d="M851 158 L1047 158 L1047 272 L851 272 L851 158 Z"/>
            </clipPath>
            <clipPath clipPathUnits="userSpaceOnUse" id="clipPath60">
                <path d="M850 9 L1047 9 L1047 272 L850 272 L850 9 Z"/>
            </clipPath>
            <clipPath clipPathUnits="userSpaceOnUse" id="clipPath61">
                <path d="M631 370 L631 590 L851 590 L851 370 Z"/>
            </clipPath>
            <clipPath clipPathUnits="userSpaceOnUse" id="clipPath62">
                <path d="M724 372 L761 372 L761 385 L724 385 L724 372 Z"/>
            </clipPath>
            <clipPath clipPathUnits="userSpaceOnUse" id="clipPath63">
                <path d="M727 384 L758 384 L758 397 L727 397 L727 384 Z"/>
            </clipPath>
            <clipPath clipPathUnits="userSpaceOnUse" id="clipPath64">
                <path d="M725 398 L759 398 L759 410 L725 410 L725 398 Z"/>
            </clipPath>
            <clipPath clipPathUnits="userSpaceOnUse" id="clipPath65">
                <path d="M636 409 L788 409 L788 424 L636 424 L636 409 Z"/>
            </clipPath>
            <clipPath clipPathUnits="userSpaceOnUse" id="clipPath66">
                <path d="M636 422 L766 422 L766 437 L636 437 L636 422 Z"/>
            </clipPath>
            <clipPath clipPathUnits="userSpaceOnUse" id="clipPath67">
                <path d="M636 435 L774 435 L774 450 L636 450 L636 435 Z"/>
            </clipPath>
            <clipPath clipPathUnits="userSpaceOnUse" id="clipPath68">
                <path d="M636 448 L776 448 L776 463 L636 463 L636 448 Z"/>
            </clipPath>
            <clipPath clipPathUnits="userSpaceOnUse" id="clipPath69">
                <path d="M636 461 L753 461 L753 476 L636 476 L636 461 Z"/>
            </clipPath>
            <clipPath clipPathUnits="userSpaceOnUse" id="clipPath70">
                <path d="M631 396 L853 396 L853 487 L631 487 L631 396 Z"/>
            </clipPath>
            <clipPath clipPathUnits="userSpaceOnUse" id="clipPath71">
                <path d="M630 369 L853 369 L853 592 L630 592 L630 369 Z"/>
            </clipPath>
            <clipPath clipPathUnits="userSpaceOnUse" id="clipPath72">
                <path d="M722 498 L763 498 L763 510 L722 510 L722 498 Z"/>
            </clipPath>
            <clipPath clipPathUnits="userSpaceOnUse" id="clipPath73">
                <path d="M631 496 L853 496 L853 545 L631 545 L631 496 Z"/>
            </clipPath>
            <clipPath clipPathUnits="userSpaceOnUse" id="clipPath74">
                <path d="M720 546 L765 546 L765 558 L720 558 L720 546 Z"/>
            </clipPath>
            <clipPath clipPathUnits="userSpaceOnUse" id="clipPath75">
                <path d="M631 544 L853 544 L853 592 L631 592 L631 544 Z"/>
            </clipPath>
            <clipPath clipPathUnits="userSpaceOnUse" id="clipPath76">
                <path d="M131 330 L131 570 L371 570 L371 330 Z"/>
            </clipPath>
            <clipPath clipPathUnits="userSpaceOnUse" id="clipPath77">
                <path d="M230 332 L274 332 L274 345 L230 345 L230 332 Z"/>
            </clipPath>
            <clipPath clipPathUnits="userSpaceOnUse" id="clipPath78">
                <path d="M172 344 L333 344 L333 357 L172 357 L172 344 Z"/>
            </clipPath>
            <clipPath clipPathUnits="userSpaceOnUse" id="clipPath79">
                <path d="M232 358 L272 358 L272 370 L232 370 L232 358 Z"/>
            </clipPath>
            <clipPath clipPathUnits="userSpaceOnUse" id="clipPath80">
                <path d="M136 369 L264 369 L264 384 L136 384 L136 369 Z"/>
            </clipPath>
            <clipPath clipPathUnits="userSpaceOnUse" id="clipPath81">
                <path d="M136 382 L357 382 L357 397 L136 397 L136 382 Z"/>
            </clipPath>
            <clipPath clipPathUnits="userSpaceOnUse" id="clipPath82">
                <path d="M136 395 L336 395 L336 423 L136 423 L136 395 Z"/>
            </clipPath>
            <clipPath clipPathUnits="userSpaceOnUse" id="clipPath83">
                <path d="M136 421 L266 421 L266 436 L136 436 L136 421 Z"/>
            </clipPath>
            <clipPath clipPathUnits="userSpaceOnUse" id="clipPath84">
                <path d="M136 434 L274 434 L274 449 L136 449 L136 434 Z"/>
            </clipPath>
            <clipPath clipPathUnits="userSpaceOnUse" id="clipPath85">
                <path d="M136 447 L276 447 L276 462 L136 462 L136 447 Z"/>
            </clipPath>
            <clipPath clipPathUnits="userSpaceOnUse" id="clipPath86">
                <path d="M136 460 L253 460 L253 475 L136 475 L136 460 Z"/>
            </clipPath>
            <clipPath clipPathUnits="userSpaceOnUse" id="clipPath87">
                <path d="M131 356 L373 356 L373 499 L131 499 L131 356 Z"/>
            </clipPath>
            <clipPath clipPathUnits="userSpaceOnUse" id="clipPath88">
                <path d="M130 329 L373 329 L373 572 L130 572 L130 329 Z"/>
            </clipPath>
            <clipPath clipPathUnits="userSpaceOnUse" id="clipPath89">
                <path d="M232 510 L273 510 L273 522 L232 522 L232 510 Z"/>
            </clipPath>
            <clipPath clipPathUnits="userSpaceOnUse" id="clipPath90">
                <path d="M131 508 L373 508 L373 541 L131 541 L131 508 Z"/>
            </clipPath>
            <clipPath clipPathUnits="userSpaceOnUse" id="clipPath91">
                <path d="M230 542 L275 542 L275 554 L230 554 L230 542 Z"/>
            </clipPath>
            <clipPath clipPathUnits="userSpaceOnUse" id="clipPath92">
                <path d="M131 540 L373 540 L373 572 L131 572 L131 540 Z"/>
            </clipPath>
            <clipPath clipPathUnits="userSpaceOnUse" id="clipPath93">
                <path d="M-1 -1 L1523 -1 L1523 602 L-1 602 L-1 -1 Z"/>
            </clipPath>
            <clipPath clipPathUnits="userSpaceOnUse" id="clipPath94">
                <path d="M242 270 L261 270 L261 283 L242 283 L242 270 Z"/>
            </clipPath>
        </defs>
        <g font-size="11px" fill="url(#linearGradient1)" font-family="'.AppleSystemUIFont'" stroke-linejoin="round" stroke="url(#linearGradient1)" stroke-width="0" stroke-miterlimit="0">
            <rect x="131" width="221" height="261" y="10" clip-path="url(#clipPath1)" stroke="none"/>
        </g>
        <g stroke-miterlimit="0" stroke-width="0" font-size="9px" font-family="'.AppleSystemUIFont'" font-weight="bold" stroke-linejoin="round">
            <text x="225" xml:space="preserve" y="22" clip-path="url(#clipPath2)" stroke="none">«SysD»</text>
            <text x="189" xml:space="preserve" y="34" clip-path="url(#clipPath3)" stroke="none">GeneericAI-Tool-Design</text>
            <text x="226" xml:space="preserve" font-size="8px" y="47" clip-path="url(#clipPath4)" stroke="none">«SysD»</text>
            <text x="137" font-size="11px" y="61" clip-path="url(#clipPath5)" stroke="none" font-weight="normal" xml:space="preserve">MicrosystemName=[GeneericAI-Tool-</text>
            <text x="137" font-size="11px" y="74" clip-path="url(#clipPath5)" stroke="none" font-weight="normal" xml:space="preserve">Design] </text>
            <text x="137" font-size="11px" y="87" clip-path="url(#clipPath6)" stroke="none" font-weight="normal" xml:space="preserve">FunctionalProperties=[] </text>
            <text x="137" font-size="11px" y="100" clip-path="url(#clipPath7)" stroke="none" font-weight="normal" xml:space="preserve">SystemDatabase=MySQL </text>
            <text x="137" font-size="11px" y="113" clip-path="url(#clipPath8)" stroke="none" font-weight="normal" xml:space="preserve">MicrosystemBehaviour=[] </text>
            <text x="137" font-size="11px" y="126" clip-path="url(#clipPath9)" stroke="none" font-weight="normal" xml:space="preserve">isEncapsulated=false </text>
        </g>
        <g font-size="11px" stroke-width="2.1" font-family="'.AppleSystemUIFont'" stroke-linecap="butt">
            <line y2="38" fill="none" x1="131" clip-path="url(#clipPath10)" x2="352" y1="38"/>
            <line clip-path="url(#clipPath11)" fill="none" x1="131" x2="352" y1="37" y2="37" stroke-width="1.1"/>
            <text x="223" font-size="8px" y="160" clip-path="url(#clipPath12)" stroke="none" font-weight="bold" stroke-width="1.1" xml:space="preserve">attributes</text>
            <text x="137" font-size="9px" y="172" clip-path="url(#clipPath13)" stroke="none" font-weight="bold" stroke-width="1.1" xml:space="preserve">  Algorithm-A: Word2Vec</text>
            <line y2="151" fill="none" x1="131" clip-path="url(#clipPath14)" x2="352" y1="151"/>
            <text x="221" font-size="8px" y="213" clip-path="url(#clipPath15)" stroke="none" font-weight="bold" xml:space="preserve">operations</text>
            <text x="137" font-size="9px" y="225" clip-path="url(#clipPath16)" stroke="none" font-weight="bold" xml:space="preserve"> + ExecuteTool-A()</text>
            <text x="137" font-size="9px" y="236" clip-path="url(#clipPath17)" stroke="none" font-weight="bold" xml:space="preserve">  TrainTool()</text>
            <line y2="204" fill="none" x1="131" clip-path="url(#clipPath18)" x2="352" y1="204"/>
            <rect x="132" y="11" clip-path="url(#clipPath11)" fill="none" width="219" rx="0" ry="0" height="259"/>
            <rect x="342" y="59" clip-path="url(#clipPath19)" fill="url(#linearGradient2)" width="20" height="20" stroke="none"/>
            <rect x="343" y="60" clip-path="url(#clipPath20)" fill="none" width="18" rx="0" ry="0" height="18"/>
            <text x="367" font-size="9px" y="71" clip-path="url(#clipPath21)" stroke="none" font-weight="bold" xml:space="preserve"> AlgorithmX-ServiceInterface</text>
            <rect x="342" y="117" clip-path="url(#clipPath22)" fill="url(#linearGradient3)" width="20" height="20" stroke="none"/>
            <rect x="343" y="118" clip-path="url(#clipPath23)" fill="none" width="18" rx="0" ry="0" height="18"/>
            <text x="367" font-size="9px" y="129" clip-path="url(#clipPath24)" stroke="none" font-weight="bold" xml:space="preserve"> SysMonitor</text>
            <rect x="121" y="60" clip-path="url(#clipPath25)" fill="url(#linearGradient4)" width="20" height="20" stroke="none"/>
            <rect x="122" y="61" clip-path="url(#clipPath26)" fill="none" width="18" rx="0" ry="0" height="18"/>
            <text x="30" font-size="9px" y="79" clip-path="url(#clipPath27)" stroke="none" font-weight="bold" xml:space="preserve"> ServiceDiscovery</text>
            <rect x="121" y="100" clip-path="url(#clipPath28)" fill="url(#linearGradient5)" width="20" height="20" stroke="none"/>
            <rect x="122" y="101" clip-path="url(#clipPath29)" fill="none" width="18" rx="0" ry="0" height="18"/>
            <text x="51" font-size="9px" y="119" clip-path="url(#clipPath30)" stroke="none" font-weight="bold" xml:space="preserve"> GetPublicKey</text>
            <rect x="121" y="140" clip-path="url(#clipPath31)" fill="url(#linearGradient6)" width="20" height="20" stroke="none"/>
            <rect x="122" y="141" clip-path="url(#clipPath32)" fill="none" width="18" rx="0" ry="0" height="18"/>
            <text x="10" font-size="9px" y="159" clip-path="url(#clipPath33)" stroke="none" font-weight="bold" xml:space="preserve"> ServiceOrchestration</text>
            <rect x="531" y="10" clip-path="url(#clipPath34)" fill="url(#linearGradient7)" width="221" height="261" stroke="none"/>
            <text x="630" font-size="9px" y="22" clip-path="url(#clipPath35)" stroke="none" font-weight="bold" xml:space="preserve">«SD»</text>
            <text x="579" font-size="9px" y="34" clip-path="url(#clipPath36)" stroke="none" font-weight="bold" xml:space="preserve">AlgorithmX-ServiceInterface</text>
            <text x="631" font-size="8px" y="47" clip-path="url(#clipPath37)" stroke="none" font-weight="bold" xml:space="preserve">«SD»</text>
            <text x="537" xml:space="preserve" y="61" clip-path="url(#clipPath38)" stroke="none">MicroserviceName=AlgorithmX-</text>
            <text x="537" xml:space="preserve" y="74" clip-path="url(#clipPath38)" stroke="none">ServiceInterface </text>
            <text x="537" xml:space="preserve" y="87" clip-path="url(#clipPath39)" stroke="none">isEncapsulated=false </text>
            <line y2="38" fill="none" x1="531" clip-path="url(#clipPath40)" x2="752" y1="38"/>
            <line clip-path="url(#clipPath41)" fill="none" x1="531" x2="752" y1="37" y2="37" stroke-width="1.1"/>
            <text x="621" font-size="8px" y="121" clip-path="url(#clipPath42)" stroke="none" font-weight="bold" stroke-width="1.1" xml:space="preserve">operations</text>
            <text x="537" font-size="9px" y="133" clip-path="url(#clipPath43)" stroke="none" font-weight="bold" stroke-width="1.1" xml:space="preserve">  Interface1-DataModel()</text>
            <text x="537" font-size="9px" y="144" clip-path="url(#clipPath44)" stroke="none" font-weight="bold" stroke-width="1.1" xml:space="preserve">  ()</text>
            <line y2="112" fill="none" x1="531" clip-path="url(#clipPath45)" x2="752" y1="112"/>
            <rect x="532" y="11" clip-path="url(#clipPath41)" fill="none" width="219" rx="0" ry="0" height="259"/>
            <rect x="1311" y="10" clip-path="url(#clipPath46)" fill="url(#linearGradient8)" width="201" height="261" stroke="none"/>
            <text x="1394" font-size="9px" y="22" clip-path="url(#clipPath47)" stroke="none" font-weight="bold" xml:space="preserve">«Block»</text>
            <text x="1388" font-size="9px" y="34" clip-path="url(#clipPath48)" stroke="none" font-weight="bold" xml:space="preserve">AlgorithmX</text>
            <line y2="38" fill="none" x1="1311" clip-path="url(#clipPath49)" x2="1512" y1="38"/>
            <text x="1317" font-size="9px" y="125" clip-path="url(#clipPath50)" stroke="none" font-weight="bold" xml:space="preserve">  Algorithm-X-code()</text>
            <line y2="114" fill="none" x1="1311" clip-path="url(#clipPath51)" x2="1512" y1="114"/>
            <line y2="197" fill="none" x1="1311" clip-path="url(#clipPath52)" x2="1512" y1="197"/>
            <rect x="1312" y="11" clip-path="url(#clipPath53)" fill="none" width="199" rx="0" ry="0" height="259"/>
            <rect x="851" y="10" clip-path="url(#clipPath54)" fill="url(#linearGradient9)" width="195" height="261" stroke="none"/>
            <text x="931" font-size="9px" y="22" clip-path="url(#clipPath55)" stroke="none" font-weight="bold" xml:space="preserve">«Block»</text>
            <text x="927" font-size="9px" y="34" clip-path="url(#clipPath56)" stroke="none" font-weight="bold" xml:space="preserve">Word2Vec</text>
            <text x="857" font-size="9px" y="49" clip-path="url(#clipPath57)" stroke="none" font-weight="bold" xml:space="preserve">  URL = http://www.aime50.eu/word2vec</text>
            <line y2="38" fill="none" x1="851" clip-path="url(#clipPath58)" x2="1046" y1="38"/>
            <line y2="160" fill="none" x1="851" clip-path="url(#clipPath59)" x2="1046" y1="160"/>
            <rect x="852" y="11" clip-path="url(#clipPath60)" fill="none" width="193" rx="0" ry="0" height="259"/>
            <rect x="631" y="370" clip-path="url(#clipPath61)" fill="url(#linearGradient10)" width="221" height="221" stroke="none"/>
            <text x="725" font-size="9px" y="382" clip-path="url(#clipPath62)" stroke="none" font-weight="bold" xml:space="preserve">«SysD»</text>
            <text x="728" font-size="9px" y="394" clip-path="url(#clipPath63)" stroke="none" font-weight="bold" xml:space="preserve">SysD3</text>
            <text x="726" font-size="8px" y="407" clip-path="url(#clipPath64)" stroke="none" font-weight="bold" xml:space="preserve">«SysD»</text>
            <text x="637" xml:space="preserve" y="421" clip-path="url(#clipPath65)" stroke="none">MicrosystemName=[SysD3] </text>
            <text x="637" xml:space="preserve" y="434" clip-path="url(#clipPath66)" stroke="none">FunctionalProperties=[] </text>
            <text x="637" xml:space="preserve" y="447" clip-path="url(#clipPath67)" stroke="none">SystemDatabase=MySQL </text>
            <text x="637" xml:space="preserve" y="460" clip-path="url(#clipPath68)" stroke="none">MicrosystemBehaviour=[] </text>
            <text x="637" xml:space="preserve" y="473" clip-path="url(#clipPath69)" stroke="none">isEncapsulated=false </text>
            <line y2="398" fill="none" x1="631" clip-path="url(#clipPath70)" x2="852" y1="398"/>
            <line clip-path="url(#clipPath71)" fill="none" x1="631" x2="852" y1="397" y2="397" stroke-width="1.1"/>
            <text x="723" font-size="8px" y="507" clip-path="url(#clipPath72)" stroke="none" font-weight="bold" stroke-width="1.1" xml:space="preserve">attributes</text>
            <line y2="498" fill="none" x1="631" clip-path="url(#clipPath73)" x2="852" y1="498"/>
            <text x="721" font-size="8px" y="555" clip-path="url(#clipPath74)" stroke="none" font-weight="bold" xml:space="preserve">operations</text>
            <line y2="546" fill="none" x1="631" clip-path="url(#clipPath75)" x2="852" y1="546"/>
            <rect x="632" y="371" clip-path="url(#clipPath71)" fill="none" width="219" rx="0" ry="0" height="219"/>
            <rect x="131" y="330" clip-path="url(#clipPath76)" fill="url(#linearGradient11)" width="241" height="241" stroke="none"/>
            <text x="231" font-size="9px" y="342" clip-path="url(#clipPath77)" stroke="none" font-weight="bold" xml:space="preserve">«SysDD»</text>
            <text x="173" font-size="9px" y="354" clip-path="url(#clipPath78)" stroke="none" font-weight="bold" xml:space="preserve">GegnericAI-ToolDwsignDescrciption</text>
            <text x="233" font-size="8px" y="367" clip-path="url(#clipPath79)" stroke="none" font-weight="bold" xml:space="preserve">«SysDD»</text>
            <text x="137" xml:space="preserve" y="381" clip-path="url(#clipPath80)" stroke="none">Timeformat=RFC_3339 </text>
            <text x="137" xml:space="preserve" y="394" clip-path="url(#clipPath81)" stroke="none">ArrowheadCertificate=ApplicationSystem </text>
            <text x="137" xml:space="preserve" y="407" clip-path="url(#clipPath82)" stroke="none">MicrosystemName=[GeneericAI-Tool-</text>
            <text x="137" xml:space="preserve" y="420" clip-path="url(#clipPath82)" stroke="none">Design] </text>
            <text x="137" xml:space="preserve" y="433" clip-path="url(#clipPath83)" stroke="none">FunctionalProperties=[] </text>
            <text x="137" xml:space="preserve" y="446" clip-path="url(#clipPath84)" stroke="none">SystemDatabase=MySQL </text>
            <text x="137" xml:space="preserve" y="459" clip-path="url(#clipPath85)" stroke="none">MicrosystemBehaviour=[] </text>
            <text x="137" xml:space="preserve" y="472" clip-path="url(#clipPath86)" stroke="none">isEncapsulated=false </text>
            <line y2="358" fill="none" x1="131" clip-path="url(#clipPath87)" x2="372" y1="358"/>
            <line clip-path="url(#clipPath88)" fill="none" x1="131" x2="372" y1="357" y2="357" stroke-width="1.1"/>
            <text x="233" font-size="8px" y="519" clip-path="url(#clipPath89)" stroke="none" font-weight="bold" stroke-width="1.1" xml:space="preserve">attributes</text>
            <line y2="510" fill="none" x1="131" clip-path="url(#clipPath90)" x2="372" y1="510"/>
            <text x="231" font-size="8px" y="551" clip-path="url(#clipPath91)" stroke="none" font-weight="bold" xml:space="preserve">operations</text>
            <line y2="542" fill="none" x1="131" clip-path="url(#clipPath92)" x2="372" y1="542"/>
            <rect x="132" y="331" clip-path="url(#clipPath88)" fill="none" width="239" rx="0" ry="0" height="239"/>
            <line clip-path="url(#clipPath93)" fill="none" text-rendering="optimizeLegibility" x1="251" x2="251" y1="330" y2="271"/>
        </g>
        <g stroke-linecap="butt" font-size="9px" fill="white" text-rendering="optimizeLegibility" font-family="'.AppleSystemUIFont'" stroke="white" font-weight="bold" stroke-width="2.1">
            <polygon points=" 251 271 259 281 243 281" stroke="none" clip-path="url(#clipPath94)"/>
            <polygon fill="none" stroke-width="1.1" clip-path="url(#clipPath94)" points=" 251 271 259 281 243 281" stroke="black"/>
        </g>
    </g>
    <rect x="131" y="10" fill-opacity="0" width="221" id="GeneericAI-Tool-Design" height="261" stroke-opacity="0"/>
    <rect x="137" y="163" fill-opacity="0" width="211" id="Algorithm-A" height="11" stroke-opacity="0"/>
    <rect x="137" y="216" fill-opacity="0" width="211" id="ExecuteTool-A" height="11" stroke-opacity="0"/>
    <rect x="137" y="227" fill-opacity="0" width="211" id="TrainTool" height="11" stroke-opacity="0"/>
    <rect x="342" y="59" fill-opacity="0" width="20" id="AlgorithmX-ServiceInterface" height="20" stroke-opacity="0"/>
    <rect x="342" y="117" fill-opacity="0" width="20" id="SysMonitor" height="20" stroke-opacity="0"/>
    <rect x="121" y="60" fill-opacity="0" width="20" id="ServiceDiscovery" height="20" stroke-opacity="0"/>
    <rect x="121" y="100" fill-opacity="0" width="20" id="GetPublicKey" height="20" stroke-opacity="0"/>
    <rect x="121" y="140" fill-opacity="0" width="20" id="ServiceOrchestration" height="20" stroke-opacity="0"/>
    <rect x="531" y="10" fill-opacity="0" width="221" id="AlgorithmX-ServiceInterface" height="261" stroke-opacity="0"/>
    <rect x="537" y="124" fill-opacity="0" width="211" id="Interface1-DataModel" height="11" stroke-opacity="0"/>
    <rect x="537" y="135" fill-opacity="0" width="211" id="" height="11" stroke-opacity="0"/>
    <rect x="1311" y="10" fill-opacity="0" width="201" id="AlgorithmX" height="261" stroke-opacity="0"/>
    <rect x="1317" y="116" fill-opacity="0" width="191" id="Algorithm-X-code" height="11" stroke-opacity="0"/>
    <rect x="851" y="10" fill-opacity="0" width="195" id="Word2Vec" height="261" stroke-opacity="0"/>
    <rect x="857" y="40" fill-opacity="0" width="185" id="URL" height="11" stroke-opacity="0"/>
    <rect x="631" y="370" fill-opacity="0" width="221" id="SysD3" height="221" stroke-opacity="0"/>
    <rect x="131" y="330" fill-opacity="0" width="241" id="GegnericAI-ToolDwsignDescrciption" height="241" stroke-opacity="0"/>
</svg>
