<?xml version="1.0" encoding="UTF-8"?><svg xmlns="http://www.w3.org/2000/svg" xmlns:xlink="http://www.w3.org/1999/xlink" stroke-dasharray="none" shape-rendering="auto" font-family="'Dialog'" width="1021" text-rendering="auto" fill-opacity="1" contentScriptType="text/ecmascript" color-interpolation="auto" color-rendering="auto" preserveAspectRatio="xMidYMid meet" font-size="12px" viewBox="0 0 1021 701" fill="black" stroke="black" image-rendering="auto" stroke-miterlimit="10" zoomAndPan="magnify" version="1.0" stroke-linecap="square" stroke-linejoin="miter" contentStyleType="text/css" font-style="normal" height="701" stroke-width="1" stroke-dashoffset="0" font-weight="normal" stroke-opacity="1">
    <!--Generated by the Batik Graphics2D SVG Generator-->
    <defs id="genericDefs"/>
    <g>
        <defs id="defs1">
            <linearGradient x1="170" x2="170" y1="10" gradientUnits="userSpaceOnUse" y2="271" xlink:type="simple" xlink:actuate="onLoad" id="linearGradient1" xlink:show="other" spreadMethod="pad">
                <stop stop-opacity="1" stop-color="rgb(255,38,0)" offset="0%"/>
                <stop stop-opacity="1" stop-color="rgb(255,38,0)" offset="100%"/>
            </linearGradient>
            <linearGradient x1="421" x2="421" y1="59" gradientUnits="userSpaceOnUse" y2="79" xlink:type="simple" xlink:actuate="onLoad" id="linearGradient2" xlink:show="other" spreadMethod="pad">
                <stop stop-opacity="1" stop-color="rgb(155,199,204)" offset="0%"/>
                <stop stop-opacity="1" stop-color="rgb(155,199,204)" offset="100%"/>
            </linearGradient>
            <linearGradient x1="160" x2="160" y1="60" gradientUnits="userSpaceOnUse" y2="80" xlink:type="simple" xlink:actuate="onLoad" id="linearGradient3" xlink:show="other" spreadMethod="pad">
                <stop stop-opacity="1" stop-color="rgb(155,199,204)" offset="0%"/>
                <stop stop-opacity="1" stop-color="rgb(155,199,204)" offset="100%"/>
            </linearGradient>
            <linearGradient x1="160" x2="160" y1="100" gradientUnits="userSpaceOnUse" y2="120" xlink:type="simple" xlink:actuate="onLoad" id="linearGradient4" xlink:show="other" spreadMethod="pad">
                <stop stop-opacity="1" stop-color="rgb(155,199,204)" offset="0%"/>
                <stop stop-opacity="1" stop-color="rgb(155,199,204)" offset="100%"/>
            </linearGradient>
            <linearGradient x1="160" x2="160" y1="140" gradientUnits="userSpaceOnUse" y2="160" xlink:type="simple" xlink:actuate="onLoad" id="linearGradient5" xlink:show="other" spreadMethod="pad">
                <stop stop-opacity="1" stop-color="rgb(155,199,204)" offset="0%"/>
                <stop stop-opacity="1" stop-color="rgb(155,199,204)" offset="100%"/>
            </linearGradient>
            <linearGradient x1="421" x2="421" y1="94" gradientUnits="userSpaceOnUse" y2="114" xlink:type="simple" xlink:actuate="onLoad" id="linearGradient6" xlink:show="other" spreadMethod="pad">
                <stop stop-opacity="1" stop-color="rgb(155,199,204)" offset="0%"/>
                <stop stop-opacity="1" stop-color="rgb(155,199,204)" offset="100%"/>
            </linearGradient>
            <linearGradient x1="790" x2="790" y1="13" gradientUnits="userSpaceOnUse" y2="274" xlink:type="simple" xlink:actuate="onLoad" id="linearGradient7" xlink:show="other" spreadMethod="pad">
                <stop stop-opacity="1" stop-color="rgb(155,199,204)" offset="0%"/>
                <stop stop-opacity="1" stop-color="rgb(155,199,204)" offset="100%"/>
            </linearGradient>
            <linearGradient x1="790" x2="790" y1="410" gradientUnits="userSpaceOnUse" y2="691" xlink:type="simple" xlink:actuate="onLoad" id="linearGradient8" xlink:show="other" spreadMethod="pad">
                <stop stop-opacity="1" stop-color="rgb(155,199,204)" offset="0%"/>
                <stop stop-opacity="1" stop-color="rgb(155,199,204)" offset="100%"/>
            </linearGradient>
            <linearGradient x1="170" x2="170" y1="410" gradientUnits="userSpaceOnUse" y2="691" xlink:type="simple" xlink:actuate="onLoad" id="linearGradient9" xlink:show="other" spreadMethod="pad">
                <stop stop-opacity="1" stop-color="rgb(255,38,0)" offset="0%"/>
                <stop stop-opacity="1" stop-color="rgb(255,38,0)" offset="100%"/>
            </linearGradient>
            <linearGradient x1="421" x2="421" y1="450" gradientUnits="userSpaceOnUse" y2="470" xlink:type="simple" xlink:actuate="onLoad" id="linearGradient10" xlink:show="other" spreadMethod="pad">
                <stop stop-opacity="1" stop-color="rgb(155,199,204)" offset="0%"/>
                <stop stop-opacity="1" stop-color="rgb(155,199,204)" offset="100%"/>
            </linearGradient>
            <linearGradient x1="160" x2="160" y1="460" gradientUnits="userSpaceOnUse" y2="480" xlink:type="simple" xlink:actuate="onLoad" id="linearGradient11" xlink:show="other" spreadMethod="pad">
                <stop stop-opacity="1" stop-color="rgb(155,199,204)" offset="0%"/>
                <stop stop-opacity="1" stop-color="rgb(155,199,204)" offset="100%"/>
            </linearGradient>
            <linearGradient x1="160" x2="160" y1="540" gradientUnits="userSpaceOnUse" y2="560" xlink:type="simple" xlink:actuate="onLoad" id="linearGradient12" xlink:show="other" spreadMethod="pad">
                <stop stop-opacity="1" stop-color="rgb(155,199,204)" offset="0%"/>
                <stop stop-opacity="1" stop-color="rgb(155,199,204)" offset="100%"/>
            </linearGradient>
            <linearGradient x1="160" x2="160" y1="500" gradientUnits="userSpaceOnUse" y2="520" xlink:type="simple" xlink:actuate="onLoad" id="linearGradient13" xlink:show="other" spreadMethod="pad">
                <stop stop-opacity="1" stop-color="rgb(155,199,204)" offset="0%"/>
                <stop stop-opacity="1" stop-color="rgb(155,199,204)" offset="100%"/>
            </linearGradient>
            <linearGradient x1="421" x2="421" y1="481" gradientUnits="userSpaceOnUse" y2="501" xlink:type="simple" xlink:actuate="onLoad" id="linearGradient14" xlink:show="other" spreadMethod="pad">
                <stop stop-opacity="1" stop-color="rgb(155,199,204)" offset="0%"/>
                <stop stop-opacity="1" stop-color="rgb(155,199,204)" offset="100%"/>
            </linearGradient>
            <clipPath clipPathUnits="userSpaceOnUse" id="clipPath1">
                <path d="M170 10 L170 270 L430 270 L430 10 Z"/>
            </clipPath>
            <clipPath clipPathUnits="userSpaceOnUse" id="clipPath2">
                <path d="M283 12 L320 12 L320 25 L283 25 L283 12 Z"/>
            </clipPath>
            <clipPath clipPathUnits="userSpaceOnUse" id="clipPath3">
                <path d="M251 24 L352 24 L352 37 L251 37 L251 24 Z"/>
            </clipPath>
            <clipPath clipPathUnits="userSpaceOnUse" id="clipPath4">
                <path d="M284 38 L318 38 L318 50 L284 50 L284 38 Z"/>
            </clipPath>
            <clipPath clipPathUnits="userSpaceOnUse" id="clipPath5">
                <path d="M175 49 L411 49 L411 64 L175 64 L175 49 Z"/>
            </clipPath>
            <clipPath clipPathUnits="userSpaceOnUse" id="clipPath6">
                <path d="M175 62 L305 62 L305 77 L175 77 L175 62 Z"/>
            </clipPath>
            <clipPath clipPathUnits="userSpaceOnUse" id="clipPath7">
                <path d="M175 75 L313 75 L313 90 L175 90 L175 75 Z"/>
            </clipPath>
            <clipPath clipPathUnits="userSpaceOnUse" id="clipPath8">
                <path d="M175 88 L315 88 L315 103 L175 103 L175 88 Z"/>
            </clipPath>
            <clipPath clipPathUnits="userSpaceOnUse" id="clipPath9">
                <path d="M175 101 L292 101 L292 116 L175 116 L175 101 Z"/>
            </clipPath>
            <clipPath clipPathUnits="userSpaceOnUse" id="clipPath10">
                <path d="M170 36 L432 36 L432 140 L170 140 L170 36 Z"/>
            </clipPath>
            <clipPath clipPathUnits="userSpaceOnUse" id="clipPath11">
                <path d="M169 9 L432 9 L432 272 L169 272 L169 9 Z"/>
            </clipPath>
            <clipPath clipPathUnits="userSpaceOnUse" id="clipPath12">
                <path d="M281 151 L322 151 L322 163 L281 163 L281 151 Z"/>
            </clipPath>
            <clipPath clipPathUnits="userSpaceOnUse" id="clipPath13">
                <path d="M175 162 L331 162 L331 175 L175 175 L175 162 Z"/>
            </clipPath>
            <clipPath clipPathUnits="userSpaceOnUse" id="clipPath14">
                <path d="M170 149 L432 149 L432 223 L170 223 L170 149 Z"/>
            </clipPath>
            <clipPath clipPathUnits="userSpaceOnUse" id="clipPath15">
                <path d="M279 224 L324 224 L324 236 L279 236 L279 224 Z"/>
            </clipPath>
            <clipPath clipPathUnits="userSpaceOnUse" id="clipPath16">
                <path d="M170 222 L432 222 L432 272 L170 272 L170 222 Z"/>
            </clipPath>
            <clipPath clipPathUnits="userSpaceOnUse" id="clipPath17">
                <path d="M421 59 L421 78 L440 78 L440 59 Z"/>
            </clipPath>
            <clipPath clipPathUnits="userSpaceOnUse" id="clipPath18">
                <path d="M420 58 L442 58 L442 80 L420 80 L420 58 Z"/>
            </clipPath>
            <clipPath clipPathUnits="userSpaceOnUse" id="clipPath19">
                <path d="M445 61 L559 61 L559 74 L445 74 L445 61 Z"/>
            </clipPath>
            <clipPath clipPathUnits="userSpaceOnUse" id="clipPath20">
                <path d="M160 60 L160 79 L179 79 L179 60 Z"/>
            </clipPath>
            <clipPath clipPathUnits="userSpaceOnUse" id="clipPath21">
                <path d="M159 59 L181 59 L181 81 L159 81 L159 59 Z"/>
            </clipPath>
            <clipPath clipPathUnits="userSpaceOnUse" id="clipPath22">
                <path d="M68 69 L149 69 L149 82 L68 82 L68 69 Z"/>
            </clipPath>
            <clipPath clipPathUnits="userSpaceOnUse" id="clipPath23">
                <path d="M160 100 L160 119 L179 119 L179 100 Z"/>
            </clipPath>
            <clipPath clipPathUnits="userSpaceOnUse" id="clipPath24">
                <path d="M159 99 L181 99 L181 121 L159 121 L159 99 Z"/>
            </clipPath>
            <clipPath clipPathUnits="userSpaceOnUse" id="clipPath25">
                <path d="M49 109 L147 109 L147 122 L49 122 L49 109 Z"/>
            </clipPath>
            <clipPath clipPathUnits="userSpaceOnUse" id="clipPath26">
                <path d="M160 140 L160 159 L179 159 L179 140 Z"/>
            </clipPath>
            <clipPath clipPathUnits="userSpaceOnUse" id="clipPath27">
                <path d="M159 139 L181 139 L181 161 L159 161 L159 139 Z"/>
            </clipPath>
            <clipPath clipPathUnits="userSpaceOnUse" id="clipPath28">
                <path d="M69 149 L133 149 L133 162 L69 162 L69 149 Z"/>
            </clipPath>
            <clipPath clipPathUnits="userSpaceOnUse" id="clipPath29">
                <path d="M421 94 L421 113 L440 113 L440 94 Z"/>
            </clipPath>
            <clipPath clipPathUnits="userSpaceOnUse" id="clipPath30">
                <path d="M420 93 L442 93 L442 115 L420 115 L420 93 Z"/>
            </clipPath>
            <clipPath clipPathUnits="userSpaceOnUse" id="clipPath31">
                <path d="M445 96 L500 96 L500 109 L445 109 L445 96 Z"/>
            </clipPath>
            <clipPath clipPathUnits="userSpaceOnUse" id="clipPath32">
                <path d="M790 13 L790 273 L1010 273 L1010 13 Z"/>
            </clipPath>
            <clipPath clipPathUnits="userSpaceOnUse" id="clipPath33">
                <path d="M888 15 L915 15 L915 28 L888 28 L888 15 Z"/>
            </clipPath>
            <clipPath clipPathUnits="userSpaceOnUse" id="clipPath34">
                <path d="M846 27 L957 27 L957 40 L846 40 L846 27 Z"/>
            </clipPath>
            <clipPath clipPathUnits="userSpaceOnUse" id="clipPath35">
                <path d="M889 41 L914 41 L914 53 L889 53 L889 41 Z"/>
            </clipPath>
            <clipPath clipPathUnits="userSpaceOnUse" id="clipPath36">
                <path d="M795 52 L1012 52 L1012 80 L795 80 L795 52 Z"/>
            </clipPath>
            <clipPath clipPathUnits="userSpaceOnUse" id="clipPath37">
                <path d="M795 78 L912 78 L912 93 L795 93 L795 78 Z"/>
            </clipPath>
            <clipPath clipPathUnits="userSpaceOnUse" id="clipPath38">
                <path d="M790 90 L1012 90 L1012 104 L790 104 L790 90 Z"/>
            </clipPath>
            <clipPath clipPathUnits="userSpaceOnUse" id="clipPath39">
                <path d="M790 90 L804 90 L804 104 L790 104 L790 90 Z"/>
            </clipPath>
            <clipPath clipPathUnits="userSpaceOnUse" id="clipPath40">
                <path d="M998 90 L1012 90 L1012 104 L998 104 L998 90 Z"/>
            </clipPath>
            <clipPath clipPathUnits="userSpaceOnUse" id="clipPath41">
                <path d="M802 90 L981 90 L981 104 L802 104 L802 90 Z"/>
            </clipPath>
            <clipPath clipPathUnits="userSpaceOnUse" id="clipPath42">
                <path d="M790 39 L1012 39 L1012 104 L790 104 L790 39 Z"/>
            </clipPath>
            <clipPath clipPathUnits="userSpaceOnUse" id="clipPath43">
                <path d="M789 12 L1012 12 L1012 275 L789 275 L789 12 Z"/>
            </clipPath>
            <clipPath clipPathUnits="userSpaceOnUse" id="clipPath44">
                <path d="M879 115 L924 115 L924 127 L879 127 L879 115 Z"/>
            </clipPath>
            <clipPath clipPathUnits="userSpaceOnUse" id="clipPath45">
                <path d="M790 113 L1012 113 L1012 275 L790 275 L790 113 Z"/>
            </clipPath>
            <clipPath clipPathUnits="userSpaceOnUse" id="clipPath46">
                <path d="M790 410 L790 690 L1010 690 L1010 410 Z"/>
            </clipPath>
            <clipPath clipPathUnits="userSpaceOnUse" id="clipPath47">
                <path d="M886 412 L917 412 L917 425 L886 425 L886 412 Z"/>
            </clipPath>
            <clipPath clipPathUnits="userSpaceOnUse" id="clipPath48">
                <path d="M831 424 L971 424 L971 437 L831 437 L831 424 Z"/>
            </clipPath>
            <clipPath clipPathUnits="userSpaceOnUse" id="clipPath49">
                <path d="M887 438 L915 438 L915 450 L887 450 L887 438 Z"/>
            </clipPath>
            <clipPath clipPathUnits="userSpaceOnUse" id="clipPath50">
                <path d="M795 449 L837 449 L837 464 L795 464 L795 449 Z"/>
            </clipPath>
            <clipPath clipPathUnits="userSpaceOnUse" id="clipPath51">
                <path d="M795 462 L873 462 L873 477 L795 477 L795 462 Z"/>
            </clipPath>
            <clipPath clipPathUnits="userSpaceOnUse" id="clipPath52">
                <path d="M795 475 L886 475 L886 490 L795 490 L795 475 Z"/>
            </clipPath>
            <clipPath clipPathUnits="userSpaceOnUse" id="clipPath53">
                <path d="M795 488 L920 488 L920 503 L795 503 L795 488 Z"/>
            </clipPath>
            <clipPath clipPathUnits="userSpaceOnUse" id="clipPath54">
                <path d="M795 501 L908 501 L908 516 L795 516 L795 501 Z"/>
            </clipPath>
            <clipPath clipPathUnits="userSpaceOnUse" id="clipPath55">
                <path d="M795 514 L990 514 L990 529 L795 529 L795 514 Z"/>
            </clipPath>
            <clipPath clipPathUnits="userSpaceOnUse" id="clipPath56">
                <path d="M795 527 L926 527 L926 542 L795 542 L795 527 Z"/>
            </clipPath>
            <clipPath clipPathUnits="userSpaceOnUse" id="clipPath57">
                <path d="M795 540 L921 540 L921 555 L795 555 L795 540 Z"/>
            </clipPath>
            <clipPath clipPathUnits="userSpaceOnUse" id="clipPath58">
                <path d="M795 553 L896 553 L896 568 L795 568 L795 553 Z"/>
            </clipPath>
            <clipPath clipPathUnits="userSpaceOnUse" id="clipPath59">
                <path d="M795 566 L1012 566 L1012 594 L795 594 L795 566 Z"/>
            </clipPath>
            <clipPath clipPathUnits="userSpaceOnUse" id="clipPath60">
                <path d="M795 592 L912 592 L912 607 L795 607 L795 592 Z"/>
            </clipPath>
            <clipPath clipPathUnits="userSpaceOnUse" id="clipPath61">
                <path d="M790 604 L1012 604 L1012 618 L790 618 L790 604 Z"/>
            </clipPath>
            <clipPath clipPathUnits="userSpaceOnUse" id="clipPath62">
                <path d="M790 604 L804 604 L804 618 L790 618 L790 604 Z"/>
            </clipPath>
            <clipPath clipPathUnits="userSpaceOnUse" id="clipPath63">
                <path d="M998 604 L1012 604 L1012 618 L998 618 L998 604 Z"/>
            </clipPath>
            <clipPath clipPathUnits="userSpaceOnUse" id="clipPath64">
                <path d="M802 604 L981 604 L981 618 L802 618 L802 604 Z"/>
            </clipPath>
            <clipPath clipPathUnits="userSpaceOnUse" id="clipPath65">
                <path d="M790 436 L1012 436 L1012 618 L790 618 L790 436 Z"/>
            </clipPath>
            <clipPath clipPathUnits="userSpaceOnUse" id="clipPath66">
                <path d="M789 409 L1012 409 L1012 692 L789 692 L789 409 Z"/>
            </clipPath>
            <clipPath clipPathUnits="userSpaceOnUse" id="clipPath67">
                <path d="M879 629 L924 629 L924 641 L879 641 L879 629 Z"/>
            </clipPath>
            <clipPath clipPathUnits="userSpaceOnUse" id="clipPath68">
                <path d="M790 627 L1012 627 L1012 692 L790 692 L790 627 Z"/>
            </clipPath>
            <clipPath clipPathUnits="userSpaceOnUse" id="clipPath69">
                <path d="M170 410 L170 690 L430 690 L430 410 Z"/>
            </clipPath>
            <clipPath clipPathUnits="userSpaceOnUse" id="clipPath70">
                <path d="M279 412 L323 412 L323 425 L279 425 L279 412 Z"/>
            </clipPath>
            <clipPath clipPathUnits="userSpaceOnUse" id="clipPath71">
                <path d="M225 424 L377 424 L377 437 L225 437 L225 424 Z"/>
            </clipPath>
            <clipPath clipPathUnits="userSpaceOnUse" id="clipPath72">
                <path d="M281 438 L321 438 L321 450 L281 450 L281 438 Z"/>
            </clipPath>
            <clipPath clipPathUnits="userSpaceOnUse" id="clipPath73">
                <path d="M175 449 L303 449 L303 464 L175 464 L175 449 Z"/>
            </clipPath>
            <clipPath clipPathUnits="userSpaceOnUse" id="clipPath74">
                <path d="M175 462 L396 462 L396 477 L175 477 L175 462 Z"/>
            </clipPath>
            <clipPath clipPathUnits="userSpaceOnUse" id="clipPath75">
                <path d="M175 475 L411 475 L411 490 L175 490 L175 475 Z"/>
            </clipPath>
            <clipPath clipPathUnits="userSpaceOnUse" id="clipPath76">
                <path d="M175 488 L305 488 L305 503 L175 503 L175 488 Z"/>
            </clipPath>
            <clipPath clipPathUnits="userSpaceOnUse" id="clipPath77">
                <path d="M175 501 L313 501 L313 516 L175 516 L175 501 Z"/>
            </clipPath>
            <clipPath clipPathUnits="userSpaceOnUse" id="clipPath78">
                <path d="M175 514 L315 514 L315 529 L175 529 L175 514 Z"/>
            </clipPath>
            <clipPath clipPathUnits="userSpaceOnUse" id="clipPath79">
                <path d="M175 527 L292 527 L292 542 L175 542 L175 527 Z"/>
            </clipPath>
            <clipPath clipPathUnits="userSpaceOnUse" id="clipPath80">
                <path d="M170 436 L432 436 L432 579 L170 579 L170 436 Z"/>
            </clipPath>
            <clipPath clipPathUnits="userSpaceOnUse" id="clipPath81">
                <path d="M169 409 L432 409 L432 692 L169 692 L169 409 Z"/>
            </clipPath>
            <clipPath clipPathUnits="userSpaceOnUse" id="clipPath82">
                <path d="M281 590 L322 590 L322 602 L281 602 L281 590 Z"/>
            </clipPath>
            <clipPath clipPathUnits="userSpaceOnUse" id="clipPath83">
                <path d="M170 588 L432 588 L432 641 L170 641 L170 588 Z"/>
            </clipPath>
            <clipPath clipPathUnits="userSpaceOnUse" id="clipPath84">
                <path d="M279 642 L324 642 L324 654 L279 654 L279 642 Z"/>
            </clipPath>
            <clipPath clipPathUnits="userSpaceOnUse" id="clipPath85">
                <path d="M170 640 L432 640 L432 692 L170 692 L170 640 Z"/>
            </clipPath>
            <clipPath clipPathUnits="userSpaceOnUse" id="clipPath86">
                <path d="M421 450 L421 469 L440 469 L440 450 Z"/>
            </clipPath>
            <clipPath clipPathUnits="userSpaceOnUse" id="clipPath87">
                <path d="M420 449 L442 449 L442 471 L420 471 L420 449 Z"/>
            </clipPath>
            <clipPath clipPathUnits="userSpaceOnUse" id="clipPath88">
                <path d="M445 452 L587 452 L587 465 L445 465 L445 452 Z"/>
            </clipPath>
            <clipPath clipPathUnits="userSpaceOnUse" id="clipPath89">
                <path d="M160 460 L160 479 L179 479 L179 460 Z"/>
            </clipPath>
            <clipPath clipPathUnits="userSpaceOnUse" id="clipPath90">
                <path d="M159 459 L181 459 L181 481 L159 481 L159 459 Z"/>
            </clipPath>
            <clipPath clipPathUnits="userSpaceOnUse" id="clipPath91">
                <path d="M29 469 L140 469 L140 482 L29 482 L29 469 Z"/>
            </clipPath>
            <clipPath clipPathUnits="userSpaceOnUse" id="clipPath92">
                <path d="M160 540 L160 559 L179 559 L179 540 Z"/>
            </clipPath>
            <clipPath clipPathUnits="userSpaceOnUse" id="clipPath93">
                <path d="M159 539 L181 539 L181 561 L159 561 L159 539 Z"/>
            </clipPath>
            <clipPath clipPathUnits="userSpaceOnUse" id="clipPath94">
                <path d="M49 549 L147 549 L147 562 L49 562 L49 549 Z"/>
            </clipPath>
            <clipPath clipPathUnits="userSpaceOnUse" id="clipPath95">
                <path d="M160 500 L160 519 L179 519 L179 500 Z"/>
            </clipPath>
            <clipPath clipPathUnits="userSpaceOnUse" id="clipPath96">
                <path d="M159 499 L181 499 L181 521 L159 521 L159 499 Z"/>
            </clipPath>
            <clipPath clipPathUnits="userSpaceOnUse" id="clipPath97">
                <path d="M9 509 L136 509 L136 522 L9 522 L9 509 Z"/>
            </clipPath>
            <clipPath clipPathUnits="userSpaceOnUse" id="clipPath98">
                <path d="M421 481 L421 500 L440 500 L440 481 Z"/>
            </clipPath>
            <clipPath clipPathUnits="userSpaceOnUse" id="clipPath99">
                <path d="M420 480 L442 480 L442 502 L420 502 L420 480 Z"/>
            </clipPath>
            <clipPath clipPathUnits="userSpaceOnUse" id="clipPath100">
                <path d="M445 483 L530 483 L530 496 L445 496 L445 483 Z"/>
            </clipPath>
            <clipPath clipPathUnits="userSpaceOnUse" id="clipPath101">
                <path d="M-1 -1 L1022 -1 L1022 702 L-1 702 L-1 -1 Z"/>
            </clipPath>
            <clipPath clipPathUnits="userSpaceOnUse" id="clipPath102">
                <path d="M881 273 L900 273 L900 286 L881 286 L881 273 Z"/>
            </clipPath>
            <clipPath clipPathUnits="userSpaceOnUse" id="clipPath103">
                <path d="M301 270 L320 270 L320 283 L301 283 L301 270 Z"/>
            </clipPath>
        </defs>
        <g font-size="11px" fill="url(#linearGradient1)" font-family="'.AppleSystemUIFont'" stroke-linejoin="round" stroke="url(#linearGradient1)" stroke-width="0" stroke-miterlimit="0">
            <rect x="170" width="261" height="261" y="10" clip-path="url(#clipPath1)" stroke="none"/>
        </g>
        <g stroke-miterlimit="0" stroke-width="0" font-size="9px" font-family="'.AppleSystemUIFont'" font-weight="bold" stroke-linejoin="round">
            <text x="284" xml:space="preserve" y="22" clip-path="url(#clipPath2)" stroke="none">«SysD»</text>
            <text x="252" xml:space="preserve" y="34" clip-path="url(#clipPath3)" stroke="none">Authentication-Design</text>
            <text x="285" xml:space="preserve" font-size="8px" y="47" clip-path="url(#clipPath4)" stroke="none">«SysD»</text>
            <text x="176" font-size="11px" y="61" clip-path="url(#clipPath5)" stroke="none" font-weight="normal" xml:space="preserve">MicrosystemName=[Authentication-Design] </text>
            <text x="176" font-size="11px" y="74" clip-path="url(#clipPath6)" stroke="none" font-weight="normal" xml:space="preserve">FunctionalProperties=[] </text>
            <text x="176" font-size="11px" y="87" clip-path="url(#clipPath7)" stroke="none" font-weight="normal" xml:space="preserve">SystemDatabase=MySQL </text>
            <text x="176" font-size="11px" y="100" clip-path="url(#clipPath8)" stroke="none" font-weight="normal" xml:space="preserve">MicrosystemBehaviour=[] </text>
            <text x="176" font-size="11px" y="113" clip-path="url(#clipPath9)" stroke="none" font-weight="normal" xml:space="preserve">isEncapsulated=false </text>
        </g>
        <g font-size="11px" stroke-width="2.1" font-family="'.AppleSystemUIFont'" stroke-linecap="butt">
            <line y2="38" fill="none" x1="170" clip-path="url(#clipPath10)" x2="431" y1="38"/>
            <line clip-path="url(#clipPath11)" fill="none" x1="170" x2="431" y1="37" y2="37" stroke-width="1.1"/>
            <text x="282" font-size="8px" y="160" clip-path="url(#clipPath12)" stroke="none" font-weight="bold" stroke-width="1.1" xml:space="preserve">attributes</text>
            <text x="176" font-size="9px" y="172" clip-path="url(#clipPath13)" stroke="none" font-weight="bold" stroke-width="1.1" xml:space="preserve">«FullPort»  + ServiceOrcehstration</text>
            <line y2="151" fill="none" x1="170" clip-path="url(#clipPath14)" x2="431" y1="151"/>
            <text x="280" font-size="8px" y="233" clip-path="url(#clipPath15)" stroke="none" font-weight="bold" xml:space="preserve">operations</text>
            <line y2="224" fill="none" x1="170" clip-path="url(#clipPath16)" x2="431" y1="224"/>
            <rect x="171" y="11" clip-path="url(#clipPath11)" fill="none" width="259" rx="0" ry="0" height="259"/>
            <rect x="421" y="59" clip-path="url(#clipPath17)" fill="url(#linearGradient2)" width="20" height="20" stroke="none"/>
            <rect x="422" y="60" clip-path="url(#clipPath18)" fill="none" width="18" rx="0" ry="0" height="18"/>
            <text x="446" font-size="9px" y="71" clip-path="url(#clipPath19)" stroke="none" font-weight="bold" xml:space="preserve"> ConsumerAuthentication</text>
            <rect x="160" y="60" clip-path="url(#clipPath20)" fill="url(#linearGradient3)" width="20" height="20" stroke="none"/>
            <rect x="161" y="61" clip-path="url(#clipPath21)" fill="none" width="18" rx="0" ry="0" height="18"/>
            <text x="69" font-size="9px" y="79" clip-path="url(#clipPath22)" stroke="none" font-weight="bold" xml:space="preserve"> ServiceDiscovery</text>
            <rect x="160" y="100" clip-path="url(#clipPath23)" fill="url(#linearGradient4)" width="20" height="20" stroke="none"/>
            <rect x="161" y="101" clip-path="url(#clipPath24)" fill="none" width="18" rx="0" ry="0" height="18"/>
            <text x="50" font-size="9px" y="119" clip-path="url(#clipPath25)" stroke="none" font-weight="bold" xml:space="preserve"> ServiceOrcehstration</text>
            <rect x="160" y="140" clip-path="url(#clipPath26)" fill="url(#linearGradient5)" width="20" height="20" stroke="none"/>
            <rect x="161" y="141" clip-path="url(#clipPath27)" fill="none" width="18" rx="0" ry="0" height="18"/>
            <text x="70" font-size="9px" y="159" clip-path="url(#clipPath28)" stroke="none" font-weight="bold" xml:space="preserve"> GetPublicKey</text>
            <rect x="421" y="94" clip-path="url(#clipPath29)" fill="url(#linearGradient6)" width="20" height="20" stroke="none"/>
            <rect x="422" y="95" clip-path="url(#clipPath30)" fill="none" width="18" rx="0" ry="0" height="18"/>
            <text x="446" font-size="9px" y="106" clip-path="url(#clipPath31)" stroke="none" font-weight="bold" xml:space="preserve"> SysMonitor</text>
            <rect x="790" y="13" clip-path="url(#clipPath32)" fill="url(#linearGradient7)" width="221" height="261" stroke="none"/>
            <text x="889" font-size="9px" y="25" clip-path="url(#clipPath33)" stroke="none" font-weight="bold" xml:space="preserve">«SD»</text>
            <text x="847" font-size="9px" y="37" clip-path="url(#clipPath34)" stroke="none" font-weight="bold" xml:space="preserve">ConsumerAuthentication</text>
            <text x="890" font-size="8px" y="50" clip-path="url(#clipPath35)" stroke="none" font-weight="bold" xml:space="preserve">«SD»</text>
            <text x="796" xml:space="preserve" y="64" clip-path="url(#clipPath36)" stroke="none">MicroserviceName=ConsumerAuthentication</text>
            <text x="796" xml:space="preserve" y="90" clip-path="url(#clipPath37)" stroke="none">isEncapsulated=false </text>
            <rect x="791" y="91" clip-path="url(#clipPath38)" fill="rgb(155,199,204)" width="221" height="12" stroke="none"/>
            <rect x="791" y="91" clip-path="url(#clipPath39)" fill="white" width="12" opacity="0.51" height="12" stroke="none"/>
            <rect x="791" y="91" clip-path="url(#clipPath39)" fill="none" width="12" opacity="0.51" height="12" stroke="rgb(185,185,185)" stroke-width="35.1"/>
            <line clip-path="url(#clipPath39)" fill="none" x1="798" x2="797" y1="96" y2="97" opacity="0.51" stroke="rgb(187,187,187)" stroke-width="70.1"/>
            <line clip-path="url(#clipPath39)" fill="none" x1="797" x2="798" y1="97" y2="98" opacity="0.51" stroke="rgb(187,187,187)" stroke-width="70.1"/>
            <rect x="999" y="91" clip-path="url(#clipPath40)" fill="white" width="12" opacity="0.51" height="12" stroke="none" stroke-width="70.1"/>
            <rect x="999" y="91" clip-path="url(#clipPath40)" fill="none" width="12" opacity="0.51" height="12" stroke="rgb(185,185,185)" stroke-width="35.1"/>
            <line clip-path="url(#clipPath40)" fill="none" x1="1005" x2="1006" y1="96" y2="97" opacity="0.51" stroke="rgb(187,187,187)" stroke-width="70.1"/>
            <line clip-path="url(#clipPath40)" fill="none" x1="1006" x2="1005" y1="97" y2="98" opacity="0.51" stroke="rgb(187,187,187)" stroke-width="70.1"/>
            <rect x="803" y="91" clip-path="url(#clipPath41)" fill="white" width="177" opacity="0.51" height="12" stroke="none" stroke-width="70.1"/>
            <rect x="803" y="91" clip-path="url(#clipPath41)" fill="none" width="177" opacity="0.51" height="12" stroke="rgb(185,185,185)" stroke-width="35.1"/>
            <line clip-path="url(#clipPath41)" fill="rgb(240,240,240)" x1="873" x2="910" y1="97" y2="97" opacity="0.51" stroke="none" stroke-width="35.1"/>
            <line y2="41" fill="none" x1="790" clip-path="url(#clipPath42)" x2="1011" y1="41"/>
            <line clip-path="url(#clipPath43)" fill="none" x1="790" x2="1011" y1="40" y2="40" stroke-width="1.1"/>
            <text x="880" font-size="8px" y="124" clip-path="url(#clipPath44)" stroke="none" font-weight="bold" stroke-width="1.1" xml:space="preserve">operations</text>
            <line y2="115" fill="none" x1="790" clip-path="url(#clipPath45)" x2="1011" y1="115"/>
            <rect x="791" y="14" clip-path="url(#clipPath43)" fill="none" width="219" rx="0" ry="0" height="259"/>
            <rect x="790" y="410" clip-path="url(#clipPath46)" fill="url(#linearGradient8)" width="221" height="281" stroke="none"/>
            <text x="887" font-size="9px" y="422" clip-path="url(#clipPath47)" stroke="none" font-weight="bold" xml:space="preserve">«IDD»</text>
            <text x="832" font-size="9px" y="434" clip-path="url(#clipPath48)" stroke="none" font-weight="bold" xml:space="preserve">ConsumerAuhtentication-HTTP</text>
            <text x="888" font-size="8px" y="447" clip-path="url(#clipPath49)" stroke="none" font-weight="bold" xml:space="preserve">«IDD»</text>
            <text x="796" xml:space="preserve" y="461" clip-path="url(#clipPath50)" stroke="none">Port=0 </text>
            <text x="796" xml:space="preserve" y="474" clip-path="url(#clipPath51)" stroke="none">Protocol=http </text>
            <text x="796" xml:space="preserve" y="487" clip-path="url(#clipPath52)" stroke="none">Encoding=JSON </text>
            <text x="796" xml:space="preserve" y="500" clip-path="url(#clipPath53)" stroke="none">Security=CERTIFICATE </text>
            <text x="796" xml:space="preserve" y="513" clip-path="url(#clipPath54)" stroke="none">Compression=NONE </text>
            <text x="796" xml:space="preserve" y="526" clip-path="url(#clipPath55)" stroke="none">Certificate_level=ApplicationSystem </text>
            <text x="796" xml:space="preserve" y="539" clip-path="url(#clipPath56)" stroke="none">Token=ArrowheadToken </text>
            <text x="796" xml:space="preserve" y="552" clip-path="url(#clipPath57)" stroke="none">Crypto_algorithm=RSA </text>
            <text x="796" xml:space="preserve" y="565" clip-path="url(#clipPath58)" stroke="none">Datamodel=NONE </text>
            <text x="796" xml:space="preserve" y="578" clip-path="url(#clipPath59)" stroke="none">MicroserviceName=ConsumerAuthentication</text>
            <text x="796" xml:space="preserve" y="604" clip-path="url(#clipPath60)" stroke="none">isEncapsulated=false </text>
            <rect x="791" y="605" clip-path="url(#clipPath61)" fill="rgb(155,199,204)" width="221" height="12" stroke="none"/>
            <rect x="791" y="605" clip-path="url(#clipPath62)" fill="white" width="12" opacity="0.51" height="12" stroke="none"/>
            <rect x="791" y="605" clip-path="url(#clipPath62)" fill="none" width="12" opacity="0.51" height="12" stroke="rgb(185,185,185)" stroke-width="35.1"/>
            <line clip-path="url(#clipPath62)" fill="none" x1="798" x2="797" y1="610" y2="611" opacity="0.51" stroke="rgb(187,187,187)" stroke-width="70.1"/>
            <line clip-path="url(#clipPath62)" fill="none" x1="797" x2="798" y1="611" y2="612" opacity="0.51" stroke="rgb(187,187,187)" stroke-width="70.1"/>
            <rect x="999" y="605" clip-path="url(#clipPath63)" fill="white" width="12" opacity="0.51" height="12" stroke="none" stroke-width="70.1"/>
            <rect x="999" y="605" clip-path="url(#clipPath63)" fill="none" width="12" opacity="0.51" height="12" stroke="rgb(185,185,185)" stroke-width="35.1"/>
            <line clip-path="url(#clipPath63)" fill="none" x1="1005" x2="1006" y1="610" y2="611" opacity="0.51" stroke="rgb(187,187,187)" stroke-width="70.1"/>
            <line clip-path="url(#clipPath63)" fill="none" x1="1006" x2="1005" y1="611" y2="612" opacity="0.51" stroke="rgb(187,187,187)" stroke-width="70.1"/>
            <rect x="803" y="605" clip-path="url(#clipPath64)" fill="white" width="177" opacity="0.51" height="12" stroke="none" stroke-width="70.1"/>
            <rect x="803" y="605" clip-path="url(#clipPath64)" fill="none" width="177" opacity="0.51" height="12" stroke="rgb(185,185,185)" stroke-width="35.1"/>
            <line clip-path="url(#clipPath64)" fill="rgb(240,240,240)" x1="873" x2="910" y1="611" y2="611" opacity="0.51" stroke="none" stroke-width="35.1"/>
            <line y2="438" fill="none" x1="790" clip-path="url(#clipPath65)" x2="1011" y1="438"/>
            <line clip-path="url(#clipPath66)" fill="none" x1="790" x2="1011" y1="437" y2="437" stroke-width="1.1"/>
            <text x="880" font-size="8px" y="638" clip-path="url(#clipPath67)" stroke="none" font-weight="bold" stroke-width="1.1" xml:space="preserve">operations</text>
            <line y2="629" fill="none" x1="790" clip-path="url(#clipPath68)" x2="1011" y1="629"/>
            <rect x="791" y="411" clip-path="url(#clipPath66)" fill="none" width="219" rx="0" ry="0" height="279"/>
            <rect x="170" y="410" clip-path="url(#clipPath69)" fill="url(#linearGradient9)" width="261" height="281" stroke="none"/>
            <text x="280" font-size="9px" y="422" clip-path="url(#clipPath70)" stroke="none" font-weight="bold" xml:space="preserve">«SysDD»</text>
            <text x="226" font-size="9px" y="434" clip-path="url(#clipPath71)" stroke="none" font-weight="bold" xml:space="preserve">Authentication-DesignDescription</text>
            <text x="282" font-size="8px" y="447" clip-path="url(#clipPath72)" stroke="none" font-weight="bold" xml:space="preserve">«SysDD»</text>
            <text x="176" xml:space="preserve" y="461" clip-path="url(#clipPath73)" stroke="none">Timeformat=RFC_3339 </text>
            <text x="176" xml:space="preserve" y="474" clip-path="url(#clipPath74)" stroke="none">ArrowheadCertificate=ApplicationSystem </text>
            <text x="176" xml:space="preserve" y="487" clip-path="url(#clipPath75)" stroke="none">MicrosystemName=[Authentication-Design] </text>
            <text x="176" xml:space="preserve" y="500" clip-path="url(#clipPath76)" stroke="none">FunctionalProperties=[] </text>
            <text x="176" xml:space="preserve" y="513" clip-path="url(#clipPath77)" stroke="none">SystemDatabase=MySQL </text>
            <text x="176" xml:space="preserve" y="526" clip-path="url(#clipPath78)" stroke="none">MicrosystemBehaviour=[] </text>
            <text x="176" xml:space="preserve" y="539" clip-path="url(#clipPath79)" stroke="none">isEncapsulated=false </text>
            <line y2="438" fill="none" x1="170" clip-path="url(#clipPath80)" x2="431" y1="438"/>
            <line clip-path="url(#clipPath81)" fill="none" x1="170" x2="431" y1="437" y2="437" stroke-width="1.1"/>
            <text x="282" font-size="8px" y="599" clip-path="url(#clipPath82)" stroke="none" font-weight="bold" stroke-width="1.1" xml:space="preserve">attributes</text>
            <line y2="590" fill="none" x1="170" clip-path="url(#clipPath83)" x2="431" y1="590"/>
            <text x="280" font-size="8px" y="651" clip-path="url(#clipPath84)" stroke="none" font-weight="bold" xml:space="preserve">operations</text>
            <line y2="642" fill="none" x1="170" clip-path="url(#clipPath85)" x2="431" y1="642"/>
            <rect x="171" y="411" clip-path="url(#clipPath81)" fill="none" width="259" rx="0" ry="0" height="279"/>
            <rect x="421" y="450" clip-path="url(#clipPath86)" fill="url(#linearGradient10)" width="20" height="20" stroke="none"/>
            <rect x="422" y="451" clip-path="url(#clipPath87)" fill="none" width="18" rx="0" ry="0" height="18"/>
            <text x="446" font-size="9px" y="462" clip-path="url(#clipPath88)" stroke="none" font-weight="bold" xml:space="preserve"> ConsumerAuthentication-HTTP</text>
            <rect x="160" y="460" clip-path="url(#clipPath89)" fill="url(#linearGradient11)" width="20" height="20" stroke="none"/>
            <rect x="161" y="461" clip-path="url(#clipPath90)" fill="none" width="18" rx="0" ry="0" height="18"/>
            <text x="30" font-size="9px" y="479" clip-path="url(#clipPath91)" stroke="none" font-weight="bold" xml:space="preserve"> ServiceDiscovery_HTTP</text>
            <rect x="160" y="540" clip-path="url(#clipPath92)" fill="url(#linearGradient12)" width="20" height="20" stroke="none"/>
            <rect x="161" y="541" clip-path="url(#clipPath93)" fill="none" width="18" rx="0" ry="0" height="18"/>
            <text x="50" font-size="9px" y="559" clip-path="url(#clipPath94)" stroke="none" font-weight="bold" xml:space="preserve"> GetPubliucKey_HTTP</text>
            <rect x="160" y="500" clip-path="url(#clipPath95)" fill="url(#linearGradient13)" width="20" height="20" stroke="none"/>
            <rect x="161" y="501" clip-path="url(#clipPath96)" fill="none" width="18" rx="0" ry="0" height="18"/>
            <text x="10" font-size="9px" y="519" clip-path="url(#clipPath97)" stroke="none" font-weight="bold" xml:space="preserve"> ServiceOrchestration-HTTP</text>
            <rect x="421" y="481" clip-path="url(#clipPath98)" fill="url(#linearGradient14)" width="20" height="20" stroke="none"/>
            <rect x="422" y="482" clip-path="url(#clipPath99)" fill="none" width="18" rx="0" ry="0" height="18"/>
            <text x="446" font-size="9px" y="493" clip-path="url(#clipPath100)" stroke="none" font-weight="bold" xml:space="preserve"> SysMonitor-MQTT</text>
            <line clip-path="url(#clipPath101)" fill="none" text-rendering="optimizeLegibility" x1="890" x2="890" y1="410" y2="274"/>
        </g>
        <g stroke-linecap="butt" font-size="9px" fill="white" text-rendering="optimizeLegibility" font-family="'.AppleSystemUIFont'" stroke="white" font-weight="bold" stroke-width="2.1">
            <polygon points=" 890 274 898 284 882 284" stroke="none" clip-path="url(#clipPath102)"/>
            <polygon fill="none" stroke-width="1.1" clip-path="url(#clipPath102)" points=" 890 274 898 284 882 284" stroke="black"/>
            <line clip-path="url(#clipPath101)" fill="none" x1="310" x2="310" y1="410" y2="271" stroke="black"/>
            <polygon points=" 310 271 318 281 302 281" clip-path="url(#clipPath103)" stroke="none"/>
            <polygon fill="none" stroke-width="1.1" clip-path="url(#clipPath103)" points=" 310 271 318 281 302 281" stroke="black"/>
        </g>
    </g>
    <rect x="170" y="10" fill-opacity="0" width="261" id="Authentication-Design" height="261" stroke-opacity="0"/>
    <rect x="176" y="163" fill-opacity="0" width="251" id="ServiceOrcehstration" height="11" stroke-opacity="0"/>
    <rect x="421" y="59" fill-opacity="0" width="20" id="ConsumerAuthentication" height="20" stroke-opacity="0"/>
    <rect x="160" y="60" fill-opacity="0" width="20" id="ServiceDiscovery" height="20" stroke-opacity="0"/>
    <rect x="160" y="100" fill-opacity="0" width="20" id="ServiceOrcehstration" height="20" stroke-opacity="0"/>
    <rect x="160" y="140" fill-opacity="0" width="20" id="GetPublicKey" height="20" stroke-opacity="0"/>
    <rect x="421" y="94" fill-opacity="0" width="20" id="SysMonitor" height="20" stroke-opacity="0"/>
    <rect x="790" y="13" fill-opacity="0" width="221" id="ConsumerAuthentication" height="261" stroke-opacity="0"/>
    <rect x="790" y="410" fill-opacity="0" width="221" id="ConsumerAuhtentication-HTTP" height="281" stroke-opacity="0"/>
    <rect x="170" y="410" fill-opacity="0" width="261" id="Authentication-DesignDescription" height="281" stroke-opacity="0"/>
    <rect x="421" y="450" fill-opacity="0" width="20" id="ConsumerAuthentication-HTTP" height="20" stroke-opacity="0"/>
    <rect x="160" y="460" fill-opacity="0" width="20" id="ServiceDiscovery_HTTP" height="20" stroke-opacity="0"/>
    <rect x="160" y="540" fill-opacity="0" width="20" id="GetPubliucKey_HTTP" height="20" stroke-opacity="0"/>
    <rect x="160" y="500" fill-opacity="0" width="20" id="ServiceOrchestration-HTTP" height="20" stroke-opacity="0"/>
    <rect x="421" y="481" fill-opacity="0" width="20" id="SysMonitor-MQTT" height="20" stroke-opacity="0"/>
</svg>
